<?xml version="1.0" standalone="no"?>
<!DOCTYPE svg PUBLIC "-//W3C//DTD SVG 1.1//EN" "http://www.w3.org/Graphics/SVG/1.1/DTD/svg11.dtd" >
<svg xmlns="http://www.w3.org/2000/svg" xmlns:xlink="http://www.w3.org/1999/xlink" version="1.1">
<metadata>
Created by FontForge 20190801 at Mon Jun 15 19:28:01 2020
 By Jimmy Wärting
Copyright 2020 The Kanit Project Authors (https://github.com/cadsondemak/kanit)
</metadata>
<defs>
<font id="Kanit-ThinItalic" horiz-adv-x="0" >
  <font-face 
    font-family="Kanit Thin"
    font-weight="250"
    font-style="italic"
    font-stretch="normal"
    units-per-em="1000"
    panose-1="0 0 0 0 0 0 0 0 0 0"
    ascent="800"
    descent="-200"
    x-height="474"
    cap-height="644"
    bbox="-463 -335 1085 986"
    underline-thickness="50"
    underline-position="-125"
    slope="-12"
    unicode-range="U+000D-FB02"
  />
<missing-glyph horiz-adv-x="531" 
d="M4 0v714h411v-714h-411zM55 51h309v612h-309v-612z" />
    <glyph glyph-name="fi" unicode="fi" horiz-adv-x="476" 
d="M59 0l95 448h-75l5 26h75l18 84q15 69 61.5 105.5t118.5 36.5q31 0 55.5 -4.5t39.5 -11.5l-6 -26q-13 8 -37 12.5t-49 4.5q-67 0 -104 -28.5t-50 -86.5l-19 -86h252l-100 -474h-28l95 448h-224l-95 -448h-28z" />
    <glyph glyph-name="fl" unicode="fl" horiz-adv-x="476" 
d="M59 0l95 448h-75l5 26h75l18 84q31 142 180 142q31 0 55.5 -4.5t43.5 -12.5h28l-145 -683h-28l95 448h-224l-95 -448h-28zM187 474h224l39 183q-15 9 -40 13.5t-50 4.5q-67 0 -104.5 -28.5t-49.5 -86.5z" />
    <glyph glyph-name="uni0E240E45" unicode="&#xe24;&#xe45;" horiz-adv-x="830" 
d="M399 -160l112 525q19 88 -20.5 124t-133.5 36q-67 0 -130 -22.5t-100 -54.5l-8 -35l118 -25l-7 -33q-39 -8 -67 -30.5t-36 -60.5l-38 -178q-7 -31 3 -45.5t41 -14.5h61l-5 -26h-66q-40 0 -55 23.5t-7 62.5l38 181q8 37 36 64t70 38l-118 25l14 64q41 36 109.5 64
t152.5 28q38 0 68 -6.5t52 -17.5q32 11 71.5 17.5t77.5 6.5q92 0 126.5 -41.5t12.5 -142.5l-112 -526h-29l112 526q12 53 8.5 88.5t-33 53t-95.5 17.5q-53 0 -114 -16q26 -25 33 -62t-3 -85l-111 -522h-28z" />
    <glyph glyph-name="uni0E260E45" unicode="&#xe26;&#xe45;" horiz-adv-x="873" 
d="M442 -160l112 525q19 88 -20 124t-134 36q-67 0 -130 -22.5t-100 -54.5l-8 -35l118 -25l-7 -33q-40 -10 -59.5 -30.5t-27.5 -60.5l-38 -178q-8 -39 -31.5 -62.5t-61.5 -23.5h-51l5 26h46q52 0 65 60l38 181q8 40 29 65.5t61 36.5l-118 25l14 64q41 36 109.5 64t152.5 28
q38 0 68 -6.5t52 -17.5q32 11 71.5 17.5t77.5 6.5q92 0 126.5 -41.5t12.5 -142.5l-112 -526h-29l112 526q12 53 8.5 88.5t-32.5 53t-96 17.5q-53 0 -114 -16q26 -25 33 -62t-3 -85l-111 -522h-28z" />
    <glyph glyph-name=".notdef" horiz-adv-x="531" 
d="M4 0v714h411v-714h-411zM55 51h309v612h-309v-612z" />
    <glyph glyph-name="A" unicode="A" horiz-adv-x="650" 
d="M3 0l379 644h45l106 -644h-25l-33 200h-323l-117 -200h-32zM166 225h304l-66 403z" />
    <glyph glyph-name="Aacute" unicode="&#xc1;" horiz-adv-x="650" 
d="M398 688l95 149h30l-102 -149h-23zM3 0l379 644h45l106 -644h-25l-33 200h-323l-117 -200h-32zM166 225h304l-66 403z" />
    <glyph glyph-name="Abreve" unicode="&#x102;" horiz-adv-x="650" 
d="M414 688q-40 0 -62 27.5t-13 67.5h23q-7 -30 9 -50t46 -20q31 0 55 20t31 50h27q-9 -40 -42 -67.5t-74 -27.5zM3 0l379 644h45l106 -644h-25l-33 200h-323l-117 -200h-32zM166 225h304l-66 403z" />
    <glyph glyph-name="uni1EAE" unicode="&#x1eae;" horiz-adv-x="650" 
d="M409 780l81 109h29l-88 -109h-22zM414 688q-33 0 -60 12t-40 39t-4 73h24q-10 -52 12 -75.5t72 -23.5q46 0 81 23.5t45 75.5h26q-14 -69 -58.5 -96.5t-97.5 -27.5zM3 0l379 644h45l106 -644h-25l-33 200h-323l-117 -200h-32zM166 225h304l-66 403z" />
    <glyph glyph-name="uni1EB6" unicode="&#x1eb6;" horiz-adv-x="650" 
d="M414 688q-40 0 -62 27.5t-13 67.5h23q-7 -30 9 -50t46 -20q31 0 55 20t31 50h27q-9 -40 -42 -67.5t-74 -27.5zM3 0l379 644h45l106 -644h-25l-33 200h-323l-117 -200h-32zM166 225h304l-66 403zM221 -139l8 37h37l-8 -37h-37z" />
    <glyph glyph-name="uni1EB0" unicode="&#x1eb0;" horiz-adv-x="650" 
d="M435 780l-40 109h29l33 -109h-22zM414 688q-33 0 -60 12t-40 39t-4 73h24q-10 -52 12 -75.5t72 -23.5q46 0 81 23.5t45 75.5h26q-14 -69 -58.5 -96.5t-97.5 -27.5zM3 0l379 644h45l106 -644h-25l-33 200h-323l-117 -200h-32zM166 225h304l-66 403z" />
    <glyph glyph-name="uni1EB2" unicode="&#x1eb2;" horiz-adv-x="650" 
d="M397 759l12 56q55 3 72.5 15t22.5 35q5 22 -5.5 33.5t-40.5 11.5q-18 0 -33 -3.5t-30 -9.5l6 25q13 5 28.5 8.5t33.5 3.5q35 0 54 -17.5t12 -51.5q-7 -31 -29.5 -47.5t-66.5 -21.5l-8 -37h-28zM414 688q-33 0 -60 12t-40 39t-4 73h24q-10 -52 12 -75.5t72 -23.5
q46 0 81 23.5t45 75.5h26q-14 -69 -58.5 -96.5t-97.5 -27.5zM3 0l379 644h45l106 -644h-25l-33 200h-323l-117 -200h-32zM166 225h304l-66 403z" />
    <glyph glyph-name="uni1EB4" unicode="&#x1eb4;" horiz-adv-x="650" 
d="M320 848l6 31q31 26 76 26q25 0 39.5 -8t28.5 -16t35 -8t39.5 6.5t40.5 25.5l-7 -31q-29 -26 -75 -26q-23 0 -39 8t-30.5 16t-33.5 8q-21 0 -40 -6t-40 -26zM414 688q-33 0 -60 12t-40 39t-4 73h24q-10 -52 12 -75.5t72 -23.5q46 0 81 23.5t45 75.5h26
q-14 -69 -58.5 -96.5t-97.5 -27.5zM3 0l379 644h45l106 -644h-25l-33 200h-323l-117 -200h-32zM166 225h304l-66 403z" />
    <glyph glyph-name="uni01CD" unicode="&#x1cd;" horiz-adv-x="650" 
d="M399 688l-69 122h27l59 -104l103 104h31l-121 -122h-30zM3 0l379 644h45l106 -644h-25l-33 200h-323l-117 -200h-32zM166 225h304l-66 403z" />
    <glyph glyph-name="Acircumflex" unicode="&#xc2;" horiz-adv-x="650" 
d="M305 688l120 122h30l69 -122h-27l-59 104l-103 -104h-30zM3 0l379 644h45l106 -644h-25l-33 200h-323l-117 -200h-32zM166 225h304l-66 403z" />
    <glyph glyph-name="uni1EA4" unicode="&#x1ea4;" horiz-adv-x="650" 
d="M493 790l81 109h28l-87 -109h-22zM303 688l116 102h30l74 -102h-27l-63 86l-99 -86h-31zM3 0l379 644h45l106 -644h-25l-33 200h-323l-117 -200h-32zM166 225h304l-66 403z" />
    <glyph glyph-name="uni1EAC" unicode="&#x1eac;" horiz-adv-x="650" 
d="M305 688l120 122h30l69 -122h-27l-59 104l-103 -104h-30zM3 0l379 644h45l106 -644h-25l-33 200h-323l-117 -200h-32zM166 225h304l-66 403zM221 -139l8 37h37l-8 -37h-37z" />
    <glyph glyph-name="uni1EA6" unicode="&#x1ea6;" horiz-adv-x="650" 
d="M361 790l-40 109h29l33 -109h-22zM311 688l116 102h30l74 -102h-27l-63 86l-99 -86h-31zM3 0l379 644h45l106 -644h-25l-33 200h-323l-117 -200h-32zM166 225h304l-66 403z" />
    <glyph glyph-name="uni1EA8" unicode="&#x1ea8;" horiz-adv-x="650" 
d="M500 769l12 56q54 3 72 15t22 35q11 45 -46 45q-17 0 -32 -3.5t-30 -9.5l6 25q13 5 28.5 8.5t32.5 3.5q38 0 56 -17.5t10 -51.5q-6 -31 -28.5 -47.5t-66.5 -21.5l-8 -37h-28zM307 688l116 102h30l74 -102h-27l-63 86l-99 -86h-31zM3 0l379 644h45l106 -644h-25l-33 200
h-323l-117 -200h-32zM166 225h304l-66 403z" />
    <glyph glyph-name="uni1EAA" unicode="&#x1eaa;" horiz-adv-x="650" 
d="M313 803l7 31q29 26 75 26q25 0 39.5 -8t28.5 -16t35 -8t39.5 6.5t39.5 25.5l-6 -31q-31 -26 -75 -26q-23 0 -39 8t-30.5 16t-33.5 8q-21 0 -39.5 -6t-40.5 -26zM303 688l116 102h30l74 -102h-27l-63 86l-99 -86h-31zM3 0l379 644h45l106 -644h-25l-33 200h-323
l-117 -200h-32zM166 225h304l-66 403z" />
    <glyph glyph-name="Adieresis" unicode="&#xc4;" horiz-adv-x="650" 
d="M324 718l7 35h35l-7 -35h-35zM481 718l7 35h35l-7 -35h-35zM3 0l379 644h45l106 -644h-25l-33 200h-323l-117 -200h-32zM166 225h304l-66 403z" />
    <glyph glyph-name="uni1EA0" unicode="&#x1ea0;" horiz-adv-x="650" 
d="M3 0l379 644h45l106 -644h-25l-33 200h-323l-117 -200h-32zM166 225h304l-66 403zM221 -139l8 37h37l-8 -37h-37z" />
    <glyph glyph-name="Agrave" unicode="&#xc0;" horiz-adv-x="650" 
d="M402 688l-38 149h30l31 -149h-23zM3 0l379 644h45l106 -644h-25l-33 200h-323l-117 -200h-32zM166 225h304l-66 403z" />
    <glyph glyph-name="uni1EA2" unicode="&#x1ea2;" horiz-adv-x="650" 
d="M399 688l16 75q43 2 65 10t31.5 22.5t13.5 34.5q6 29 -9.5 44.5t-65.5 15.5q-16 0 -36.5 -3.5t-34.5 -8.5l5 25q14 5 36 8.5t37 3.5q53 0 77 -22t16 -63q-9 -39 -33 -60t-78 -26l-12 -56h-28zM3 0l379 644h45l106 -644h-25l-33 200h-323l-117 -200h-32zM166 225h304
l-66 403z" />
    <glyph glyph-name="Amacron" unicode="&#x100;" horiz-adv-x="650" 
d="M287 718l6 25h266l-6 -25h-266zM3 0l379 644h45l106 -644h-25l-33 200h-323l-117 -200h-32zM166 225h304l-66 403z" />
    <glyph glyph-name="Aogonek" unicode="&#x104;" horiz-adv-x="649" 
d="M466 -220q-34 0 -54.5 19t-10.5 66q8 41 39 78t68 57l-33 200h-323l-117 -200h-32l379 644h45l106 -644q-46 -29 -71.5 -64.5t-33.5 -70.5q-7 -31 1.5 -45.5t41.5 -14.5q13 0 27 3t24 8l-5 -25q-12 -6 -26 -8.5t-25 -2.5zM166 225h304l-66 403z" />
    <glyph glyph-name="Aring" unicode="&#xc5;" horiz-adv-x="650" 
d="M3 0l371 631q-29 8 -42 33.5t-6 58.5q8 41 40 68.5t75 27.5t63.5 -27.5t12.5 -68.5q-7 -33 -30.5 -58.5t-57.5 -33.5l104 -631h-25l-33 200h-323l-117 -200h-32zM406 653q31 0 55.5 20t30.5 50q7 31 -4 51t-52 20q-30 0 -54.5 -20t-30.5 -51q-7 -30 5 -50t50 -20z
M166 225h304l-66 403z" />
    <glyph glyph-name="Aringacute" unicode="&#x1fa;" horiz-adv-x="650" 
d="M454 850l95 119h30l-102 -119h-23zM3 0l371 631q-29 8 -42 33.5t-6 58.5q8 41 40 68.5t75 27.5t63.5 -27.5t12.5 -68.5q-7 -33 -30.5 -58.5t-57.5 -33.5l104 -631h-25l-33 200h-323l-117 -200h-32zM406 653q31 0 55.5 20t30.5 50q7 31 -4 51t-52 20q-30 0 -54.5 -20
t-30.5 -51q-7 -30 5 -50t50 -20zM166 225h304l-66 403z" />
    <glyph glyph-name="Atilde" unicode="&#xc3;" horiz-adv-x="650" 
d="M486 718q-23 0 -41.5 9t-35.5 18t-36 9q-21 0 -41.5 -7t-40.5 -27l6 31q14 14 35.5 21t42.5 7q25 0 42 -9t33.5 -18t37.5 -9q22 0 40 7.5t36 26.5l-7 -31q-26 -28 -71 -28zM3 0l379 644h45l106 -644h-25l-33 200h-323l-117 -200h-32zM166 225h304l-66 403z" />
    <glyph glyph-name="AE" unicode="&#xc6;" horiz-adv-x="825" 
d="M3 0l379 644h462l-5 -26h-325l-60 -283h290l-6 -26h-290l-60 -284h325l-5 -25h-353l42 200h-248l-117 -200h-29zM164 225h238l84 393h-90z" />
    <glyph glyph-name="AEacute" unicode="&#x1fc;" horiz-adv-x="825" 
d="M533 688l95 149h30l-102 -149h-23zM3 0l379 644h462l-5 -26h-325l-60 -283h290l-6 -26h-290l-60 -284h325l-5 -25h-353l42 200h-248l-117 -200h-29zM164 225h238l84 393h-90z" />
    <glyph glyph-name="B" unicode="B" horiz-adv-x="613" 
d="M24 0l136 644h269q90 0 124 -43t17 -123q-11 -55 -42.5 -90.5t-75.5 -52.5q50 -10 73 -48.5t9 -105.5q-19 -95 -73.5 -138t-146.5 -43h-290zM125 347h256q74 0 112 37.5t50 93.5q10 45 4.5 76.5t-35 48t-93.5 16.5h-236zM57 25h266q78 0 122 36t62 120q10 45 2.5 76.5
t-40 48t-100.5 16.5h-249z" />
    <glyph glyph-name="C" unicode="C" horiz-adv-x="585" 
d="M284 -10q-100 0 -154 39.5t-68 109.5t5 162q22 104 65.5 183.5t115.5 124.5t178 45q53 0 96.5 -7t78.5 -21l-6 -26q-34 14 -78 21.5t-94 7.5q-97 0 -162.5 -42t-105.5 -115.5t-61 -170.5q-18 -88 -7.5 -152.5t60.5 -99t149 -34.5q44 0 92 6.5t88 18.5l-6 -26
q-40 -11 -86.5 -17.5t-99.5 -6.5z" />
    <glyph glyph-name="Cacute" unicode="&#x106;" horiz-adv-x="585" 
d="M416 688l95 149h30l-102 -149h-23zM284 -10q-100 0 -154 39.5t-68 109.5t5 162q22 104 65.5 183.5t115.5 124.5t178 45q53 0 96.5 -7t78.5 -21l-6 -26q-34 14 -78 21.5t-94 7.5q-97 0 -162.5 -42t-105.5 -115.5t-61 -170.5q-18 -88 -7.5 -152.5t60.5 -99t149 -34.5
q44 0 92 6.5t88 18.5l-6 -26q-40 -11 -86.5 -17.5t-99.5 -6.5z" />
    <glyph glyph-name="Ccaron" unicode="&#x10c;" horiz-adv-x="585" 
d="M437 688l-69 122h27l59 -104l103 104h31l-121 -122h-30zM284 -10q-100 0 -154 39.5t-68 109.5t5 162q22 104 65.5 183.5t115.5 124.5t178 45q53 0 96.5 -7t78.5 -21l-6 -26q-34 14 -78 21.5t-94 7.5q-97 0 -162.5 -42t-105.5 -115.5t-61 -170.5q-18 -88 -7.5 -152.5
t60.5 -99t149 -34.5q44 0 92 6.5t88 18.5l-6 -26q-40 -11 -86.5 -17.5t-99.5 -6.5z" />
    <glyph glyph-name="Ccedilla" unicode="&#xc7;" horiz-adv-x="585" 
d="M217 -240q-16 0 -33 2.5t-28 5.5l6 25q26 -8 62 -8q53 0 83 17t39 57q8 36 -12 50.5t-73 14.5h-28l37 66q-94 3 -145 43t-64 109t6 159q22 104 65.5 183.5t115.5 124.5t178 45q53 0 96.5 -7t78.5 -21l-6 -26q-34 14 -78 21.5t-94 7.5q-97 0 -162.5 -42t-105.5 -115.5
t-61 -170.5q-19 -88 -8 -152.5t61 -99t149 -34.5q44 0 92 6.5t88 18.5l-6 -26q-37 -10 -80 -16.5t-92 -7.5l-24 -43q53 0 80.5 -21t18.5 -65q-10 -49 -47 -75t-109 -26z" />
    <glyph glyph-name="Ccircumflex" unicode="&#x108;" horiz-adv-x="585" 
d="M321 688l120 122h30l69 -122h-27l-59 104l-103 -104h-30zM284 -10q-100 0 -154 39.5t-68 109.5t5 162q22 104 65.5 183.5t115.5 124.5t178 45q53 0 96.5 -7t78.5 -21l-6 -26q-34 14 -78 21.5t-94 7.5q-97 0 -162.5 -42t-105.5 -115.5t-61 -170.5q-18 -88 -7.5 -152.5
t60.5 -99t149 -34.5q44 0 92 6.5t88 18.5l-6 -26q-40 -11 -86.5 -17.5t-99.5 -6.5z" />
    <glyph glyph-name="Cdotaccent" unicode="&#x10a;" horiz-adv-x="585" 
d="M427 718l7 35h35l-7 -35h-35zM284 -10q-100 0 -154 39.5t-68 109.5t5 162q22 104 65.5 183.5t115.5 124.5t178 45q53 0 96.5 -7t78.5 -21l-6 -26q-34 14 -78 21.5t-94 7.5q-97 0 -162.5 -42t-105.5 -115.5t-61 -170.5q-18 -88 -7.5 -152.5t60.5 -99t149 -34.5
q44 0 92 6.5t88 18.5l-6 -26q-40 -11 -86.5 -17.5t-99.5 -6.5z" />
    <glyph glyph-name="D" unicode="D" horiz-adv-x="623" 
d="M24 0l136 644h231q91 0 139.5 -33t58 -104.5t-15.5 -189.5q-23 -109 -59.5 -179.5t-97 -104t-158.5 -33.5h-234zM57 25h195q60 0 106 12.5t81.5 44.5t61.5 89t45 146q25 114 18.5 180t-49.5 94t-129 28h-203z" />
    <glyph glyph-name="Eth" unicode="&#xd0;" horiz-adv-x="674" 
d="M75 0l64 305h-91l6 25h91l66 314h231q91 0 139.5 -33t58 -104.5t-15.5 -189.5q-23 -109 -59.5 -179.5t-97 -104t-158.5 -33.5h-234zM108 25h195q60 0 106 12.5t81.5 44.5t61.5 89t45 146q25 114 18.5 180t-49.5 94t-129 28h-203l-62 -289h199l-6 -25h-198z" />
    <glyph glyph-name="Dcaron" unicode="&#x10e;" horiz-adv-x="623" 
d="M393 732l-69 122h27l59 -104l103 104h31l-121 -122h-30zM24 0l136 644h231q91 0 139.5 -33t58 -104.5t-15.5 -189.5q-23 -109 -59.5 -179.5t-97 -104t-158.5 -33.5h-234zM57 25h195q60 0 106 12.5t81.5 44.5t61.5 89t45 146q25 114 18.5 180t-49.5 94t-129 28h-203z" />
    <glyph glyph-name="Dcroat" unicode="&#x110;" horiz-adv-x="664" 
d="M65 0l64 305h-91l6 25h91l66 314h231q91 0 139.5 -33t58 -104.5t-15.5 -189.5q-23 -109 -59.5 -179.5t-97 -104t-158.5 -33.5h-234zM98 25h195q60 0 106 12.5t81.5 44.5t61.5 89t45 146q25 114 18.5 180t-49.5 94t-129 28h-203l-62 -289h199l-6 -25h-198z" />
    <glyph glyph-name="uni1E0C" unicode="&#x1e0c;" horiz-adv-x="623" 
d="M24 0l136 644h231q91 0 139.5 -33t58 -104.5t-15.5 -189.5q-23 -109 -59.5 -179.5t-97 -104t-158.5 -33.5h-234zM57 25h195q60 0 106 12.5t81.5 44.5t61.5 89t45 146q25 114 18.5 180t-49.5 94t-129 28h-203zM231 -139l8 37h37l-8 -37h-37z" />
    <glyph glyph-name="uni1E0E" unicode="&#x1e0e;" horiz-adv-x="623" 
d="M24 0l136 644h231q91 0 139.5 -33t58 -104.5t-15.5 -189.5q-23 -109 -59.5 -179.5t-97 -104t-158.5 -33.5h-234zM57 25h195q60 0 106 12.5t81.5 44.5t61.5 89t45 146q25 114 18.5 180t-49.5 94t-129 28h-203zM81 -101l5 25h266l-5 -25h-266z" />
    <glyph glyph-name="E" unicode="E" horiz-adv-x="539" 
d="M24 0l136 644h408l-5 -25h-380l-60 -284h345l-6 -25h-345l-60 -285h380l-5 -25h-408z" />
    <glyph glyph-name="Eacute" unicode="&#xc9;" horiz-adv-x="539" 
d="M367 688l95 149h30l-102 -149h-23zM24 0l136 644h408l-5 -25h-380l-60 -284h345l-6 -25h-345l-60 -285h380l-5 -25h-408z" />
    <glyph glyph-name="Ebreve" unicode="&#x114;" horiz-adv-x="539" 
d="M387 688q-40 0 -62 27.5t-13 67.5h23q-7 -30 9 -50t46 -20q31 0 55 20t31 50h27q-9 -40 -42 -67.5t-74 -27.5zM24 0l136 644h408l-5 -25h-380l-60 -284h345l-6 -25h-345l-60 -285h380l-5 -25h-408z" />
    <glyph glyph-name="Ecaron" unicode="&#x11a;" horiz-adv-x="539" 
d="M373 688l-69 122h27l59 -104l103 104h31l-121 -122h-30zM24 0l136 644h408l-5 -25h-380l-60 -284h345l-6 -25h-345l-60 -285h380l-5 -25h-408z" />
    <glyph glyph-name="Ecircumflex" unicode="&#xca;" horiz-adv-x="539" 
d="M263 688l120 122h30l69 -122h-27l-59 104l-103 -104h-30zM24 0l136 644h408l-5 -25h-380l-60 -284h345l-6 -25h-345l-60 -285h380l-5 -25h-408z" />
    <glyph glyph-name="uni1EBE" unicode="&#x1ebe;" horiz-adv-x="539" 
d="M453 790l81 109h28l-87 -109h-22zM263 688l116 102h30l74 -102h-27l-63 86l-99 -86h-31zM24 0l136 644h408l-5 -25h-380l-60 -284h345l-6 -25h-345l-60 -285h380l-5 -25h-408z" />
    <glyph glyph-name="uni1EC6" unicode="&#x1ec6;" horiz-adv-x="539" 
d="M258 688l120 122h30l69 -122h-27l-59 104l-103 -104h-30zM24 0l136 644h408l-5 -25h-380l-60 -284h345l-6 -25h-345l-60 -285h380l-5 -25h-408zM174 -139l8 37h37l-8 -37h-37z" />
    <glyph glyph-name="uni1EC0" unicode="&#x1ec0;" horiz-adv-x="539" 
d="M327 790l-40 109h29l33 -109h-22zM277 688l116 102h30l74 -102h-27l-63 86l-99 -86h-31zM24 0l136 644h408l-5 -25h-380l-60 -284h345l-6 -25h-345l-60 -285h380l-5 -25h-408z" />
    <glyph glyph-name="uni1EC2" unicode="&#x1ec2;" horiz-adv-x="539" 
d="M465 769l12 56q54 3 72 15t22 35q11 45 -46 45q-17 0 -32 -3.5t-30 -9.5l6 25q13 5 28.5 8.5t32.5 3.5q38 0 56 -17.5t10 -51.5q-6 -31 -28.5 -47.5t-66.5 -21.5l-8 -37h-28zM272 688l116 102h30l74 -102h-27l-63 86l-99 -86h-31zM24 0l136 644h408l-5 -25h-380l-60 -284
h345l-6 -25h-345l-60 -285h380l-5 -25h-408z" />
    <glyph glyph-name="uni1EC4" unicode="&#x1ec4;" horiz-adv-x="539" 
d="M284 803l7 31q29 26 75 26q25 0 39.5 -8t28.5 -16t35 -8t39.5 6.5t39.5 25.5l-6 -31q-31 -26 -75 -26q-23 0 -39 8t-30.5 16t-33.5 8q-21 0 -39.5 -6t-40.5 -26zM274 688l116 102h30l74 -102h-27l-63 86l-99 -86h-31zM24 0l136 644h408l-5 -25h-380l-60 -284h345l-6 -25
h-345l-60 -285h380l-5 -25h-408z" />
    <glyph glyph-name="Edieresis" unicode="&#xcb;" horiz-adv-x="539" 
d="M289 718l7 35h35l-7 -35h-35zM446 718l7 35h35l-7 -35h-35zM24 0l136 644h408l-5 -25h-380l-60 -284h345l-6 -25h-345l-60 -285h380l-5 -25h-408z" />
    <glyph glyph-name="Edotaccent" unicode="&#x116;" horiz-adv-x="539" 
d="M369 718l7 35h35l-7 -35h-35zM24 0l136 644h408l-5 -25h-380l-60 -284h345l-6 -25h-345l-60 -285h380l-5 -25h-408z" />
    <glyph glyph-name="uni1EB8" unicode="&#x1eb8;" horiz-adv-x="539" 
d="M24 0l136 644h408l-5 -25h-380l-60 -284h345l-6 -25h-345l-60 -285h380l-5 -25h-408zM184 -139l8 37h37l-8 -37h-37z" />
    <glyph glyph-name="Egrave" unicode="&#xc8;" horiz-adv-x="539" 
d="M376 688l-38 149h30l31 -149h-23zM24 0l136 644h408l-5 -25h-380l-60 -284h345l-6 -25h-345l-60 -285h380l-5 -25h-408z" />
    <glyph glyph-name="uni1EBA" unicode="&#x1eba;" horiz-adv-x="539" 
d="M357 688l16 75q43 2 65 10t31.5 22.5t13.5 34.5q6 29 -9.5 44.5t-65.5 15.5q-16 0 -36.5 -3.5t-34.5 -8.5l5 25q14 5 36 8.5t37 3.5q53 0 77 -22t16 -63q-9 -39 -33 -60t-78 -26l-12 -56h-28zM24 0l136 644h408l-5 -25h-380l-60 -284h345l-6 -25h-345l-60 -285h380
l-5 -25h-408z" />
    <glyph glyph-name="Emacron" unicode="&#x112;" horiz-adv-x="539" 
d="M250 718l6 25h266l-6 -25h-266zM24 0l136 644h408l-5 -25h-380l-60 -284h345l-6 -25h-345l-60 -285h380l-5 -25h-408z" />
    <glyph glyph-name="Eogonek" unicode="&#x118;" horiz-adv-x="543" 
d="M341 -220q-34 0 -54.5 19t-10.5 66q9 41 39.5 78t64.5 57h-356l136 644h408l-5 -25h-380l-60 -284h345l-6 -25h-345l-60 -285h380l-5 -25h-24q-46 -29 -71.5 -64.5t-33.5 -70.5q-7 -31 1.5 -45.5t41.5 -14.5q13 0 27 3t24 8l-5 -25q-12 -6 -26 -8.5t-25 -2.5z" />
    <glyph glyph-name="uni1EBC" unicode="&#x1ebc;" horiz-adv-x="539" 
d="M448 718q-23 0 -41.5 9t-35.5 18t-36 9q-21 0 -41.5 -7t-40.5 -27l6 31q14 14 35.5 21t42.5 7q25 0 42 -9t33.5 -18t37.5 -9q22 0 40 7.5t36 26.5l-7 -31q-26 -28 -71 -28zM24 0l136 644h408l-5 -25h-380l-60 -284h345l-6 -25h-345l-60 -285h380l-5 -25h-408z" />
    <glyph glyph-name="F" unicode="F" horiz-adv-x="500" 
d="M24 0l136 644h390l-5 -25h-362l-60 -284h326l-6 -25h-326l-65 -310h-28z" />
    <glyph glyph-name="G" unicode="G" horiz-adv-x="627" 
d="M285 -10q-97 0 -151.5 39.5t-70 109.5t3.5 162q22 104 66 183.5t116 124.5t177 45q53 0 97 -6.5t78 -17.5l-5 -26q-35 11 -79 18t-93 7q-97 0 -163 -42t-106 -115.5t-61 -170.5q-18 -87 -6.5 -151t62 -99.5t147.5 -35.5q51 0 103.5 8.5t92.5 24.5l55 260h-194l5 26h222
l-63 -297q-28 -16 -85 -31.5t-148 -15.5z" />
    <glyph glyph-name="Gbreve" unicode="&#x11e;" horiz-adv-x="627" 
d="M441 688q-40 0 -62 27.5t-13 67.5h23q-7 -30 9 -50t46 -20q31 0 55 20t31 50h27q-9 -40 -42 -67.5t-74 -27.5zM285 -10q-97 0 -151.5 39.5t-70 109.5t3.5 162q22 104 66 183.5t116 124.5t177 45q53 0 97 -6.5t78 -17.5l-5 -26q-35 11 -79 18t-93 7q-97 0 -163 -42
t-106 -115.5t-61 -170.5q-18 -87 -6.5 -151t62 -99.5t147.5 -35.5q51 0 103.5 8.5t92.5 24.5l55 260h-194l5 26h222l-63 -297q-28 -16 -85 -31.5t-148 -15.5z" />
    <glyph glyph-name="Gcaron" unicode="&#x1e6;" horiz-adv-x="627" 
d="M429 688l-69 122h27l59 -104l103 104h31l-121 -122h-30zM285 -10q-97 0 -151.5 39.5t-70 109.5t3.5 162q22 104 66 183.5t116 124.5t177 45q53 0 97 -6.5t78 -17.5l-5 -26q-35 11 -79 18t-93 7q-97 0 -163 -42t-106 -115.5t-61 -170.5q-18 -87 -6.5 -151t62 -99.5
t147.5 -35.5q51 0 103.5 8.5t92.5 24.5l55 260h-194l5 26h222l-63 -297q-28 -16 -85 -31.5t-148 -15.5z" />
    <glyph glyph-name="Gcircumflex" unicode="&#x11c;" horiz-adv-x="627" 
d="M333 688l120 122h30l69 -122h-27l-59 104l-103 -104h-30zM285 -10q-97 0 -151.5 39.5t-70 109.5t3.5 162q22 104 66 183.5t116 124.5t177 45q53 0 97 -6.5t78 -17.5l-5 -26q-35 11 -79 18t-93 7q-97 0 -163 -42t-106 -115.5t-61 -170.5q-18 -87 -6.5 -151t62 -99.5
t147.5 -35.5q51 0 103.5 8.5t92.5 24.5l55 260h-194l5 26h222l-63 -297q-28 -16 -85 -31.5t-148 -15.5z" />
    <glyph glyph-name="uni0122" unicode="&#x122;" horiz-adv-x="627" 
d="M285 -10q-97 0 -151.5 39.5t-70 109.5t3.5 162q22 104 66 183.5t116 124.5t177 45q53 0 97 -6.5t78 -17.5l-5 -26q-35 11 -79 18t-93 7q-97 0 -163 -42t-106 -115.5t-61 -170.5q-18 -87 -6.5 -151t62 -99.5t147.5 -35.5q51 0 103.5 8.5t92.5 24.5l55 260h-194l5 26h222
l-63 -297q-28 -16 -85 -31.5t-148 -15.5zM221 -190l57 153h33l-68 -153h-22z" />
    <glyph glyph-name="Gdotaccent" unicode="&#x120;" horiz-adv-x="627" 
d="M429 718l7 35h35l-7 -35h-35zM285 -10q-97 0 -151.5 39.5t-70 109.5t3.5 162q22 104 66 183.5t116 124.5t177 45q53 0 97 -6.5t78 -17.5l-5 -26q-35 11 -79 18t-93 7q-97 0 -163 -42t-106 -115.5t-61 -170.5q-18 -87 -6.5 -151t62 -99.5t147.5 -35.5q51 0 103.5 8.5
t92.5 24.5l55 260h-194l5 26h222l-63 -297q-28 -16 -85 -31.5t-148 -15.5z" />
    <glyph glyph-name="uni1E20" unicode="&#x1e20;" horiz-adv-x="627" 
d="M315 718l6 25h266l-6 -25h-266zM285 -10q-97 0 -151.5 39.5t-70 109.5t3.5 162q22 104 66 183.5t116 124.5t177 45q53 0 97 -6.5t78 -17.5l-5 -26q-35 11 -79 18t-93 7q-97 0 -163 -42t-106 -115.5t-61 -170.5q-18 -87 -6.5 -151t62 -99.5t147.5 -35.5q51 0 103.5 8.5
t92.5 24.5l55 260h-194l5 26h222l-63 -297q-28 -16 -85 -31.5t-148 -15.5z" />
    <glyph glyph-name="H" unicode="H" horiz-adv-x="618" 
d="M24 0l136 644h28l-65 -309h401l65 309h28l-136 -644h-28l65 310h-401l-65 -310h-28z" />
    <glyph glyph-name="Hbar" unicode="&#x126;" horiz-adv-x="699" 
d="M67 0l101 478h-83l5 25h83l30 141h28l-30 -141h401l30 141h28l-30 -141h79l-5 -25h-79l-101 -478h-28l65 310h-401l-65 -310h-28zM166 335h401l30 143h-401z" />
    <glyph glyph-name="uni1E2A" unicode="&#x1e2a;" horiz-adv-x="618" 
d="M24 0l136 644h28l-65 -309h401l65 309h28l-136 -644h-28l65 310h-401l-65 -310h-28zM216 -174q-35 0 -66 12.5t-46.5 41.5t-4.5 80h25q-13 -59 14.5 -84t82.5 -25q49 0 89 25t53 84h25q-11 -51 -37.5 -80t-61.5 -41.5t-73 -12.5z" />
    <glyph glyph-name="Hcircumflex" unicode="&#x124;" horiz-adv-x="618" 
d="M289 688l120 122h30l69 -122h-27l-59 104l-103 -104h-30zM24 0l136 644h28l-65 -309h401l65 309h28l-136 -644h-28l65 310h-401l-65 -310h-28z" />
    <glyph glyph-name="uni1E24" unicode="&#x1e24;" horiz-adv-x="618" 
d="M24 0l136 644h28l-65 -309h401l65 309h28l-136 -644h-28l65 310h-401l-65 -310h-28zM205 -139l8 37h37l-8 -37h-37z" />
    <glyph glyph-name="I" unicode="I" horiz-adv-x="189" 
d="M24 0l136 644h28l-136 -644h-28z" />
    <glyph glyph-name="IJ" unicode="&#x132;" horiz-adv-x="577" 
d="M273 -10q-40 0 -70.5 7t-50.5 17l6 26q45 -24 117 -24q84 0 122 33t53 104l104 491h28l-104 -491q-17 -81 -64.5 -122t-140.5 -41zM24 0l136 644h28l-136 -644h-28z" />
    <glyph glyph-name="Iacute" unicode="&#xcd;" horiz-adv-x="189" 
d="M177 688l95 149h30l-102 -149h-23zM24 0l136 644h28l-136 -644h-28z" />
    <glyph glyph-name="Ibreve" unicode="&#x12c;" horiz-adv-x="188" 
d="M183 688q-40 0 -62 27.5t-13 67.5h23q-7 -30 9 -50t46 -20q31 0 55 20t31 50h27q-9 -40 -42 -67.5t-74 -27.5zM23 0l136 644h28l-136 -644h-28z" />
    <glyph glyph-name="uni01CF" unicode="&#x1cf;" horiz-adv-x="188" 
d="M168 688l-69 122h27l59 -104l103 104h31l-121 -122h-30zM23 0l136 644h28l-136 -644h-28z" />
    <glyph glyph-name="Icircumflex" unicode="&#xce;" horiz-adv-x="187" 
d="M73 688l120 122h30l69 -122h-27l-59 104l-103 -104h-30zM22 0l136 644h28l-136 -644h-28z" />
    <glyph glyph-name="Idieresis" unicode="&#xcf;" horiz-adv-x="188" 
d="M94 718l7 35h35l-7 -35h-35zM251 718l7 35h35l-7 -35h-35zM24 0l136 644h28l-136 -644h-28z" />
    <glyph glyph-name="Idotaccent" unicode="&#x130;" horiz-adv-x="188" 
d="M173 718l7 35h35l-7 -35h-35zM24 0l136 644h28l-136 -644h-28z" />
    <glyph glyph-name="uni1ECA" unicode="&#x1eca;" horiz-adv-x="188" 
d="M22 0l136 644h28l-136 -644h-28zM-11 -139l8 37h37l-8 -37h-37z" />
    <glyph glyph-name="Igrave" unicode="&#xcc;" horiz-adv-x="188" 
d="M170 688l-38 149h30l31 -149h-23zM23 0l136 644h28l-136 -644h-28z" />
    <glyph glyph-name="uni1EC8" unicode="&#x1ec8;" horiz-adv-x="189" 
d="M169 688l16 75q43 2 65 10t31.5 22.5t13.5 34.5q6 29 -9.5 44.5t-65.5 15.5q-16 0 -36.5 -3.5t-34.5 -8.5l5 25q14 5 36 8.5t37 3.5q53 0 77 -22t16 -63q-9 -39 -33 -60t-78 -26l-12 -56h-28zM23 0l136 644h28l-136 -644h-28z" />
    <glyph glyph-name="Imacron" unicode="&#x12a;" horiz-adv-x="189" 
d="M57 718l6 25h267l-6 -25h-267zM24 0l136 644h28l-136 -644h-28z" />
    <glyph glyph-name="Iogonek" unicode="&#x12e;" horiz-adv-x="186" 
d="M-17 -220q-34 0 -54.5 19t-10.5 66q8 41 39 78t65 57l136 644h28l-136 -644q-46 -29 -71.5 -64.5t-33.5 -70.5q-7 -31 1.5 -45.5t41.5 -14.5q13 0 27 3t24 8l-5 -25q-12 -6 -26 -8.5t-25 -2.5z" />
    <glyph glyph-name="Itilde" unicode="&#x128;" horiz-adv-x="188" 
d="M249 688q-23 0 -41.5 9t-35.5 18t-36 9q-21 0 -41.5 -7t-40.5 -27l6 31q14 14 35.5 21t42.5 7q25 0 42 -9t33.5 -18t37.5 -9q22 0 40 7.5t36 26.5l-7 -31q-26 -28 -71 -28zM23 0l136 644h28l-136 -644h-28z" />
    <glyph glyph-name="J" unicode="J" horiz-adv-x="411" 
d="M107 -10q-40 0 -70.5 7t-50.5 17l6 26q45 -24 117 -24q84 0 122 33t53 104l104 491h28l-104 -491q-17 -81 -64.5 -122t-140.5 -41z" />
    <glyph glyph-name="Jcircumflex" unicode="&#x134;" horiz-adv-x="412" 
d="M302 688l120 122h30l69 -122h-27l-59 104l-103 -104h-30zM107 -10q-40 0 -70.5 7t-50.5 17l6 26q45 -24 117 -24q84 0 122 33t53 104l104 491h28l-104 -491q-17 -81 -64.5 -122t-140.5 -41z" />
    <glyph glyph-name="K" unicode="K" horiz-adv-x="564" 
d="M24 0l136 644h28l-77 -365l431 365h38l-301 -255l168 -389h-32l-160 370l-152 -129l-51 -241h-28z" />
    <glyph glyph-name="uni0136" unicode="&#x136;" horiz-adv-x="564" 
d="M24 0l136 644h28l-77 -365l431 365h38l-301 -255l168 -389h-32l-160 370l-152 -129l-51 -241h-28zM138 -190l57 153h33l-68 -153h-22z" />
    <glyph glyph-name="L" unicode="L" horiz-adv-x="519" 
d="M24 0l136 644h28l-131 -619h370l-5 -25h-398z" />
    <glyph glyph-name="Lacute" unicode="&#x139;" horiz-adv-x="519" 
d="M176 688l95 149h30l-102 -149h-23zM24 0l136 644h28l-131 -619h370l-5 -25h-398z" />
    <glyph glyph-name="Lcaron" unicode="&#x13d;" horiz-adv-x="519" 
d="M24 0l136 644h28l-131 -619h370l-5 -25h-398zM323 491l56 153h33l-67 -153h-22z" />
    <glyph glyph-name="uni013B" unicode="&#x13b;" horiz-adv-x="519" 
d="M24 0l136 644h28l-131 -619h370l-5 -25h-398zM133 -190l57 153h33l-68 -153h-22z" />
    <glyph glyph-name="Ldot" unicode="&#x13f;" horiz-adv-x="519" 
d="M24 0l136 644h28l-131 -619h370l-5 -25h-398zM341 253l7 35h35l-7 -35h-35z" />
    <glyph glyph-name="uni1E36" unicode="&#x1e36;" horiz-adv-x="519" 
d="M24 0l136 644h28l-131 -619h370l-5 -25h-398zM171 -139l8 37h37l-8 -37h-37z" />
    <glyph glyph-name="uni1E38" unicode="&#x1e38;" horiz-adv-x="547" 
d="M126 718l6 25h266l-6 -25h-266zM52 0l136 644h28l-131 -619h370l-5 -25h-398zM202 -139l8 37h37l-8 -37h-37z" />
    <glyph glyph-name="uni1E3A" unicode="&#x1e3a;" horiz-adv-x="519" 
d="M24 0l136 644h28l-131 -619h370l-5 -25h-398zM68 -101l5 25h266l-5 -25h-266z" />
    <glyph glyph-name="Lslash" unicode="&#x141;" horiz-adv-x="565" 
d="M70 0l65 306l-106 -42l5 25l106 42l66 313h28l-64 -300l189 75l-6 -25l-188 -75l-62 -294h370l-5 -25h-398z" />
    <glyph glyph-name="M" unicode="M" horiz-adv-x="738" 
d="M24 0l136 644h40l141 -507l354 507h42l-136 -644h-28l130 613l-350 -500h-32l-139 500l-130 -613h-28z" />
    <glyph glyph-name="uni1E42" unicode="&#x1e42;" horiz-adv-x="738" 
d="M24 0l136 644h40l141 -507l354 507h42l-136 -644h-28l130 613l-350 -500h-32l-139 500l-130 -613h-28zM290 -139l8 37h37l-8 -37h-37z" />
    <glyph glyph-name="N" unicode="N" horiz-adv-x="650" 
d="M24 0l136 644h31l302 -606l128 606h28l-136 -644h-31l-302 606l-128 -606h-28z" />
    <glyph glyph-name="Nacute" unicode="&#x143;" horiz-adv-x="650" 
d="M414 688l95 149h30l-102 -149h-23zM24 0l136 644h31l302 -606l128 606h28l-136 -644h-31l-302 606l-128 -606h-28z" />
    <glyph glyph-name="Ncaron" unicode="&#x147;" horiz-adv-x="650" 
d="M430 688l-69 122h27l59 -104l103 104h31l-121 -122h-30zM24 0l136 644h31l302 -606l128 606h28l-136 -644h-31l-302 606l-128 -606h-28z" />
    <glyph glyph-name="uni0145" unicode="&#x145;" horiz-adv-x="650" 
d="M24 0l136 644h31l302 -606l128 606h28l-136 -644h-31l-302 606l-128 -606h-28zM184 -190l57 153h33l-68 -153h-22z" />
    <glyph glyph-name="uni1E44" unicode="&#x1e44;" horiz-adv-x="650" 
d="M421 718l7 35h35l-7 -35h-35zM24 0l136 644h31l302 -606l128 606h28l-136 -644h-31l-302 606l-128 -606h-28z" />
    <glyph glyph-name="uni1E46" unicode="&#x1e46;" horiz-adv-x="650" 
d="M24 0l136 644h31l302 -606l128 606h28l-136 -644h-31l-302 606l-128 -606h-28zM218 -139l8 37h37l-8 -37h-37z" />
    <glyph glyph-name="Eng" unicode="&#x14a;" horiz-adv-x="649" 
d="M338 -234q-38 0 -68 10l5 26q17 -6 32 -8.5t27 -2.5q60 0 88.5 25.5t38.5 73.5l23 106l-304 610l-128 -606h-28l136 644h31l302 -606l128 606h28l-160 -754q-12 -58 -50.5 -91t-100.5 -33z" />
    <glyph glyph-name="uni1E48" unicode="&#x1e48;" horiz-adv-x="650" 
d="M24 0l136 644h31l302 -606l128 606h28l-136 -644h-31l-302 606l-128 -606h-28zM122 -101l5 25h266l-5 -25h-266z" />
    <glyph glyph-name="Ntilde" unicode="&#xd1;" horiz-adv-x="650" 
d="M496 718q-23 0 -41.5 9t-35.5 18t-36 9q-21 0 -41.5 -7t-40.5 -27l6 31q14 14 35.5 21t42.5 7q25 0 42 -9t33.5 -18t37.5 -9q22 0 40 7.5t36 26.5l-7 -31q-26 -28 -71 -28zM24 0l136 644h31l302 -606l128 606h28l-136 -644h-31l-302 606l-128 -606h-28z" />
    <glyph glyph-name="O" unicode="O" horiz-adv-x="682" 
d="M281 -10q-95 0 -149 40t-68.5 113.5t6.5 172.5q37 173 121.5 255.5t231.5 82.5q143 0 194.5 -82.5t14.5 -255.5q-21 -99 -65 -172.5t-114.5 -113.5t-171.5 -40zM287 15q128 0 207.5 77t110.5 224q25 115 12.5 183.5t-62.5 99t-138 30.5q-79 0 -142.5 -30.5t-108 -99
t-69.5 -183.5q-31 -147 12 -224t178 -77z" />
    <glyph glyph-name="Oacute" unicode="&#xd3;" horiz-adv-x="682" 
d="M423 688l95 149h30l-102 -149h-23zM281 -10q-95 0 -149 40t-68.5 113.5t6.5 172.5q37 173 121.5 255.5t231.5 82.5q143 0 194.5 -82.5t14.5 -255.5q-21 -99 -65 -172.5t-114.5 -113.5t-171.5 -40zM287 15q128 0 207.5 77t110.5 224q25 115 12.5 183.5t-62.5 99t-138 30.5
q-79 0 -142.5 -30.5t-108 -99t-69.5 -183.5q-31 -147 12 -224t178 -77z" />
    <glyph glyph-name="Obreve" unicode="&#x14e;" horiz-adv-x="682" 
d="M430 688q-40 0 -62 27.5t-13 67.5h23q-7 -30 9 -50t46 -20q31 0 55 20t31 50h27q-9 -40 -42 -67.5t-74 -27.5zM281 -10q-95 0 -149 40t-68.5 113.5t6.5 172.5q37 173 121.5 255.5t231.5 82.5q143 0 194.5 -82.5t14.5 -255.5q-21 -99 -65 -172.5t-114.5 -113.5t-171.5 -40
zM287 15q128 0 207.5 77t110.5 224q25 115 12.5 183.5t-62.5 99t-138 30.5q-79 0 -142.5 -30.5t-108 -99t-69.5 -183.5q-31 -147 12 -224t178 -77z" />
    <glyph glyph-name="uni01D1" unicode="&#x1d1;" horiz-adv-x="682" 
d="M415 688l-69 122h27l59 -104l103 104h31l-121 -122h-30zM281 -10q-95 0 -149 40t-68.5 113.5t6.5 172.5q37 173 121.5 255.5t231.5 82.5q143 0 194.5 -82.5t14.5 -255.5q-21 -99 -65 -172.5t-114.5 -113.5t-171.5 -40zM287 15q128 0 207.5 77t110.5 224
q25 115 12.5 183.5t-62.5 99t-138 30.5q-79 0 -142.5 -30.5t-108 -99t-69.5 -183.5q-31 -147 12 -224t178 -77z" />
    <glyph glyph-name="Ocircumflex" unicode="&#xd4;" horiz-adv-x="682" 
d="M321 688l120 122h30l69 -122h-27l-59 104l-103 -104h-30zM281 -10q-95 0 -149 40t-68.5 113.5t6.5 172.5q37 173 121.5 255.5t231.5 82.5q143 0 194.5 -82.5t14.5 -255.5q-21 -99 -65 -172.5t-114.5 -113.5t-171.5 -40zM287 15q128 0 207.5 77t110.5 224
q25 115 12.5 183.5t-62.5 99t-138 30.5q-79 0 -142.5 -30.5t-108 -99t-69.5 -183.5q-31 -147 12 -224t178 -77z" />
    <glyph glyph-name="uni1ED0" unicode="&#x1ed0;" horiz-adv-x="682" 
d="M517 790l81 109h28l-87 -109h-22zM327 688l116 102h30l74 -102h-27l-63 86l-99 -86h-31zM281 -10q-95 0 -149 40t-68.5 113.5t6.5 172.5q37 173 121.5 255.5t231.5 82.5q143 0 194.5 -82.5t14.5 -255.5q-21 -99 -65 -172.5t-114.5 -113.5t-171.5 -40zM287 15
q128 0 207.5 77t110.5 224q25 115 12.5 183.5t-62.5 99t-138 30.5q-79 0 -142.5 -30.5t-108 -99t-69.5 -183.5q-31 -147 12 -224t178 -77z" />
    <glyph glyph-name="uni1ED8" unicode="&#x1ed8;" horiz-adv-x="682" 
d="M325 708l120 122h30l69 -122h-27l-59 104l-103 -104h-30zM281 -10q-95 0 -149 40t-68.5 113.5t6.5 172.5q37 173 121.5 255.5t231.5 82.5q143 0 194.5 -82.5t14.5 -255.5q-21 -99 -65 -172.5t-114.5 -113.5t-171.5 -40zM287 15q128 0 207.5 77t110.5 224
q25 115 12.5 183.5t-62.5 99t-138 30.5q-79 0 -142.5 -30.5t-108 -99t-69.5 -183.5q-31 -147 12 -224t178 -77zM237 -139l8 37h37l-8 -37h-37z" />
    <glyph glyph-name="uni1ED2" unicode="&#x1ed2;" horiz-adv-x="682" 
d="M374 790l-40 109h29l33 -109h-22zM324 688l116 102h30l74 -102h-27l-63 86l-99 -86h-31zM281 -10q-95 0 -149 40t-68.5 113.5t6.5 172.5q37 173 121.5 255.5t231.5 82.5q143 0 194.5 -82.5t14.5 -255.5q-21 -99 -65 -172.5t-114.5 -113.5t-171.5 -40zM287 15
q128 0 207.5 77t110.5 224q25 115 12.5 183.5t-62.5 99t-138 30.5q-79 0 -142.5 -30.5t-108 -99t-69.5 -183.5q-31 -147 12 -224t178 -77z" />
    <glyph glyph-name="uni1ED4" unicode="&#x1ed4;" horiz-adv-x="682" 
d="M516 769l12 56q54 3 72 15t22 35q11 45 -46 45q-17 0 -32 -3.5t-30 -9.5l6 25q13 5 28.5 8.5t32.5 3.5q38 0 56 -17.5t10 -51.5q-6 -31 -28.5 -47.5t-66.5 -21.5l-8 -37h-28zM323 688l116 102h30l74 -102h-27l-63 86l-99 -86h-31zM281 -10q-95 0 -149 40t-68.5 113.5
t6.5 172.5q37 173 121.5 255.5t231.5 82.5q143 0 194.5 -82.5t14.5 -255.5q-21 -99 -65 -172.5t-114.5 -113.5t-171.5 -40zM287 15q128 0 207.5 77t110.5 224q25 115 12.5 183.5t-62.5 99t-138 30.5q-79 0 -142.5 -30.5t-108 -99t-69.5 -183.5q-31 -147 12 -224t178 -77z
" />
    <glyph glyph-name="uni1ED6" unicode="&#x1ed6;" horiz-adv-x="682" 
d="M326 803l7 31q29 26 75 26q25 0 39.5 -8t28.5 -16t35 -8t39.5 6.5t39.5 25.5l-6 -31q-31 -26 -75 -26q-23 0 -39 8t-30.5 16t-33.5 8q-21 0 -39.5 -6t-40.5 -26zM323 688l116 102h30l74 -102h-27l-63 86l-99 -86h-31zM281 -10q-95 0 -149 40t-68.5 113.5t6.5 172.5
q37 173 121.5 255.5t231.5 82.5q143 0 194.5 -82.5t14.5 -255.5q-21 -99 -65 -172.5t-114.5 -113.5t-171.5 -40zM287 15q128 0 207.5 77t110.5 224q25 115 12.5 183.5t-62.5 99t-138 30.5q-79 0 -142.5 -30.5t-108 -99t-69.5 -183.5q-31 -147 12 -224t178 -77z" />
    <glyph glyph-name="Odieresis" unicode="&#xd6;" horiz-adv-x="682" 
d="M340 718l7 35h35l-7 -35h-35zM497 718l7 35h35l-7 -35h-35zM281 -10q-95 0 -149 40t-68.5 113.5t6.5 172.5q37 173 121.5 255.5t231.5 82.5q143 0 194.5 -82.5t14.5 -255.5q-21 -99 -65 -172.5t-114.5 -113.5t-171.5 -40zM287 15q128 0 207.5 77t110.5 224
q25 115 12.5 183.5t-62.5 99t-138 30.5q-79 0 -142.5 -30.5t-108 -99t-69.5 -183.5q-31 -147 12 -224t178 -77z" />
    <glyph glyph-name="uni1ECC" unicode="&#x1ecc;" horiz-adv-x="682" 
d="M281 -10q-95 0 -149 40t-68.5 113.5t6.5 172.5q37 173 121.5 255.5t231.5 82.5q143 0 194.5 -82.5t14.5 -255.5q-21 -99 -65 -172.5t-114.5 -113.5t-171.5 -40zM287 15q128 0 207.5 77t110.5 224q25 115 12.5 183.5t-62.5 99t-138 30.5q-79 0 -142.5 -30.5t-108 -99
t-69.5 -183.5q-31 -147 12 -224t178 -77zM237 -139l8 37h37l-8 -37h-37z" />
    <glyph glyph-name="Ograve" unicode="&#xd2;" horiz-adv-x="682" 
d="M424 688l-38 149h30l31 -149h-23zM281 -10q-95 0 -149 40t-68.5 113.5t6.5 172.5q37 173 121.5 255.5t231.5 82.5q143 0 194.5 -82.5t14.5 -255.5q-21 -99 -65 -172.5t-114.5 -113.5t-171.5 -40zM287 15q128 0 207.5 77t110.5 224q25 115 12.5 183.5t-62.5 99t-138 30.5
q-79 0 -142.5 -30.5t-108 -99t-69.5 -183.5q-31 -147 12 -224t178 -77z" />
    <glyph glyph-name="uni1ECE" unicode="&#x1ece;" horiz-adv-x="682" 
d="M420 688l16 75q43 2 65 10t31.5 22.5t13.5 34.5q6 29 -9.5 44.5t-65.5 15.5q-16 0 -36.5 -3.5t-34.5 -8.5l5 25q14 5 36 8.5t37 3.5q53 0 77 -22t16 -63q-9 -39 -33 -60t-78 -26l-12 -56h-28zM281 -10q-95 0 -149 40t-68.5 113.5t6.5 172.5q37 173 121.5 255.5
t231.5 82.5q143 0 194.5 -82.5t14.5 -255.5q-21 -99 -65 -172.5t-114.5 -113.5t-171.5 -40zM287 15q128 0 207.5 77t110.5 224q25 115 12.5 183.5t-62.5 99t-138 30.5q-79 0 -142.5 -30.5t-108 -99t-69.5 -183.5q-31 -147 12 -224t178 -77z" />
    <glyph glyph-name="Ohorn" unicode="&#x1a0;" horiz-adv-x="739" 
d="M281 -10q-98 0 -151.5 40t-67 113.5t7.5 172.5q37 173 119.5 255.5t233.5 82.5q79 0 128.5 -24t73.5 -71q65 0 98.5 28t49.5 101h25q-19 -86 -60 -118t-103 -36q14 -40 12.5 -94.5t-15.5 -123.5q-21 -99 -65 -172.5t-114 -113.5t-172 -40zM287 15q130 0 208.5 77
t109.5 224q25 115 12.5 183.5t-62 99t-138.5 30.5q-85 0 -148 -30.5t-105 -99t-67 -183.5q-31 -147 13 -224t177 -77z" />
    <glyph glyph-name="uni1EDA" unicode="&#x1eda;" horiz-adv-x="739" 
d="M432 688l95 149h30l-102 -149h-23zM281 -10q-98 0 -151.5 40t-67 113.5t7.5 172.5q37 173 119.5 255.5t233.5 82.5q79 0 128.5 -24t73.5 -71q65 0 98.5 28t49.5 101h25q-19 -86 -60 -118t-103 -36q14 -40 12.5 -94.5t-15.5 -123.5q-21 -99 -65 -172.5t-114 -113.5
t-172 -40zM287 15q130 0 208.5 77t109.5 224q25 115 12.5 183.5t-62 99t-138.5 30.5q-85 0 -148 -30.5t-105 -99t-67 -183.5q-31 -147 13 -224t177 -77z" />
    <glyph glyph-name="uni1EE2" unicode="&#x1ee2;" horiz-adv-x="739" 
d="M281 -10q-98 0 -151.5 40t-67 113.5t7.5 172.5q37 173 119.5 255.5t233.5 82.5q79 0 128.5 -24t73.5 -71q65 0 98.5 28t49.5 101h25q-19 -86 -60 -118t-103 -36q14 -40 12.5 -94.5t-15.5 -123.5q-21 -99 -65 -172.5t-114 -113.5t-172 -40zM287 15q130 0 208.5 77
t109.5 224q25 115 12.5 183.5t-62 99t-138.5 30.5q-85 0 -148 -30.5t-105 -99t-67 -183.5q-31 -147 13 -224t177 -77zM241 -139l8 37h37l-8 -37h-37z" />
    <glyph glyph-name="uni1EDC" unicode="&#x1edc;" horiz-adv-x="739" 
d="M450 688l-38 149h30l31 -149h-23zM281 -10q-98 0 -151.5 40t-67 113.5t7.5 172.5q37 173 119.5 255.5t233.5 82.5q79 0 128.5 -24t73.5 -71q65 0 98.5 28t49.5 101h25q-19 -86 -60 -118t-103 -36q14 -40 12.5 -94.5t-15.5 -123.5q-21 -99 -65 -172.5t-114 -113.5
t-172 -40zM287 15q130 0 208.5 77t109.5 224q25 115 12.5 183.5t-62 99t-138.5 30.5q-85 0 -148 -30.5t-105 -99t-67 -183.5q-31 -147 13 -224t177 -77z" />
    <glyph glyph-name="uni1EDE" unicode="&#x1ede;" horiz-adv-x="739" 
d="M427 688l16 75q43 2 65 10t31.5 22.5t13.5 34.5q6 29 -9.5 44.5t-65.5 15.5q-16 0 -36.5 -3.5t-34.5 -8.5l5 25q14 5 36 8.5t37 3.5q53 0 77 -22t16 -63q-9 -39 -33 -60t-78 -26l-12 -56h-28zM281 -10q-98 0 -151.5 40t-67 113.5t7.5 172.5q37 173 119.5 255.5
t233.5 82.5q79 0 128.5 -24t73.5 -71q65 0 98.5 28t49.5 101h25q-19 -86 -60 -118t-103 -36q14 -40 12.5 -94.5t-15.5 -123.5q-21 -99 -65 -172.5t-114 -113.5t-172 -40zM287 15q130 0 208.5 77t109.5 224q25 115 12.5 183.5t-62 99t-138.5 30.5q-85 0 -148 -30.5t-105 -99
t-67 -183.5q-31 -147 13 -224t177 -77z" />
    <glyph glyph-name="uni1EE0" unicode="&#x1ee0;" horiz-adv-x="739" 
d="M522 718q-23 0 -41.5 9t-35.5 18t-36 9q-21 0 -41.5 -7t-40.5 -27l6 31q14 14 35.5 21t42.5 7q25 0 42 -9t33.5 -18t37.5 -9q22 0 40 7.5t36 26.5l-7 -31q-26 -28 -71 -28zM281 -10q-98 0 -151.5 40t-67 113.5t7.5 172.5q37 173 119.5 255.5t233.5 82.5q79 0 128.5 -24
t73.5 -71q65 0 98.5 28t49.5 101h25q-19 -86 -60 -118t-103 -36q14 -40 12.5 -94.5t-15.5 -123.5q-21 -99 -65 -172.5t-114 -113.5t-172 -40zM287 15q130 0 208.5 77t109.5 224q25 115 12.5 183.5t-62 99t-138.5 30.5q-85 0 -148 -30.5t-105 -99t-67 -183.5
q-31 -147 13 -224t177 -77z" />
    <glyph glyph-name="Ohungarumlaut" unicode="&#x150;" horiz-adv-x="682" 
d="M308 688l89 129h29l-96 -129h-22zM499 688l90 129h29l-97 -129h-22zM281 -10q-95 0 -149 40t-68.5 113.5t6.5 172.5q37 173 121.5 255.5t231.5 82.5q143 0 194.5 -82.5t14.5 -255.5q-21 -99 -65 -172.5t-114.5 -113.5t-171.5 -40zM287 15q128 0 207.5 77t110.5 224
q25 115 12.5 183.5t-62.5 99t-138 30.5q-79 0 -142.5 -30.5t-108 -99t-69.5 -183.5q-31 -147 12 -224t178 -77z" />
    <glyph glyph-name="Omacron" unicode="&#x14c;" horiz-adv-x="682" 
d="M303 718l6 25h266l-6 -25h-266zM281 -10q-95 0 -149 40t-68.5 113.5t6.5 172.5q37 173 121.5 255.5t231.5 82.5q143 0 194.5 -82.5t14.5 -255.5q-21 -99 -65 -172.5t-114.5 -113.5t-171.5 -40zM287 15q128 0 207.5 77t110.5 224q25 115 12.5 183.5t-62.5 99t-138 30.5
q-79 0 -142.5 -30.5t-108 -99t-69.5 -183.5q-31 -147 12 -224t178 -77z" />
    <glyph glyph-name="Oslash" unicode="&#xd8;" horiz-adv-x="682" 
d="M111 -53l40 71q-66 36 -85 113t4 185q37 173 121.5 255.5t231.5 82.5q47 0 83 -9l28 48h27l-31 -55q158 -55 102 -322q-21 -99 -65 -172.5t-114.5 -113.5t-171.5 -40q-64 0 -109 18l-34 -61h-27zM163 40l330 582q-16 3 -35.5 5t-40.5 2q-79 0 -142.5 -30.5t-108 -99
t-69.5 -183.5q-22 -105 -7 -174.5t73 -101.5zM287 15q128 0 207.5 77t110.5 224q29 134 7.5 205.5t-95.5 94.5l-332 -586q42 -15 102 -15z" />
    <glyph glyph-name="Oslashacute" unicode="&#x1fe;" horiz-adv-x="682" 
d="M420 688l95 149h30l-102 -149h-23zM111 -53l40 71q-66 36 -85 113t4 185q37 173 121.5 255.5t231.5 82.5q47 0 83 -9l28 48h27l-31 -55q158 -55 102 -322q-21 -99 -65 -172.5t-114.5 -113.5t-171.5 -40q-64 0 -109 18l-34 -61h-27zM163 40l330 582q-16 3 -35.5 5t-40.5 2
q-79 0 -142.5 -30.5t-108 -99t-69.5 -183.5q-22 -105 -7 -174.5t73 -101.5zM287 15q128 0 207.5 77t110.5 224q29 134 7.5 205.5t-95.5 94.5l-332 -586q42 -15 102 -15z" />
    <glyph glyph-name="Otilde" unicode="&#xd5;" horiz-adv-x="682" 
d="M502 718q-23 0 -41.5 9t-35.5 18t-36 9q-21 0 -41.5 -7t-40.5 -27l6 31q14 14 35.5 21t42.5 7q25 0 42 -9t33.5 -18t37.5 -9q22 0 40 7.5t36 26.5l-7 -31q-26 -28 -71 -28zM281 -10q-95 0 -149 40t-68.5 113.5t6.5 172.5q37 173 121.5 255.5t231.5 82.5
q143 0 194.5 -82.5t14.5 -255.5q-21 -99 -65 -172.5t-114.5 -113.5t-171.5 -40zM287 15q128 0 207.5 77t110.5 224q25 115 12.5 183.5t-62.5 99t-138 30.5q-79 0 -142.5 -30.5t-108 -99t-69.5 -183.5q-31 -147 12 -224t178 -77z" />
    <glyph glyph-name="OE" unicode="&#x152;" horiz-adv-x="1063" 
d="M281 -10q-95 0 -149 40t-68.5 113.5t6.5 172.5q37 173 121.5 255.5t231.5 82.5q195 0 220 -156l31 146h408l-5 -25h-380l-60 -284h345l-6 -25h-345l-60 -285h380l-5 -25h-408l31 146q-44 -74 -115 -115t-173 -41zM287 15q126 0 207 74.5t109 218.5l7 35q20 105 5 167.5
t-64 90.5t-134 28q-79 0 -142.5 -30.5t-108 -99t-69.5 -183.5q-31 -147 12 -224t178 -77z" />
    <glyph glyph-name="P" unicode="P" horiz-adv-x="560" 
d="M24 0l136 644h241q104 0 140.5 -52.5t17.5 -140.5q-19 -90 -81 -140t-162 -50h-209l-55 -261h-28zM112 286h211q90 0 141.5 44.5t67.5 120.5q17 81 -11.5 124.5t-116.5 43.5h-221z" />
    <glyph glyph-name="Thorn" unicode="&#xde;" horiz-adv-x="561" 
d="M24 0l136 644h28l-27 -131h213q104 0 140 -52.5t18 -140.5q-19 -90 -84 -140t-160 -50h-209l-27 -130h-28zM84 155h211q86 0 140 44.5t70 120.5q17 81 -16 124t-118 43h-216z" />
    <glyph glyph-name="Q" unicode="Q" horiz-adv-x="682" 
d="M344 -172q-46 0 -67.5 19.5t-24 56.5t7.5 87q-89 4 -138 45t-61 112.5t9 167.5q37 173 121.5 255.5t231.5 82.5t196.5 -82.5t12.5 -255.5q-21 -98 -65 -171t-113 -113t-167 -42q-15 -72 -4 -104t66 -32q15 0 36.5 3t37.5 7l-6 -26q-16 -4 -36 -7t-37 -3zM287 15
q128 0 207.5 77t110.5 224q25 115 13 183.5t-61.5 99t-139.5 30.5q-80 0 -143.5 -30.5t-107.5 -99t-69 -183.5q-31 -147 10.5 -224t179.5 -77z" />
    <glyph glyph-name="R" unicode="R" horiz-adv-x="583" 
d="M24 0l136 644h256q95 0 129 -49.5t16 -134.5q-16 -77 -62 -124t-123 -58q23 -10 31 -26.5t14 -43.5l45 -208h-28l-46 202q-6 26 -16 41.5t-32.5 22.5t-66.5 7h-167l-58 -273h-28zM115 298h218q77 0 130 37.5t71 124.5q17 80 -9.5 119.5t-110.5 39.5h-231z" />
    <glyph glyph-name="Racute" unicode="&#x154;" horiz-adv-x="583" 
d="M368 688l95 149h30l-102 -149h-23zM24 0l136 644h256q95 0 129 -49.5t16 -134.5q-16 -77 -62 -124t-123 -58q23 -10 31 -26.5t14 -43.5l45 -208h-28l-46 202q-6 26 -16 41.5t-32.5 22.5t-66.5 7h-167l-58 -273h-28zM115 298h218q77 0 130 37.5t71 124.5q17 80 -9.5 119.5
t-110.5 39.5h-231z" />
    <glyph glyph-name="Rcaron" unicode="&#x158;" horiz-adv-x="583" 
d="M373 688l-69 122h27l59 -104l103 104h31l-121 -122h-30zM24 0l136 644h256q95 0 129 -49.5t16 -134.5q-16 -77 -62 -124t-123 -58q23 -10 31 -26.5t14 -43.5l45 -208h-28l-46 202q-6 26 -16 41.5t-32.5 22.5t-66.5 7h-167l-58 -273h-28zM115 298h218q77 0 130 37.5
t71 124.5q17 80 -9.5 119.5t-110.5 39.5h-231z" />
    <glyph glyph-name="uni0156" unicode="&#x156;" horiz-adv-x="583" 
d="M24 0l136 644h256q95 0 129 -49.5t16 -134.5q-16 -77 -62 -124t-123 -58q23 -10 31 -26.5t14 -43.5l45 -208h-28l-46 202q-6 26 -16 41.5t-32.5 22.5t-66.5 7h-167l-58 -273h-28zM115 298h218q77 0 130 37.5t71 124.5q17 80 -9.5 119.5t-110.5 39.5h-231zM132 -190
l57 153h33l-68 -153h-22z" />
    <glyph glyph-name="uni1E5A" unicode="&#x1e5a;" horiz-adv-x="583" 
d="M24 0l136 644h256q95 0 129 -49.5t16 -134.5q-16 -77 -62 -124t-123 -58q23 -10 31 -26.5t14 -43.5l45 -208h-28l-46 202q-6 26 -16 41.5t-32.5 22.5t-66.5 7h-167l-58 -273h-28zM115 298h218q77 0 130 37.5t71 124.5q17 80 -9.5 119.5t-110.5 39.5h-231zM207 -139l8 37
h37l-8 -37h-37z" />
    <glyph glyph-name="uni1E5C" unicode="&#x1e5c;" horiz-adv-x="583" 
d="M254 718l6 25h266l-6 -25h-266zM24 0l136 644h256q95 0 129 -49.5t16 -134.5q-16 -77 -62 -124t-123 -58q23 -10 31 -26.5t14 -43.5l45 -208h-28l-46 202q-6 26 -16 41.5t-32.5 22.5t-66.5 7h-167l-58 -273h-28zM115 298h218q77 0 130 37.5t71 124.5q17 80 -9.5 119.5
t-110.5 39.5h-231zM185 -139l8 37h37l-8 -37h-37z" />
    <glyph glyph-name="uni1E5E" unicode="&#x1e5e;" horiz-adv-x="583" 
d="M24 0l136 644h256q95 0 129 -49.5t16 -134.5q-16 -77 -62 -124t-123 -58q23 -10 31 -26.5t14 -43.5l45 -208h-28l-46 202q-6 26 -16 41.5t-32.5 22.5t-66.5 7h-167l-58 -273h-28zM115 298h218q77 0 130 37.5t71 124.5q17 80 -9.5 119.5t-110.5 39.5h-231zM74 -101l5 25
h266l-5 -25h-266z" />
    <glyph glyph-name="S" unicode="S" horiz-adv-x="551" 
d="M197 -10q-57 0 -99 6.5t-74 19.5l5 25q37 -13 79 -20t94 -7q101 0 162 35t77 111q14 69 -26.5 102.5t-143.5 55.5q-107 24 -143 62.5t-22 104.5q16 75 78 122t182 47q53 0 97 -7.5t65 -15.5l-6 -25q-30 11 -69 17t-85 6q-101 0 -160 -35t-75 -109q-9 -41 3 -67
t50.5 -44.5t109.5 -35.5q112 -26 149 -67t23 -111q-19 -87 -87 -128.5t-184 -41.5z" />
    <glyph glyph-name="Sacute" unicode="&#x15a;" horiz-adv-x="551" 
d="M347 700l95 149h30l-102 -149h-23zM197 -10q-57 0 -99 6.5t-74 19.5l5 25q37 -13 79 -20t94 -7q101 0 162 35t77 111q14 69 -26.5 102.5t-143.5 55.5q-107 24 -143 62.5t-22 104.5q16 75 78 122t182 47q53 0 97 -7.5t65 -15.5l-6 -25q-30 11 -69 17t-85 6
q-101 0 -160 -35t-75 -109q-9 -41 3 -67t50.5 -44.5t109.5 -35.5q112 -26 149 -67t23 -111q-19 -87 -87 -128.5t-184 -41.5z" />
    <glyph glyph-name="Scaron" unicode="&#x160;" horiz-adv-x="551" 
d="M361 688l-69 122h27l59 -104l103 104h31l-121 -122h-30zM197 -10q-57 0 -99 6.5t-74 19.5l5 25q37 -13 79 -20t94 -7q101 0 162 35t77 111q14 69 -26.5 102.5t-143.5 55.5q-107 24 -143 62.5t-22 104.5q16 75 78 122t182 47q53 0 97 -7.5t65 -15.5l-6 -25q-30 11 -69 17
t-85 6q-101 0 -160 -35t-75 -109q-9 -41 3 -67t50.5 -44.5t109.5 -35.5q112 -26 149 -67t23 -111q-19 -87 -87 -128.5t-184 -41.5z" />
    <glyph glyph-name="Scedilla" unicode="&#x15e;" horiz-adv-x="551" 
d="M148 -240q-16 0 -33 2.5t-28 5.5l6 25q26 -8 62 -8q53 0 83 17t39 57q8 36 -12 50.5t-73 14.5h-28l37 66q-60 0 -102.5 6.5t-74.5 19.5l5 25q37 -13 79 -20t94 -7q101 0 162 35t77 111q14 69 -26.5 102.5t-143.5 55.5q-107 24 -143 62.5t-22 104.5q16 75 78 122t182 47
q53 0 97 -7.5t65 -15.5l-6 -25q-30 11 -69 17t-85 6q-101 0 -160 -35t-75 -109q-9 -41 3 -67t50.5 -44.5t109.5 -35.5q112 -26 149 -67t23 -111q-17 -81 -77 -122t-161 -47l-25 -44q53 0 80.5 -21t18.5 -65q-10 -49 -47 -75t-109 -26z" />
    <glyph glyph-name="Scircumflex" unicode="&#x15c;" horiz-adv-x="551" 
d="M258 720l120 122h30l69 -122h-27l-59 104l-103 -104h-30zM197 -10q-57 0 -99 6.5t-74 19.5l5 25q37 -13 79 -20t94 -7q101 0 162 35t77 111q14 69 -26.5 102.5t-143.5 55.5q-107 24 -143 62.5t-22 104.5q16 75 78 122t182 47q53 0 97 -7.5t65 -15.5l-6 -25q-30 11 -69 17
t-85 6q-101 0 -160 -35t-75 -109q-9 -41 3 -67t50.5 -44.5t109.5 -35.5q112 -26 149 -67t23 -111q-19 -87 -87 -128.5t-184 -41.5z" />
    <glyph glyph-name="uni0218" unicode="&#x218;" horiz-adv-x="551" 
d="M197 -10q-57 0 -99 6.5t-74 19.5l5 25q37 -13 79 -20t94 -7q101 0 162 35t77 111q14 69 -26.5 102.5t-143.5 55.5q-107 24 -143 62.5t-22 104.5q16 75 78 122t182 47q53 0 97 -7.5t65 -15.5l-6 -25q-30 11 -69 17t-85 6q-101 0 -160 -35t-75 -109q-9 -41 3 -67
t50.5 -44.5t109.5 -35.5q112 -26 149 -67t23 -111q-19 -87 -87 -128.5t-184 -41.5zM134 -210l57 153h32l-67 -153h-22z" />
    <glyph glyph-name="uni1E60" unicode="&#x1e60;" horiz-adv-x="551" 
d="M347 718l7 35h35l-7 -35h-35zM197 -10q-57 0 -99 6.5t-74 19.5l5 25q37 -13 79 -20t94 -7q101 0 162 35t77 111q14 69 -26.5 102.5t-143.5 55.5q-107 24 -143 62.5t-22 104.5q16 75 78 122t182 47q53 0 97 -7.5t65 -15.5l-6 -25q-30 11 -69 17t-85 6q-101 0 -160 -35
t-75 -109q-9 -41 3 -67t50.5 -44.5t109.5 -35.5q112 -26 149 -67t23 -111q-19 -87 -87 -128.5t-184 -41.5z" />
    <glyph glyph-name="uni1E62" unicode="&#x1e62;" horiz-adv-x="551" 
d="M197 -10q-57 0 -99 6.5t-74 19.5l5 25q37 -13 79 -20t94 -7q101 0 162 35t77 111q14 69 -26.5 102.5t-143.5 55.5q-107 24 -143 62.5t-22 104.5q16 75 78 122t182 47q53 0 97 -7.5t65 -15.5l-6 -25q-30 11 -69 17t-85 6q-101 0 -160 -35t-75 -109q-9 -41 3 -67
t50.5 -44.5t109.5 -35.5q112 -26 149 -67t23 -111q-19 -87 -87 -128.5t-184 -41.5zM169 -139l8 37h37l-8 -37h-37z" />
    <glyph glyph-name="uni1E9E" unicode="&#x1e9e;" horiz-adv-x="612" 
d="M301 -10q-38 0 -75 5t-64 17l6 26q29 -13 65 -18t74 -5q81 0 131.5 39.5t67.5 123.5q16 73 -9.5 108.5t-116.5 35.5h-102l6 29l250 137q9 40 -1.5 71.5t-47 50t-108.5 18.5q-99 0 -157.5 -42.5t-78.5 -136.5l-95 -449h-28l96 453q21 101 89 151t180 50q75 0 117.5 -23
t56.5 -62.5t3 -91.5l-238 -130h69q90 0 124.5 -44t17.5 -125q-40 -188 -232 -188z" />
    <glyph glyph-name="uni018F" unicode="&#x18f;" horiz-adv-x="656" 
d="M251 -10q-89 0 -137 34t-61 91t2 126l21 102h508q18 94 5.5 157.5t-70 96t-173.5 32.5q-81 0 -173 -34l6 27q41 15 88.5 23.5t90.5 8.5q172 0 228.5 -81.5t19.5 -255.5q-21 -102 -65.5 -175t-115.5 -112.5t-174 -39.5zM257 15q138 0 214.5 79t107.5 223h-480l-16 -74
q-24 -112 17 -170t157 -58z" />
    <glyph glyph-name="T" unicode="T" horiz-adv-x="569" 
d="M215 0l131 619h-231l5 25h489l-5 -25h-230l-131 -619h-28z" />
    <glyph glyph-name="Tbar" unicode="&#x166;" horiz-adv-x="569" 
d="M215 0l73 347h-165l6 25h165l52 247h-231l5 25h489l-5 -25h-230l-52 -247h161l-6 -25h-161l-73 -347h-28z" />
    <glyph glyph-name="Tcaron" unicode="&#x164;" horiz-adv-x="569" 
d="M365 720l-69 122h27l59 -104l103 104h31l-121 -122h-30zM215 0l131 619h-231l5 25h489l-5 -25h-230l-131 -619h-28z" />
    <glyph glyph-name="uni0162" unicode="&#x162;" horiz-adv-x="569" 
d="M156 -240q-16 0 -33 2.5t-28 5.5l6 25q26 -8 62 -8q53 0 83 17t39 57q8 36 -12 50.5t-73 14.5h-28l43 76l131 619h-231l5 25h489l-5 -25h-230l-131 -619l-30 -53q53 0 80.5 -21t18.5 -65q-10 -49 -47 -75t-109 -26z" />
    <glyph glyph-name="uni021A" unicode="&#x21a;" horiz-adv-x="569" 
d="M215 0l131 619h-231l5 25h489l-5 -25h-230l-131 -619h-28zM146 -190l57 153h33l-68 -153h-22z" />
    <glyph glyph-name="uni1E6C" unicode="&#x1e6c;" horiz-adv-x="569" 
d="M215 0l131 619h-231l5 25h489l-5 -25h-230l-131 -619h-28zM181 -139l8 37h37l-8 -37h-37z" />
    <glyph glyph-name="uni1E6E" unicode="&#x1e6e;" horiz-adv-x="569" 
d="M215 0l131 619h-231l5 25h489l-5 -25h-230l-131 -619h-28zM74 -101l5 25h266l-5 -25h-266z" />
    <glyph glyph-name="U" unicode="U" horiz-adv-x="657" 
d="M269 -10q-130 0 -178 61.5t-23 179.5l87 413h28l-90 -425q-22 -106 23.5 -154.5t158.5 -48.5q225 0 268 203l90 425h28l-87 -413q-25 -119 -95.5 -180t-209.5 -61z" />
    <glyph glyph-name="Uacute" unicode="&#xda;" horiz-adv-x="657" 
d="M399 688l95 149h30l-102 -149h-23zM269 -10q-130 0 -178 61.5t-23 179.5l87 413h28l-90 -425q-22 -106 23.5 -154.5t158.5 -48.5q225 0 268 203l90 425h28l-87 -413q-25 -119 -95.5 -180t-209.5 -61z" />
    <glyph glyph-name="Ubreve" unicode="&#x16c;" horiz-adv-x="657" 
d="M408 688q-40 0 -62 27.5t-13 67.5h23q-7 -30 9 -50t46 -20q31 0 55 20t31 50h27q-9 -40 -42 -67.5t-74 -27.5zM269 -10q-130 0 -178 61.5t-23 179.5l87 413h28l-90 -425q-22 -106 23.5 -154.5t158.5 -48.5q225 0 268 203l90 425h28l-87 -413q-25 -119 -95.5 -180
t-209.5 -61z" />
    <glyph glyph-name="uni01D3" unicode="&#x1d3;" horiz-adv-x="657" 
d="M403 688l-69 122h27l59 -104l103 104h31l-121 -122h-30zM269 -10q-130 0 -178 61.5t-23 179.5l87 413h28l-90 -425q-22 -106 23.5 -154.5t158.5 -48.5q225 0 268 203l90 425h28l-87 -413q-25 -119 -95.5 -180t-209.5 -61z" />
    <glyph glyph-name="Ucircumflex" unicode="&#xdb;" horiz-adv-x="657" 
d="M309 688l120 122h30l69 -122h-27l-59 104l-103 -104h-30zM269 -10q-130 0 -178 61.5t-23 179.5l87 413h28l-90 -425q-22 -106 23.5 -154.5t158.5 -48.5q225 0 268 203l90 425h28l-87 -413q-25 -119 -95.5 -180t-209.5 -61z" />
    <glyph glyph-name="Udieresis" unicode="&#xdc;" horiz-adv-x="657" 
d="M328 718l7 35h35l-7 -35h-35zM485 718l7 35h35l-7 -35h-35zM269 -10q-130 0 -178 61.5t-23 179.5l87 413h28l-90 -425q-22 -106 23.5 -154.5t158.5 -48.5q225 0 268 203l90 425h28l-87 -413q-25 -119 -95.5 -180t-209.5 -61z" />
    <glyph glyph-name="uni01D7" unicode="&#x1d7;" horiz-adv-x="657" 
d="M415 758l81 109h29l-88 -109h-22zM322 688l7 35h35l-7 -35h-35zM479 688l7 35h35l-7 -35h-35zM269 -10q-130 0 -178 61.5t-23 179.5l87 413h28l-90 -425q-22 -106 23.5 -154.5t158.5 -48.5q225 0 268 203l90 425h28l-87 -413q-25 -119 -95.5 -180t-209.5 -61z" />
    <glyph glyph-name="uni01D9" unicode="&#x1d9;" horiz-adv-x="657" 
d="M418 758l-73 102h29l63 -86l98 86h29l-116 -102h-30zM323 688l7 35h35l-7 -35h-35zM480 688l7 35h34l-7 -35h-34zM269 -10q-130 0 -178 61.5t-23 179.5l87 413h28l-90 -425q-22 -106 23.5 -154.5t158.5 -48.5q225 0 268 203l90 425h28l-87 -413q-25 -119 -95.5 -180
t-209.5 -61z" />
    <glyph glyph-name="uni01DB" unicode="&#x1db;" horiz-adv-x="657" 
d="M427 758l-40 109h29l33 -109h-22zM322 688l7 35h35l-7 -35h-35zM479 688l7 35h35l-7 -35h-35zM269 -10q-130 0 -178 61.5t-23 179.5l87 413h28l-90 -425q-22 -106 23.5 -154.5t158.5 -48.5q225 0 268 203l90 425h28l-87 -413q-25 -119 -95.5 -180t-209.5 -61z" />
    <glyph glyph-name="uni01D5" unicode="&#x1d5;" horiz-adv-x="657" 
d="M316 833l6 25h266l-6 -25h-266zM328 718l7 35h35l-7 -35h-35zM485 718l7 35h35l-7 -35h-35zM269 -10q-130 0 -178 61.5t-23 179.5l87 413h28l-90 -425q-22 -106 23.5 -154.5t158.5 -48.5q225 0 268 203l90 425h28l-87 -413q-25 -119 -95.5 -180t-209.5 -61z" />
    <glyph glyph-name="uni1EE4" unicode="&#x1ee4;" horiz-adv-x="657" 
d="M269 -10q-130 0 -178 61.5t-23 179.5l87 413h28l-90 -425q-22 -106 23.5 -154.5t158.5 -48.5q225 0 268 203l90 425h28l-87 -413q-25 -119 -95.5 -180t-209.5 -61zM225 -139l8 37h37l-8 -37h-37z" />
    <glyph glyph-name="Ugrave" unicode="&#xd9;" horiz-adv-x="657" 
d="M430 688l-38 149h30l31 -149h-23zM269 -10q-130 0 -178 61.5t-23 179.5l87 413h28l-90 -425q-22 -106 23.5 -154.5t158.5 -48.5q225 0 268 203l90 425h28l-87 -413q-25 -119 -95.5 -180t-209.5 -61z" />
    <glyph glyph-name="uni1EE6" unicode="&#x1ee6;" horiz-adv-x="657" 
d="M401 688l16 75q43 2 65 10t31.5 22.5t13.5 34.5q6 29 -9.5 44.5t-65.5 15.5q-16 0 -36.5 -3.5t-34.5 -8.5l5 25q14 5 36 8.5t37 3.5q53 0 77 -22t16 -63q-9 -39 -33 -60t-78 -26l-12 -56h-28zM269 -10q-130 0 -178 61.5t-23 179.5l87 413h28l-90 -425
q-22 -106 23.5 -154.5t158.5 -48.5q225 0 268 203l90 425h28l-87 -413q-25 -119 -95.5 -180t-209.5 -61z" />
    <glyph glyph-name="Uhorn" unicode="&#x1af;" horiz-adv-x="747" 
d="M269 -10q-126 0 -176 61.5t-25 179.5l87 413h28l-90 -425q-43 -203 182 -203q110 0 178 50t90 153l90 425h28l-18 -85q65 0 98.5 27.5t49.5 101.5h25q-13 -61 -37.5 -94t-59.5 -46t-81 -14l-64 -303q-25 -121 -98 -181t-207 -60z" />
    <glyph glyph-name="uni1EE8" unicode="&#x1ee8;" horiz-adv-x="747" 
d="M418 688l95 149h30l-102 -149h-23zM269 -10q-126 0 -176 61.5t-25 179.5l87 413h28l-90 -425q-43 -203 182 -203q110 0 178 50t90 153l90 425h28l-18 -85q65 0 98.5 27.5t49.5 101.5h25q-13 -61 -37.5 -94t-59.5 -46t-81 -14l-64 -303q-25 -121 -98 -181t-207 -60z" />
    <glyph glyph-name="uni1EF0" unicode="&#x1ef0;" horiz-adv-x="747" 
d="M269 -10q-126 0 -176 61.5t-25 179.5l87 413h28l-90 -425q-43 -203 182 -203q110 0 178 50t90 153l90 425h28l-18 -85q65 0 98.5 27.5t49.5 101.5h25q-13 -61 -37.5 -94t-59.5 -46t-81 -14l-64 -303q-25 -121 -98 -181t-207 -60zM221 -139l8 37h37l-8 -37h-37z" />
    <glyph glyph-name="uni1EEA" unicode="&#x1eea;" horiz-adv-x="747" 
d="M417 688l-38 149h30l31 -149h-23zM269 -10q-126 0 -176 61.5t-25 179.5l87 413h28l-90 -425q-43 -203 182 -203q110 0 178 50t90 153l90 425h28l-18 -85q65 0 98.5 27.5t49.5 101.5h25q-13 -61 -37.5 -94t-59.5 -46t-81 -14l-64 -303q-25 -121 -98 -181t-207 -60z" />
    <glyph glyph-name="uni1EEC" unicode="&#x1eec;" horiz-adv-x="747" 
d="M412 688l16 75q43 2 65 10t31.5 22.5t13.5 34.5q6 29 -9.5 44.5t-65.5 15.5q-16 0 -36.5 -3.5t-34.5 -8.5l5 25q14 5 36 8.5t37 3.5q53 0 77 -22t16 -63q-9 -39 -33 -60t-78 -26l-12 -56h-28zM269 -10q-126 0 -176 61.5t-25 179.5l87 413h28l-90 -425q-43 -203 182 -203
q110 0 178 50t90 153l90 425h28l-18 -85q65 0 98.5 27.5t49.5 101.5h25q-13 -61 -37.5 -94t-59.5 -46t-81 -14l-64 -303q-25 -121 -98 -181t-207 -60z" />
    <glyph glyph-name="uni1EEE" unicode="&#x1eee;" horiz-adv-x="747" 
d="M487 718q-23 0 -41.5 9t-35.5 18t-36 9q-21 0 -41.5 -7t-40.5 -27l6 31q14 14 35.5 21t42.5 7q25 0 42 -9t33.5 -18t37.5 -9q22 0 40 7.5t36 26.5l-7 -31q-26 -28 -71 -28zM269 -10q-126 0 -176 61.5t-25 179.5l87 413h28l-90 -425q-43 -203 182 -203q110 0 178 50
t90 153l90 425h28l-18 -85q65 0 98.5 27.5t49.5 101.5h25q-13 -61 -37.5 -94t-59.5 -46t-81 -14l-64 -303q-25 -121 -98 -181t-207 -60z" />
    <glyph glyph-name="Uhungarumlaut" unicode="&#x170;" horiz-adv-x="657" 
d="M282 688l89 129h29l-96 -129h-22zM473 688l90 129h29l-97 -129h-22zM269 -10q-130 0 -178 61.5t-23 179.5l87 413h28l-90 -425q-22 -106 23.5 -154.5t158.5 -48.5q225 0 268 203l90 425h28l-87 -413q-25 -119 -95.5 -180t-209.5 -61z" />
    <glyph glyph-name="Umacron" unicode="&#x16a;" horiz-adv-x="657" 
d="M291 718l6 25h266l-6 -25h-266zM269 -10q-130 0 -178 61.5t-23 179.5l87 413h28l-90 -425q-22 -106 23.5 -154.5t158.5 -48.5q225 0 268 203l90 425h28l-87 -413q-25 -119 -95.5 -180t-209.5 -61z" />
    <glyph glyph-name="Uogonek" unicode="&#x172;" horiz-adv-x="657" 
d="M237 -220q-34 0 -54.5 19t-10.5 66q8 37 33 70t55 55q-124 2 -170.5 63.5t-21.5 177.5l87 413h28l-90 -425q-22 -106 23.5 -154.5t158.5 -48.5q225 0 268 203l90 425h28l-87 -413q-25 -115 -91 -175t-194 -65q-39 -28 -61 -61t-29 -65q-7 -31 1.5 -45.5t41.5 -14.5
q13 0 27 3t24 8l-5 -25q-12 -6 -26 -8.5t-25 -2.5z" />
    <glyph glyph-name="Uring" unicode="&#x16e;" horiz-adv-x="657" 
d="M418 688q-43 0 -63 27.5t-12 67.5q8 41 40 68.5t75 27.5t63.5 -27.5t12.5 -68.5q-8 -40 -40 -67.5t-76 -27.5zM423 713q31 0 55 20t31 50q6 31 -4.5 51t-51.5 20q-30 0 -54.5 -20t-30.5 -51q-7 -30 5 -50t50 -20zM269 -10q-130 0 -178 61.5t-23 179.5l87 413h28l-90 -425
q-22 -106 23.5 -154.5t158.5 -48.5q225 0 268 203l90 425h28l-87 -413q-25 -119 -95.5 -180t-209.5 -61z" />
    <glyph glyph-name="Utilde" unicode="&#x168;" horiz-adv-x="657" 
d="M490 718q-23 0 -41.5 9t-35.5 18t-36 9q-21 0 -41.5 -7t-40.5 -27l6 31q14 14 35.5 21t42.5 7q25 0 42 -9t33.5 -18t37.5 -9q22 0 40 7.5t36 26.5l-7 -31q-26 -28 -71 -28zM269 -10q-130 0 -178 61.5t-23 179.5l87 413h28l-90 -425q-22 -106 23.5 -154.5t158.5 -48.5
q225 0 268 203l90 425h28l-87 -413q-25 -119 -95.5 -180t-209.5 -61z" />
    <glyph glyph-name="V" unicode="V" horiz-adv-x="650" 
d="M247 0l-107 644h27l103 -628l369 628h31l-378 -644h-45z" />
    <glyph glyph-name="W" unicode="W" horiz-adv-x="840" 
d="M154 0l-14 644h29l13 -624l293 566l12 58h24l44 -624l277 624h28l-285 -644h-43l-38 570l-292 -570h-48z" />
    <glyph glyph-name="Wacute" unicode="&#x1e82;" horiz-adv-x="840" 
d="M511 688l95 149h30l-102 -149h-23zM154 0l-14 644h29l13 -624l293 566l12 58h24l44 -624l277 624h28l-285 -644h-43l-38 570l-292 -570h-48z" />
    <glyph glyph-name="Wcircumflex" unicode="&#x174;" horiz-adv-x="840" 
d="M408 688l120 122h30l69 -122h-27l-59 104l-103 -104h-30zM154 0l-14 644h29l13 -624l293 566l12 58h24l44 -624l277 624h28l-285 -644h-43l-38 570l-292 -570h-48z" />
    <glyph glyph-name="Wdieresis" unicode="&#x1e84;" horiz-adv-x="840" 
d="M427 718l7 35h35l-7 -35h-35zM584 718l7 35h35l-7 -35h-35zM154 0l-14 644h29l13 -624l293 566l12 58h24l44 -624l277 624h28l-285 -644h-43l-38 570l-292 -570h-48z" />
    <glyph glyph-name="Wgrave" unicode="&#x1e80;" horiz-adv-x="840" 
d="M499 688l-38 149h30l31 -149h-23zM154 0l-14 644h29l13 -624l293 566l12 58h24l44 -624l277 624h28l-285 -644h-43l-38 570l-292 -570h-48z" />
    <glyph glyph-name="X" unicode="X" horiz-adv-x="597" 
d="M4 0l288 317l-152 327h29l143 -311l275 311h29l-291 -327l155 -317h-29l-146 299l-272 -299h-29z" />
    <glyph glyph-name="Y" unicode="Y" horiz-adv-x="606" 
d="M233 0l51 242l-144 402h27l134 -376l294 376h31l-314 -402l-51 -242h-28z" />
    <glyph glyph-name="Yacute" unicode="&#xdd;" horiz-adv-x="606" 
d="M367 688l95 149h30l-102 -149h-23zM233 0l51 242l-144 402h27l134 -376l294 376h31l-314 -402l-51 -242h-28z" />
    <glyph glyph-name="Ycircumflex" unicode="&#x176;" horiz-adv-x="606" 
d="M284 688l120 122h30l69 -122h-27l-59 104l-103 -104h-30zM233 0l51 242l-144 402h27l134 -376l294 376h31l-314 -402l-51 -242h-28z" />
    <glyph glyph-name="Ydieresis" unicode="&#x178;" horiz-adv-x="606" 
d="M303 718l7 35h35l-7 -35h-35zM460 718l7 35h35l-7 -35h-35zM233 0l51 242l-144 402h27l134 -376l294 376h31l-314 -402l-51 -242h-28z" />
    <glyph glyph-name="uni1E8E" unicode="&#x1e8e;" horiz-adv-x="606" 
d="M382 718l7 35h35l-7 -35h-35zM233 0l51 242l-144 402h27l134 -376l294 376h31l-314 -402l-51 -242h-28z" />
    <glyph glyph-name="uni1EF4" unicode="&#x1ef4;" horiz-adv-x="606" 
d="M233 0l51 242l-144 402h27l134 -376l294 376h31l-314 -402l-51 -242h-28zM204 -119l8 37h37l-8 -37h-37z" />
    <glyph glyph-name="Ygrave" unicode="&#x1ef2;" horiz-adv-x="606" 
d="M397 688l-38 149h30l31 -149h-23zM233 0l51 242l-144 402h27l134 -376l294 376h31l-314 -402l-51 -242h-28z" />
    <glyph glyph-name="uni1EF6" unicode="&#x1ef6;" horiz-adv-x="606" 
d="M366 688l16 75q43 2 65 10t31.5 22.5t13.5 34.5q6 29 -9.5 44.5t-65.5 15.5q-16 0 -36.5 -3.5t-34.5 -8.5l5 25q14 5 36 8.5t37 3.5q53 0 77 -22t16 -63q-9 -39 -33 -60t-78 -26l-12 -56h-28zM233 0l51 242l-144 402h27l134 -376l294 376h31l-314 -402l-51 -242h-28z" />
    <glyph glyph-name="uni1EF8" unicode="&#x1ef8;" horiz-adv-x="606" 
d="M465 718q-23 0 -41.5 9t-35.5 18t-36 9q-21 0 -41.5 -7t-40.5 -27l6 31q14 14 35.5 21t42.5 7q25 0 42 -9t33.5 -18t37.5 -9q22 0 40 7.5t36 26.5l-7 -31q-26 -28 -71 -28zM233 0l51 242l-144 402h27l134 -376l294 376h31l-314 -402l-51 -242h-28z" />
    <glyph glyph-name="Z" unicode="Z" horiz-adv-x="565" 
d="M4 0l4 22l539 597h-395l5 25h427l-5 -26l-535 -593h414l-5 -25h-449z" />
    <glyph glyph-name="Zacute" unicode="&#x179;" horiz-adv-x="565" 
d="M390 688l95 149h30l-102 -149h-23zM4 0l4 22l539 597h-395l5 25h427l-5 -26l-535 -593h414l-5 -25h-449z" />
    <glyph glyph-name="Zcaron" unicode="&#x17d;" horiz-adv-x="565" 
d="M388 688l-69 122h27l59 -104l103 104h31l-121 -122h-30zM4 0l4 22l539 597h-395l5 25h427l-5 -26l-535 -593h414l-5 -25h-449z" />
    <glyph glyph-name="Zdotaccent" unicode="&#x17b;" horiz-adv-x="565" 
d="M384 718l7 35h35l-7 -35h-35zM4 0l4 22l539 597h-395l5 25h427l-5 -26l-535 -593h414l-5 -25h-449z" />
    <glyph glyph-name="uni1E92" unicode="&#x1e92;" horiz-adv-x="565" 
d="M4 0l4 22l539 597h-395l5 25h427l-5 -26l-535 -593h414l-5 -25h-449zM202 -139l8 37h37l-8 -37h-37z" />
    <glyph glyph-name="a" unicode="a" horiz-adv-x="554" 
d="M212 -10q-59 0 -102.5 21t-61 71t1.5 136q28 130 102.5 198t172.5 68q53 0 88 -12t68 -42l9 44h28l-100 -474h-23l8 57q-43 -34 -89 -50.5t-102 -16.5zM223 15q101 0 185 71l67 315q-24 27 -58 42.5t-88 15.5q-94 0 -160.5 -62.5t-91.5 -178.5q-23 -109 12.5 -156
t133.5 -47z" />
    <glyph glyph-name="aacute" unicode="&#xe1;" horiz-adv-x="554" 
d="M316 522l95 149h30l-102 -149h-23zM212 -10q-59 0 -102.5 21t-61 71t1.5 136q28 130 102.5 198t172.5 68q53 0 88 -12t68 -42l9 44h28l-100 -474h-23l8 57q-43 -34 -89 -50.5t-102 -16.5zM223 15q101 0 185 71l67 315q-24 27 -58 42.5t-88 15.5q-94 0 -160.5 -62.5
t-91.5 -178.5q-23 -109 12.5 -156t133.5 -47z" />
    <glyph glyph-name="abreve" unicode="&#x103;" horiz-adv-x="554" 
d="M342 522q-40 0 -62 27.5t-13 67.5h23q-7 -30 9 -50t46 -20q31 0 55 20t31 50h27q-9 -40 -42 -67.5t-74 -27.5zM212 -10q-59 0 -102.5 21t-61 71t1.5 136q28 130 102.5 198t172.5 68q53 0 88 -12t68 -42l9 44h28l-100 -474h-23l8 57q-43 -34 -89 -50.5t-102 -16.5zM223 15
q101 0 185 71l67 315q-24 27 -58 42.5t-88 15.5q-94 0 -160.5 -62.5t-91.5 -178.5q-23 -109 12.5 -156t133.5 -47z" />
    <glyph glyph-name="uni1EAF" unicode="&#x1eaf;" horiz-adv-x="554" 
d="M336 614l81 109h29l-88 -109h-22zM341 522q-33 0 -60 12t-40 39t-4 73h24q-10 -52 12 -75.5t72 -23.5q46 0 81 23.5t45 75.5h26q-14 -69 -58.5 -96.5t-97.5 -27.5zM212 -10q-59 0 -102.5 21t-61 71t1.5 136q28 130 102.5 198t172.5 68q53 0 88 -12t68 -42l9 44h28
l-100 -474h-23l8 57q-43 -34 -89 -50.5t-102 -16.5zM223 15q101 0 185 71l67 315q-24 27 -58 42.5t-88 15.5q-94 0 -160.5 -62.5t-91.5 -178.5q-23 -109 12.5 -156t133.5 -47z" />
    <glyph glyph-name="uni1EB7" unicode="&#x1eb7;" horiz-adv-x="554" 
d="M334 522q-40 0 -62 27.5t-13 67.5h23q-7 -30 9 -50t46 -20q31 0 55 20t31 50h27q-9 -40 -42 -67.5t-74 -27.5zM212 -10q-59 0 -102.5 21t-61 71t1.5 136q28 130 102.5 198t172.5 68q53 0 88 -12t68 -42l9 44h28l-100 -474h-23l8 57q-43 -34 -89 -50.5t-102 -16.5zM223 15
q101 0 185 71l67 315q-24 27 -58 42.5t-88 15.5q-94 0 -160.5 -62.5t-91.5 -178.5q-23 -109 12.5 -156t133.5 -47zM178 -139l8 37h37l-8 -37h-37z" />
    <glyph glyph-name="uni1EB1" unicode="&#x1eb1;" horiz-adv-x="554" 
d="M358 614l-40 109h29l33 -109h-22zM337 522q-33 0 -60 12t-40 39t-4 73h24q-10 -52 12 -75.5t72 -23.5q46 0 81 23.5t45 75.5h26q-14 -69 -58.5 -96.5t-97.5 -27.5zM212 -10q-59 0 -102.5 21t-61 71t1.5 136q28 130 102.5 198t172.5 68q53 0 88 -12t68 -42l9 44h28
l-100 -474h-23l8 57q-43 -34 -89 -50.5t-102 -16.5zM223 15q101 0 185 71l67 315q-24 27 -58 42.5t-88 15.5q-94 0 -160.5 -62.5t-91.5 -178.5q-23 -109 12.5 -156t133.5 -47z" />
    <glyph glyph-name="uni1EB3" unicode="&#x1eb3;" horiz-adv-x="554" 
d="M326 593l12 56q55 3 72.5 15t22.5 35q5 22 -5.5 33.5t-40.5 11.5q-18 0 -33 -3.5t-30 -9.5l6 25q13 5 28.5 8.5t33.5 3.5q35 0 54 -17.5t12 -51.5q-7 -31 -29.5 -47.5t-66.5 -21.5l-8 -37h-28zM343 522q-33 0 -60 12t-40 39t-4 73h24q-10 -52 12 -75.5t72 -23.5
q46 0 81 23.5t45 75.5h26q-14 -69 -58.5 -96.5t-97.5 -27.5zM212 -10q-59 0 -102.5 21t-61 71t1.5 136q28 130 102.5 198t172.5 68q53 0 88 -12t68 -42l9 44h28l-100 -474h-23l8 57q-43 -34 -89 -50.5t-102 -16.5zM223 15q101 0 185 71l67 315q-24 27 -58 42.5t-88 15.5
q-94 0 -160.5 -62.5t-91.5 -178.5q-23 -109 12.5 -156t133.5 -47z" />
    <glyph glyph-name="uni1EB5" unicode="&#x1eb5;" horiz-adv-x="554" 
d="M252 682l6 31q31 26 76 26q25 0 39.5 -8t28.5 -16t35 -8t39.5 6.5t40.5 25.5l-7 -31q-29 -26 -75 -26q-23 0 -39 8t-30.5 16t-33.5 8q-21 0 -40 -6t-40 -26zM346 522q-33 0 -60 12t-40 39t-4 73h24q-10 -52 12 -75.5t72 -23.5q46 0 81 23.5t45 75.5h26
q-14 -69 -58.5 -96.5t-97.5 -27.5zM212 -10q-59 0 -102.5 21t-61 71t1.5 136q28 130 102.5 198t172.5 68q53 0 88 -12t68 -42l9 44h28l-100 -474h-23l8 57q-43 -34 -89 -50.5t-102 -16.5zM223 15q101 0 185 71l67 315q-24 27 -58 42.5t-88 15.5q-94 0 -160.5 -62.5
t-91.5 -178.5q-23 -109 12.5 -156t133.5 -47z" />
    <glyph glyph-name="uni01CE" unicode="&#x1ce;" horiz-adv-x="554" 
d="M313 522l-69 122h27l59 -104l103 104h31l-121 -122h-30zM212 -10q-59 0 -102.5 21t-61 71t1.5 136q28 130 102.5 198t172.5 68q53 0 88 -12t68 -42l9 44h28l-100 -474h-23l8 57q-43 -34 -89 -50.5t-102 -16.5zM223 15q101 0 185 71l67 315q-24 27 -58 42.5t-88 15.5
q-94 0 -160.5 -62.5t-91.5 -178.5q-23 -109 12.5 -156t133.5 -47z" />
    <glyph glyph-name="acircumflex" unicode="&#xe2;" horiz-adv-x="554" 
d="M220 522l120 122h30l69 -122h-27l-59 104l-103 -104h-30zM212 -10q-59 0 -102.5 21t-61 71t1.5 136q28 130 102.5 198t172.5 68q53 0 88 -12t68 -42l9 44h28l-100 -474h-23l8 57q-43 -34 -89 -50.5t-102 -16.5zM223 15q101 0 185 71l67 315q-24 27 -58 42.5t-88 15.5
q-94 0 -160.5 -62.5t-91.5 -178.5q-23 -109 12.5 -156t133.5 -47z" />
    <glyph glyph-name="uni1EA5" unicode="&#x1ea5;" horiz-adv-x="554" 
d="M418 624l81 109h28l-87 -109h-22zM228 522l116 102h30l74 -102h-27l-63 86l-99 -86h-31zM212 -10q-59 0 -102.5 21t-61 71t1.5 136q28 130 102.5 198t172.5 68q53 0 88 -12t68 -42l9 44h28l-100 -474h-23l8 57q-43 -34 -89 -50.5t-102 -16.5zM223 15q101 0 185 71l67 315
q-24 27 -58 42.5t-88 15.5q-94 0 -160.5 -62.5t-91.5 -178.5q-23 -109 12.5 -156t133.5 -47z" />
    <glyph glyph-name="uni1EAD" unicode="&#x1ead;" horiz-adv-x="554" 
d="M223 522l120 122h30l69 -122h-27l-59 104l-103 -104h-30zM212 -10q-59 0 -102.5 21t-61 71t1.5 136q28 130 102.5 198t172.5 68q53 0 88 -12t68 -42l9 44h28l-100 -474h-23l8 57q-43 -34 -89 -50.5t-102 -16.5zM223 15q101 0 185 71l67 315q-24 27 -58 42.5t-88 15.5
q-94 0 -160.5 -62.5t-91.5 -178.5q-23 -109 12.5 -156t133.5 -47zM176 -139l8 37h37l-8 -37h-37z" />
    <glyph glyph-name="uni1EA7" unicode="&#x1ea7;" horiz-adv-x="554" 
d="M277 624l-40 109h29l33 -109h-22zM227 522l116 102h30l74 -102h-27l-63 86l-99 -86h-31zM212 -10q-59 0 -102.5 21t-61 71t1.5 136q28 130 102.5 198t172.5 68q53 0 88 -12t68 -42l9 44h28l-100 -474h-23l8 57q-43 -34 -89 -50.5t-102 -16.5zM223 15q101 0 185 71l67 315
q-24 27 -58 42.5t-88 15.5q-94 0 -160.5 -62.5t-91.5 -178.5q-23 -109 12.5 -156t133.5 -47z" />
    <glyph glyph-name="uni1EA9" unicode="&#x1ea9;" horiz-adv-x="554" 
d="M415 603l12 56q54 3 72 15t22 35q11 45 -46 45q-17 0 -32 -3.5t-30 -9.5l6 25q13 5 28.5 8.5t32.5 3.5q38 0 56 -17.5t10 -51.5q-6 -31 -28.5 -47.5t-66.5 -21.5l-8 -37h-28zM222 522l116 102h30l74 -102h-27l-63 86l-99 -86h-31zM212 -10q-59 0 -102.5 21t-61 71
t1.5 136q28 130 102.5 198t172.5 68q53 0 88 -12t68 -42l9 44h28l-100 -474h-23l8 57q-43 -34 -89 -50.5t-102 -16.5zM223 15q101 0 185 71l67 315q-24 27 -58 42.5t-88 15.5q-94 0 -160.5 -62.5t-91.5 -178.5q-23 -109 12.5 -156t133.5 -47z" />
    <glyph glyph-name="uni1EAB" unicode="&#x1eab;" horiz-adv-x="554" 
d="M236 637l7 31q29 26 75 26q25 0 39.5 -8t28.5 -16t35 -8t39.5 6.5t39.5 25.5l-6 -31q-31 -26 -75 -26q-23 0 -39 8t-30.5 16t-33.5 8q-21 0 -39.5 -6t-40.5 -26zM226 522l116 102h30l74 -102h-27l-63 86l-99 -86h-31zM212 -10q-59 0 -102.5 21t-61 71t1.5 136
q28 130 102.5 198t172.5 68q53 0 88 -12t68 -42l9 44h28l-100 -474h-23l8 57q-43 -34 -89 -50.5t-102 -16.5zM223 15q101 0 185 71l67 315q-24 27 -58 42.5t-88 15.5q-94 0 -160.5 -62.5t-91.5 -178.5q-23 -109 12.5 -156t133.5 -47z" />
    <glyph glyph-name="adieresis" unicode="&#xe4;" horiz-adv-x="554" 
d="M244 552l7 35h35l-7 -35h-35zM401 552l7 35h35l-7 -35h-35zM212 -10q-59 0 -102.5 21t-61 71t1.5 136q28 130 102.5 198t172.5 68q53 0 88 -12t68 -42l9 44h28l-100 -474h-23l8 57q-43 -34 -89 -50.5t-102 -16.5zM223 15q101 0 185 71l67 315q-24 27 -58 42.5t-88 15.5
q-94 0 -160.5 -62.5t-91.5 -178.5q-23 -109 12.5 -156t133.5 -47z" />
    <glyph glyph-name="uni1EA1" unicode="&#x1ea1;" horiz-adv-x="554" 
d="M212 -10q-59 0 -102.5 21t-61 71t1.5 136q28 130 102.5 198t172.5 68q53 0 88 -12t68 -42l9 44h28l-100 -474h-23l8 57q-43 -34 -89 -50.5t-102 -16.5zM223 15q101 0 185 71l67 315q-24 27 -58 42.5t-88 15.5q-94 0 -160.5 -62.5t-91.5 -178.5q-23 -109 12.5 -156
t133.5 -47zM176 -139l8 37h37l-8 -37h-37z" />
    <glyph glyph-name="agrave" unicode="&#xe0;" horiz-adv-x="554" 
d="M332 522l-38 149h30l31 -149h-23zM212 -10q-59 0 -102.5 21t-61 71t1.5 136q28 130 102.5 198t172.5 68q53 0 88 -12t68 -42l9 44h28l-100 -474h-23l8 57q-43 -34 -89 -50.5t-102 -16.5zM223 15q101 0 185 71l67 315q-24 27 -58 42.5t-88 15.5q-94 0 -160.5 -62.5
t-91.5 -178.5q-23 -109 12.5 -156t133.5 -47z" />
    <glyph glyph-name="uni1EA3" unicode="&#x1ea3;" horiz-adv-x="554" 
d="M305 512l16 75q43 2 65 10t31.5 22.5t13.5 34.5q6 29 -9.5 44.5t-65.5 15.5q-16 0 -36.5 -3.5t-34.5 -8.5l5 25q14 5 36 8.5t37 3.5q53 0 77 -22t16 -63q-9 -39 -33 -60t-78 -26l-12 -56h-28zM212 -10q-59 0 -102.5 21t-61 71t1.5 136q28 130 102.5 198t172.5 68
q53 0 88 -12t68 -42l9 44h28l-100 -474h-23l8 57q-43 -34 -89 -50.5t-102 -16.5zM223 15q101 0 185 71l67 315q-24 27 -58 42.5t-88 15.5q-94 0 -160.5 -62.5t-91.5 -178.5q-23 -109 12.5 -156t133.5 -47z" />
    <glyph glyph-name="uni0251" unicode="&#x251;" horiz-adv-x="554" 
d="M212 -10q-59 0 -102.5 21t-61 71t1.5 136q28 130 102.5 198t172.5 68q53 0 88 -12t68 -42l9 44h28l-100 -474h-23l8 57q-43 -34 -89 -50.5t-102 -16.5zM223 15q101 0 185 71l67 315q-24 27 -58 42.5t-88 15.5q-94 0 -160.5 -62.5t-91.5 -178.5q-23 -109 12.5 -156
t133.5 -47z" />
    <glyph glyph-name="amacron" unicode="&#x101;" horiz-adv-x="554" 
d="M204 552l6 25h266l-6 -25h-266zM212 -10q-59 0 -102.5 21t-61 71t1.5 136q28 130 102.5 198t172.5 68q53 0 88 -12t68 -42l9 44h28l-100 -474h-23l8 57q-43 -34 -89 -50.5t-102 -16.5zM223 15q101 0 185 71l67 315q-24 27 -58 42.5t-88 15.5q-94 0 -160.5 -62.5
t-91.5 -178.5q-23 -109 12.5 -156t133.5 -47z" />
    <glyph glyph-name="aogonek" unicode="&#x105;" horiz-adv-x="553" 
d="M351 -220q-34 0 -54.5 19t-10.5 66q9 41 40 78t69 57l8 57q-43 -34 -89 -50.5t-102 -16.5q-59 0 -102.5 21t-61 71t1.5 136q28 130 102.5 198t172.5 68q53 0 88 -12t68 -42l9 44h28l-100 -474q-46 -31 -71.5 -65.5t-33.5 -69.5q-7 -31 1.5 -45.5t41.5 -14.5q13 0 27 3
t24 8l-5 -25q-12 -6 -26 -8.5t-25 -2.5zM223 15q101 0 185 71l67 315q-24 27 -58 42.5t-88 15.5q-94 0 -160.5 -62.5t-91.5 -178.5q-23 -109 12.5 -156t133.5 -47z" />
    <glyph glyph-name="aring" unicode="&#xe5;" horiz-adv-x="554" 
d="M339 522q-43 0 -63 27.5t-12 67.5q8 41 40 68.5t75 27.5t63.5 -27.5t12.5 -68.5q-8 -40 -40 -67.5t-76 -27.5zM344 547q31 0 55 20t31 50q6 31 -4.5 51t-51.5 20q-30 0 -54.5 -20t-30.5 -51q-7 -30 5 -50t50 -20zM212 -10q-59 0 -102.5 21t-61 71t1.5 136
q28 130 102.5 198t172.5 68q53 0 88 -12t68 -42l9 44h28l-100 -474h-23l8 57q-43 -34 -89 -50.5t-102 -16.5zM223 15q101 0 185 71l67 315q-24 27 -58 42.5t-88 15.5q-94 0 -160.5 -62.5t-91.5 -178.5q-23 -109 12.5 -156t133.5 -47z" />
    <glyph glyph-name="aringacute" unicode="&#x1fb;" horiz-adv-x="554" 
d="M398 780l95 119h30l-102 -119h-23zM334 522q-43 0 -63 27.5t-12 67.5q8 41 40 68.5t75 27.5t63.5 -27.5t12.5 -68.5q-8 -40 -40 -67.5t-76 -27.5zM339 547q31 0 55 20t31 50q6 31 -4.5 51t-51.5 20q-30 0 -54.5 -20t-30.5 -51q-7 -30 5 -50t50 -20zM212 -10
q-59 0 -102.5 21t-61 71t1.5 136q28 130 102.5 198t172.5 68q53 0 88 -12t68 -42l9 44h28l-100 -474h-23l8 57q-43 -34 -89 -50.5t-102 -16.5zM223 15q101 0 185 71l67 315q-24 27 -58 42.5t-88 15.5q-94 0 -160.5 -62.5t-91.5 -178.5q-23 -109 12.5 -156t133.5 -47z" />
    <glyph glyph-name="atilde" unicode="&#xe3;" horiz-adv-x="554" 
d="M405 552q-23 0 -41.5 9t-35.5 18t-36 9q-21 0 -41.5 -7t-40.5 -27l6 31q14 14 35.5 21t42.5 7q25 0 42 -9t33.5 -18t37.5 -9q22 0 40 7.5t36 26.5l-7 -31q-26 -28 -71 -28zM212 -10q-59 0 -102.5 21t-61 71t1.5 136q28 130 102.5 198t172.5 68q53 0 88 -12t68 -42l9 44
h28l-100 -474h-23l8 57q-43 -34 -89 -50.5t-102 -16.5zM223 15q101 0 185 71l67 315q-24 27 -58 42.5t-88 15.5q-94 0 -160.5 -62.5t-91.5 -178.5q-23 -109 12.5 -156t133.5 -47z" />
    <glyph glyph-name="ae" unicode="&#xe6;" horiz-adv-x="877" 
d="M165 -10q-45 0 -79.5 13t-50.5 41.5t-6 75.5q13 61 58 98.5t141 37.5h189l13 61q11 51 6.5 82.5t-35 45.5t-99.5 14q-40 0 -79 -6.5t-74 -18.5l5 26q33 12 74 18t85 6q77 0 115 -25.5t36 -85.5q34 53 86 82t127 29q67 0 102.5 -25t45.5 -67t-1 -92l-17 -82h-370
q-15 -72 -5 -117t53 -65.5t124 -20.5q60 0 128 25l-6 -26q-66 -24 -133 -24q-91 0 -137 28t-56 90q-37 -61 -98 -89.5t-142 -28.5zM442 244h342l11 52q11 50 4.5 86.5t-36 56.5t-91.5 20q-103 0 -155.5 -57.5t-74.5 -157.5zM178 15q50 0 96 16.5t79 48t42 74.5l16 76h-187
q-85 0 -121 -28.5t-47 -81.5q-12 -56 22 -80.5t100 -24.5z" />
    <glyph glyph-name="aeacute" unicode="&#x1fd;" horiz-adv-x="877" 
d="M498 522l95 149h30l-102 -149h-23zM165 -10q-45 0 -79.5 13t-50.5 41.5t-6 75.5q13 61 58 98.5t141 37.5h189l13 61q11 51 6.5 82.5t-35 45.5t-99.5 14q-40 0 -79 -6.5t-74 -18.5l5 26q33 12 74 18t85 6q77 0 115 -25.5t36 -85.5q34 53 86 82t127 29q67 0 102.5 -25
t45.5 -67t-1 -92l-17 -82h-370q-15 -72 -5 -117t53 -65.5t124 -20.5q60 0 128 25l-6 -26q-66 -24 -133 -24q-91 0 -137 28t-56 90q-37 -61 -98 -89.5t-142 -28.5zM442 244h342l11 52q11 50 4.5 86.5t-36 56.5t-91.5 20q-103 0 -155.5 -57.5t-74.5 -157.5zM178 15
q50 0 96 16.5t79 48t42 74.5l16 76h-187q-85 0 -121 -28.5t-47 -81.5q-12 -56 22 -80.5t100 -24.5z" />
    <glyph glyph-name="b" unicode="b" horiz-adv-x="554" 
d="M223 -10q-107 0 -161 67l-16 -57h-23l143 674h28l-52 -244q45 29 90.5 41.5t97.5 12.5q98 0 141.5 -56.5t16.5 -186.5q-28 -130 -95 -190.5t-170 -60.5zM224 15q102 0 158 58.5t79 167.5q24 116 -8.5 167t-136.5 51q-54 0 -98.5 -16t-81.5 -42l-67 -315q27 -37 64 -54
t91 -17z" />
    <glyph glyph-name="c" unicode="c" horiz-adv-x="436" 
d="M226 -10q-120 0 -159 66t-14 181q26 125 102.5 186t185.5 61q44 0 68.5 -6t46.5 -18l-5 -26q-26 13 -52 19t-60 6q-101 0 -168 -54.5t-91 -167.5q-24 -112 9.5 -167t149.5 -55q32 0 65.5 7t62.5 18l-6 -26q-28 -11 -62 -17.5t-73 -6.5z" />
    <glyph glyph-name="cacute" unicode="&#x107;" horiz-adv-x="436" 
d="M311 522l95 149h30l-102 -149h-23zM226 -10q-120 0 -159 66t-14 181q26 125 102.5 186t185.5 61q44 0 68.5 -6t46.5 -18l-5 -26q-26 13 -52 19t-60 6q-101 0 -168 -54.5t-91 -167.5q-24 -112 9.5 -167t149.5 -55q32 0 65.5 7t62.5 18l-6 -26q-28 -11 -62 -17.5t-73 -6.5z
" />
    <glyph glyph-name="ccaron" unicode="&#x10d;" horiz-adv-x="436" 
d="M315 522l-69 122h27l59 -104l103 104h31l-121 -122h-30zM226 -10q-120 0 -159 66t-14 181q26 125 102.5 186t185.5 61q44 0 68.5 -6t46.5 -18l-5 -26q-26 13 -52 19t-60 6q-101 0 -168 -54.5t-91 -167.5q-24 -112 9.5 -167t149.5 -55q32 0 65.5 7t62.5 18l-6 -26
q-28 -11 -62 -17.5t-73 -6.5z" />
    <glyph glyph-name="ccedilla" unicode="&#xe7;" horiz-adv-x="436" 
d="M135 -240q-16 0 -33 2.5t-28 5.5l6 25q26 -8 62 -8q53 0 83 17t39 57q8 36 -12 50.5t-73 14.5h-28l38 68q-97 10 -128 74.5t-8 170.5q26 125 102.5 186t185.5 61q44 0 68.5 -6t46.5 -18l-5 -26q-26 13 -52 19t-60 6q-101 0 -168 -54.5t-91 -167.5q-24 -112 9.5 -167
t149.5 -55q32 0 65.5 7t62.5 18l-6 -26q-28 -11 -63 -17.5t-82 -6.5l-24 -43q53 0 80.5 -21t18.5 -65q-10 -49 -47 -75t-109 -26z" />
    <glyph glyph-name="ccircumflex" unicode="&#x109;" horiz-adv-x="436" 
d="M226 522l120 122h30l69 -122h-27l-59 104l-103 -104h-30zM226 -10q-120 0 -159 66t-14 181q26 125 102.5 186t185.5 61q44 0 68.5 -6t46.5 -18l-5 -26q-26 13 -52 19t-60 6q-101 0 -168 -54.5t-91 -167.5q-24 -112 9.5 -167t149.5 -55q32 0 65.5 7t62.5 18l-6 -26
q-28 -11 -62 -17.5t-73 -6.5z" />
    <glyph glyph-name="cdotaccent" unicode="&#x10b;" horiz-adv-x="436" 
d="M326 552l7 35h35l-7 -35h-35zM226 -10q-120 0 -159 66t-14 181q26 125 102.5 186t185.5 61q44 0 68.5 -6t46.5 -18l-5 -26q-26 13 -52 19t-60 6q-101 0 -168 -54.5t-91 -167.5q-24 -112 9.5 -167t149.5 -55q32 0 65.5 7t62.5 18l-6 -26q-28 -11 -62 -17.5t-73 -6.5z" />
    <glyph glyph-name="d" unicode="d" horiz-adv-x="554" 
d="M211 -10q-56 0 -99 24t-60.5 77.5t0.5 139.5q27 130 100.5 191.5t171.5 61.5q53 0 88 -12t68 -42l52 244h28l-143 -674h-23l8 57q-43 -34 -89 -50.5t-102 -16.5zM222 15q101 0 185 71l67 315q-26 27 -59 42.5t-87 15.5q-97 0 -161 -56t-88 -172q-46 -216 143 -216z" />
    <glyph glyph-name="eth" unicode="&#xf0;" horiz-adv-x="568" 
d="M216 -10q-105 0 -148.5 55.5t-23.5 148.5q21 98 87 150t172 52q42 0 88.5 -15.5t86.5 -50.5l14 66q11 52 11.5 96.5t-16.5 75.5l-150 -60l6 25l133 53q-16 20 -43.5 31.5t-68.5 11.5q-43 0 -78.5 -5t-64.5 -14l6 26q27 8 63.5 13t79.5 5q48 0 81 -14.5t52 -42.5l109 44
l-6 -25l-93 -37q17 -34 17.5 -81t-11.5 -105l-35 -165q-27 -127 -94.5 -182.5t-173.5 -55.5zM223 15q188 0 229 193l20 96q-32 29 -77 48t-95 19q-106 0 -159 -48t-70 -129t20 -130t132 -49z" />
    <glyph glyph-name="dcaron" unicode="&#x10f;" horiz-adv-x="607" 
d="M214 -10q-73 0 -121 38t-48 124q0 95 36.5 170t100.5 118.5t145 43.5q52 0 87.5 -12t67.5 -42l52 244h28l-143 -674h-23l8 57q-43 -34 -88.5 -50.5t-101.5 -16.5zM604 521l56 153h33l-67 -153h-22zM224 15q102 0 185 71l67 315q-25 27 -58.5 42.5t-86.5 15.5
q-76 0 -134.5 -38.5t-91.5 -106.5t-33 -157q0 -71 39.5 -106.5t112.5 -35.5z" />
    <glyph glyph-name="dcroat" unicode="&#x111;" horiz-adv-x="573" 
d="M211 -10q-56 0 -99 24t-60.5 77.5t0.5 139.5q27 130 100.5 191.5t171.5 61.5q53 0 88 -12t68 -42l29 138h-167l6 25h167l17 81h28l-17 -81h69l-6 -25h-69l-120 -568h-23l8 57q-43 -34 -89 -50.5t-102 -16.5zM222 15q101 0 185 71l67 315q-26 27 -59 42.5t-87 15.5
q-97 0 -161 -56t-88 -172q-46 -216 143 -216z" />
    <glyph glyph-name="uni1E0D" unicode="&#x1e0d;" horiz-adv-x="554" 
d="M211 -10q-56 0 -99 24t-60.5 77.5t0.5 139.5q27 130 100.5 191.5t171.5 61.5q53 0 88 -12t68 -42l52 244h28l-143 -674h-23l8 57q-43 -34 -89 -50.5t-102 -16.5zM222 15q101 0 185 71l67 315q-26 27 -59 42.5t-87 15.5q-97 0 -161 -56t-88 -172q-46 -216 143 -216z
M202 -139l8 37h37l-8 -37h-37z" />
    <glyph glyph-name="uni1E0F" unicode="&#x1e0f;" horiz-adv-x="554" 
d="M211 -10q-56 0 -99 24t-60.5 77.5t0.5 139.5q27 130 100.5 191.5t171.5 61.5q53 0 88 -12t68 -42l52 244h28l-143 -674h-23l8 57q-43 -34 -89 -50.5t-102 -16.5zM222 15q101 0 185 71l67 315q-26 27 -59 42.5t-87 15.5q-97 0 -161 -56t-88 -172q-46 -216 143 -216z
M76 -101l5 25h266l-5 -25h-266z" />
    <glyph glyph-name="e" unicode="e" horiz-adv-x="518" 
d="M238 -10q-130 0 -171 60.5t-13 190.5q24 114 84.5 178.5t178.5 64.5q67 0 102.5 -25t45.5 -67t-1 -92l-17 -82h-370q-13 -69 -4 -114t50.5 -67t125.5 -22q60 0 128 25l-6 -26q-66 -24 -133 -24zM82 244h342l11 52q11 50 4 86.5t-37 56.5t-90 20q-100 0 -154 -57.5
t-76 -157.5z" />
    <glyph glyph-name="eacute" unicode="&#xe9;" horiz-adv-x="518" 
d="M306 522l95 149h30l-102 -149h-23zM238 -10q-130 0 -171 60.5t-13 190.5q24 114 84.5 178.5t178.5 64.5q67 0 102.5 -25t45.5 -67t-1 -92l-17 -82h-370q-13 -69 -4 -114t50.5 -67t125.5 -22q60 0 128 25l-6 -26q-66 -24 -133 -24zM82 244h342l11 52q11 50 4 86.5
t-37 56.5t-90 20q-100 0 -154 -57.5t-76 -157.5z" />
    <glyph glyph-name="ebreve" unicode="&#x115;" horiz-adv-x="518" 
d="M329 522q-40 0 -62 27.5t-13 67.5h23q-7 -30 9 -50t46 -20q31 0 55 20t31 50h27q-9 -40 -42 -67.5t-74 -27.5zM238 -10q-130 0 -171 60.5t-13 190.5q24 114 84.5 178.5t178.5 64.5q67 0 102.5 -25t45.5 -67t-1 -92l-17 -82h-370q-13 -69 -4 -114t50.5 -67t125.5 -22
q60 0 128 25l-6 -26q-66 -24 -133 -24zM82 244h342l11 52q11 50 4 86.5t-37 56.5t-90 20q-100 0 -154 -57.5t-76 -157.5z" />
    <glyph glyph-name="ecaron" unicode="&#x11b;" horiz-adv-x="518" 
d="M320 522l-69 122h27l59 -104l103 104h31l-121 -122h-30zM238 -10q-130 0 -171 60.5t-13 190.5q24 114 84.5 178.5t178.5 64.5q67 0 102.5 -25t45.5 -67t-1 -92l-17 -82h-370q-13 -69 -4 -114t50.5 -67t125.5 -22q60 0 128 25l-6 -26q-66 -24 -133 -24zM82 244h342l11 52
q11 50 4 86.5t-37 56.5t-90 20q-100 0 -154 -57.5t-76 -157.5z" />
    <glyph glyph-name="ecircumflex" unicode="&#xea;" horiz-adv-x="518" 
d="M216 522l120 122h30l69 -122h-27l-59 104l-103 -104h-30zM238 -10q-130 0 -171 60.5t-13 190.5q24 114 84.5 178.5t178.5 64.5q67 0 102.5 -25t45.5 -67t-1 -92l-17 -82h-370q-13 -69 -4 -114t50.5 -67t125.5 -22q60 0 128 25l-6 -26q-66 -24 -133 -24zM82 244h342l11 52
q11 50 4 86.5t-37 56.5t-90 20q-100 0 -154 -57.5t-76 -157.5z" />
    <glyph glyph-name="uni1EBF" unicode="&#x1ebf;" horiz-adv-x="518" 
d="M407 624l81 109h28l-87 -109h-22zM217 522l116 102h30l74 -102h-27l-63 86l-99 -86h-31zM238 -10q-130 0 -171 60.5t-13 190.5q24 114 84.5 178.5t178.5 64.5q67 0 102.5 -25t45.5 -67t-1 -92l-17 -82h-370q-13 -69 -4 -114t50.5 -67t125.5 -22q60 0 128 25l-6 -26
q-66 -24 -133 -24zM82 244h342l11 52q11 50 4 86.5t-37 56.5t-90 20q-100 0 -154 -57.5t-76 -157.5z" />
    <glyph glyph-name="uni1EC7" unicode="&#x1ec7;" horiz-adv-x="518" 
d="M224 522l120 122h30l69 -122h-27l-59 104l-103 -104h-30zM238 -10q-130 0 -171 60.5t-13 190.5q24 114 84.5 178.5t178.5 64.5q67 0 102.5 -25t45.5 -67t-1 -92l-17 -82h-370q-13 -69 -4 -114t50.5 -67t125.5 -22q60 0 128 25l-6 -26q-66 -24 -133 -24zM82 244h342l11 52
q11 50 4 86.5t-37 56.5t-90 20q-100 0 -154 -57.5t-76 -157.5zM176 -139l8 37h37l-8 -37h-37z" />
    <glyph glyph-name="uni1EC1" unicode="&#x1ec1;" horiz-adv-x="518" 
d="M281 644l-40 109h29l33 -109h-22zM231 542l116 102h30l74 -102h-27l-63 86l-99 -86h-31zM238 -10q-130 0 -171 60.5t-13 190.5q24 114 84.5 178.5t178.5 64.5q67 0 102.5 -25t45.5 -67t-1 -92l-17 -82h-370q-13 -69 -4 -114t50.5 -67t125.5 -22q60 0 128 25l-6 -26
q-66 -24 -133 -24zM82 244h342l11 52q11 50 4 86.5t-37 56.5t-90 20q-100 0 -154 -57.5t-76 -157.5z" />
    <glyph glyph-name="uni1EC3" unicode="&#x1ec3;" horiz-adv-x="518" 
d="M410 603l12 56q54 3 72 15t22 35q11 45 -46 45q-17 0 -32 -3.5t-30 -9.5l6 25q13 5 28.5 8.5t32.5 3.5q38 0 56 -17.5t10 -51.5q-6 -31 -28.5 -47.5t-66.5 -21.5l-8 -37h-28zM217 522l116 102h30l74 -102h-27l-63 86l-99 -86h-31zM238 -10q-130 0 -171 60.5t-13 190.5
q24 114 84.5 178.5t178.5 64.5q67 0 102.5 -25t45.5 -67t-1 -92l-17 -82h-370q-13 -69 -4 -114t50.5 -67t125.5 -22q60 0 128 25l-6 -26q-66 -24 -133 -24zM82 244h342l11 52q11 50 4 86.5t-37 56.5t-90 20q-100 0 -154 -57.5t-76 -157.5z" />
    <glyph glyph-name="uni1EC5" unicode="&#x1ec5;" horiz-adv-x="518" 
d="M233 637l7 31q29 26 75 26q25 0 39.5 -8t28.5 -16t35 -8t39.5 6.5t39.5 25.5l-6 -31q-31 -26 -75 -26q-23 0 -39 8t-30.5 16t-33.5 8q-21 0 -39.5 -6t-40.5 -26zM223 522l116 102h30l74 -102h-27l-63 86l-99 -86h-31zM238 -10q-130 0 -171 60.5t-13 190.5
q24 114 84.5 178.5t178.5 64.5q67 0 102.5 -25t45.5 -67t-1 -92l-17 -82h-370q-13 -69 -4 -114t50.5 -67t125.5 -22q60 0 128 25l-6 -26q-66 -24 -133 -24zM82 244h342l11 52q11 50 4 86.5t-37 56.5t-90 20q-100 0 -154 -57.5t-76 -157.5z" />
    <glyph glyph-name="edieresis" unicode="&#xeb;" horiz-adv-x="518" 
d="M235 552l7 35h35l-7 -35h-35zM392 552l7 35h35l-7 -35h-35zM238 -10q-130 0 -171 60.5t-13 190.5q24 114 84.5 178.5t178.5 64.5q67 0 102.5 -25t45.5 -67t-1 -92l-17 -82h-370q-13 -69 -4 -114t50.5 -67t125.5 -22q60 0 128 25l-6 -26q-66 -24 -133 -24zM82 244h342
l11 52q11 50 4 86.5t-37 56.5t-90 20q-100 0 -154 -57.5t-76 -157.5z" />
    <glyph glyph-name="edotaccent" unicode="&#x117;" horiz-adv-x="518" 
d="M317 552l7 35h35l-7 -35h-35zM238 -10q-130 0 -171 60.5t-13 190.5q24 114 84.5 178.5t178.5 64.5q67 0 102.5 -25t45.5 -67t-1 -92l-17 -82h-370q-13 -69 -4 -114t50.5 -67t125.5 -22q60 0 128 25l-6 -26q-66 -24 -133 -24zM82 244h342l11 52q11 50 4 86.5t-37 56.5
t-90 20q-100 0 -154 -57.5t-76 -157.5z" />
    <glyph glyph-name="uni1EB9" unicode="&#x1eb9;" horiz-adv-x="518" 
d="M238 -10q-130 0 -171 60.5t-13 190.5q24 114 84.5 178.5t178.5 64.5q67 0 102.5 -25t45.5 -67t-1 -92l-17 -82h-370q-13 -69 -4 -114t50.5 -67t125.5 -22q60 0 128 25l-6 -26q-66 -24 -133 -24zM82 244h342l11 52q11 50 4 86.5t-37 56.5t-90 20q-100 0 -154 -57.5
t-76 -157.5zM166 -139l8 37h37l-8 -37h-37z" />
    <glyph glyph-name="egrave" unicode="&#xe8;" horiz-adv-x="518" 
d="M316 522l-38 149h30l31 -149h-23zM238 -10q-130 0 -171 60.5t-13 190.5q24 114 84.5 178.5t178.5 64.5q67 0 102.5 -25t45.5 -67t-1 -92l-17 -82h-370q-13 -69 -4 -114t50.5 -67t125.5 -22q60 0 128 25l-6 -26q-66 -24 -133 -24zM82 244h342l11 52q11 50 4 86.5t-37 56.5
t-90 20q-100 0 -154 -57.5t-76 -157.5z" />
    <glyph glyph-name="uni1EBB" unicode="&#x1ebb;" horiz-adv-x="518" 
d="M316 522l16 75q43 2 65 10t31.5 22.5t13.5 34.5q6 29 -9.5 44.5t-65.5 15.5q-16 0 -36.5 -3.5t-34.5 -8.5l5 25q14 5 36 8.5t37 3.5q53 0 77 -22t16 -63q-9 -39 -33 -60t-78 -26l-12 -56h-28zM238 -10q-130 0 -171 60.5t-13 190.5q24 114 84.5 178.5t178.5 64.5
q67 0 102.5 -25t45.5 -67t-1 -92l-17 -82h-370q-13 -69 -4 -114t50.5 -67t125.5 -22q60 0 128 25l-6 -26q-66 -24 -133 -24zM82 244h342l11 52q11 50 4 86.5t-37 56.5t-90 20q-100 0 -154 -57.5t-76 -157.5z" />
    <glyph glyph-name="emacron" unicode="&#x113;" horiz-adv-x="518" 
d="M219 552l6 25h266l-6 -25h-266zM238 -10q-130 0 -171 60.5t-13 190.5q24 114 84.5 178.5t178.5 64.5q67 0 102.5 -25t45.5 -67t-1 -92l-17 -82h-370q-13 -69 -4 -114t50.5 -67t125.5 -22q60 0 128 25l-6 -26q-66 -24 -133 -24zM82 244h342l11 52q11 50 4 86.5t-37 56.5
t-90 20q-100 0 -154 -57.5t-76 -157.5z" />
    <glyph glyph-name="eogonek" unicode="&#x119;" horiz-adv-x="518" 
d="M257 -220q-34 0 -54.5 19t-10.5 66q8 38 34.5 72.5t57.5 55.5q-24 -3 -46 -3q-130 0 -171 60.5t-13 190.5q24 114 84.5 178.5t178.5 64.5q67 0 102.5 -25t45.5 -67t-1 -92l-17 -82h-370q-13 -69 -4 -114t50.5 -67t125.5 -22q60 0 128 25l-6 -26q-11 -4 -23 -8t-25 -6h1
q-46 -29 -71.5 -64.5t-33.5 -70.5q-7 -31 1.5 -45.5t41.5 -14.5q13 0 27 3t24 8l-5 -25q-12 -6 -26 -8.5t-25 -2.5zM82 244h342l11 52q11 50 4 86.5t-37 56.5t-90 20q-100 0 -154 -57.5t-76 -157.5z" />
    <glyph glyph-name="uni1EBD" unicode="&#x1ebd;" horiz-adv-x="518" 
d="M398 552q-23 0 -41.5 9t-35.5 18t-36 9q-21 0 -41.5 -7t-40.5 -27l6 31q14 14 35.5 21t42.5 7q25 0 42 -9t33.5 -18t37.5 -9q22 0 40 7.5t36 26.5l-7 -31q-26 -28 -71 -28zM238 -10q-130 0 -171 60.5t-13 190.5q24 114 84.5 178.5t178.5 64.5q67 0 102.5 -25t45.5 -67
t-1 -92l-17 -82h-370q-13 -69 -4 -114t50.5 -67t125.5 -22q60 0 128 25l-6 -26q-66 -24 -133 -24zM82 244h342l11 52q11 50 4 86.5t-37 56.5t-90 20q-100 0 -154 -57.5t-76 -157.5z" />
    <glyph glyph-name="uni0259" unicode="&#x259;" horiz-adv-x="518" 
d="M187 -10q-67 0 -102.5 25t-45 67t0.5 92l18 82h370q13 70 3.5 114.5t-50.5 66.5t-125 22q-62 0 -128 -25l5 26q66 24 133 24q130 0 171.5 -60.5t13.5 -190.5q-16 -76 -47.5 -130.5t-84 -83.5t-132.5 -29zM193 15q103 0 155.5 57.5t73.5 157.5h-342l-11 -52
q-16 -79 9.5 -121t114.5 -42z" />
    <glyph glyph-name="f" unicode="f" horiz-adv-x="336" 
d="M59 0l95 448h-75l5 26h75l20 91q13 61 51 93t105 32q20 0 36.5 -2.5t29.5 -7.5l-5 -26q-14 5 -27.5 8t-30.5 3q-60 0 -90 -24t-41 -74l-20 -93h137l-7 -26h-135l-95 -448h-28z" />
    <glyph glyph-name="g" unicode="g" horiz-adv-x="554" 
d="M170 -176q-25 0 -58 3t-50 7l6 26q20 -7 50.5 -9t49.5 -2q84 0 144.5 35.5t74.5 101.5l16 78q-41 -28 -82 -41t-98 -13q-64 0 -108.5 20.5t-61.5 70.5t1 136q28 130 95.5 188.5t167.5 58.5q56 0 95 -16t67 -51l16 57h23l-103 -488q-11 -51 -48 -87t-89 -55.5t-108 -19.5z
M235 35q53 0 95 15.5t79 42.5l63 295q-54 71 -155 71q-189 0 -236 -222q-16 -77 -4.5 -121t51.5 -62.5t107 -18.5z" />
    <glyph glyph-name="gbreve" unicode="&#x11f;" horiz-adv-x="538" 
d="M335 522q-40 0 -62 27.5t-13 67.5h23q-7 -30 9 -50t46 -20q31 0 55 20t31 50h27q-9 -40 -42 -67.5t-74 -27.5zM170 -176q-25 0 -58 3t-50 7l6 26q20 -7 50.5 -9t49.5 -2q84 0 144.5 35.5t74.5 101.5l16 78q-41 -28 -82 -41t-98 -13q-64 0 -108.5 20.5t-61.5 70.5t1 136
q28 130 95.5 188.5t167.5 58.5q56 0 95 -16t67 -51l16 57h23l-103 -488q-11 -51 -48 -87t-89 -55.5t-108 -19.5zM235 35q53 0 95 15.5t79 42.5l63 295q-54 71 -155 71q-189 0 -236 -222q-16 -77 -4.5 -121t51.5 -62.5t107 -18.5z" />
    <glyph glyph-name="gcaron" unicode="&#x1e7;" horiz-adv-x="538" 
d="M329 522l-69 122h27l59 -104l103 104h31l-121 -122h-30zM170 -176q-25 0 -58 3t-50 7l6 26q20 -7 50.5 -9t49.5 -2q84 0 144.5 35.5t74.5 101.5l16 78q-41 -28 -82 -41t-98 -13q-64 0 -108.5 20.5t-61.5 70.5t1 136q28 130 95.5 188.5t167.5 58.5q56 0 95 -16t67 -51
l16 57h23l-103 -488q-11 -51 -48 -87t-89 -55.5t-108 -19.5zM235 35q53 0 95 15.5t79 42.5l63 295q-54 71 -155 71q-189 0 -236 -222q-16 -77 -4.5 -121t51.5 -62.5t107 -18.5z" />
    <glyph glyph-name="gcircumflex" unicode="&#x11d;" horiz-adv-x="538" 
d="M219 522l120 122h30l69 -122h-27l-59 104l-103 -104h-30zM170 -176q-25 0 -58 3t-50 7l6 26q20 -7 50.5 -9t49.5 -2q84 0 144.5 35.5t74.5 101.5l16 78q-41 -28 -82 -41t-98 -13q-64 0 -108.5 20.5t-61.5 70.5t1 136q28 130 95.5 188.5t167.5 58.5q56 0 95 -16t67 -51
l16 57h23l-103 -488q-11 -51 -48 -87t-89 -55.5t-108 -19.5zM235 35q53 0 95 15.5t79 42.5l63 295q-54 71 -155 71q-189 0 -236 -222q-16 -77 -4.5 -121t51.5 -62.5t107 -18.5z" />
    <glyph glyph-name="uni0123" unicode="&#x123;" horiz-adv-x="538" 
d="M285 522l68 153h22l-57 -153h-33zM170 -176q-25 0 -58 3t-50 7l6 26q20 -7 50.5 -9t49.5 -2q84 0 144.5 35.5t74.5 101.5l16 78q-41 -28 -82 -41t-98 -13q-64 0 -108.5 20.5t-61.5 70.5t1 136q28 130 95.5 188.5t167.5 58.5q56 0 95 -16t67 -51l16 57h23l-103 -488
q-11 -51 -48 -87t-89 -55.5t-108 -19.5zM235 35q53 0 95 15.5t79 42.5l63 295q-54 71 -155 71q-189 0 -236 -222q-16 -77 -4.5 -121t51.5 -62.5t107 -18.5z" />
    <glyph glyph-name="gdotaccent" unicode="&#x121;" horiz-adv-x="538" 
d="M321 552l7 35h35l-7 -35h-35zM170 -176q-25 0 -58 3t-50 7l6 26q20 -7 50.5 -9t49.5 -2q84 0 144.5 35.5t74.5 101.5l16 78q-41 -28 -82 -41t-98 -13q-64 0 -108.5 20.5t-61.5 70.5t1 136q28 130 95.5 188.5t167.5 58.5q56 0 95 -16t67 -51l16 57h23l-103 -488
q-11 -51 -48 -87t-89 -55.5t-108 -19.5zM235 35q53 0 95 15.5t79 42.5l63 295q-54 71 -155 71q-189 0 -236 -222q-16 -77 -4.5 -121t51.5 -62.5t107 -18.5z" />
    <glyph glyph-name="uni1E21" unicode="&#x1e21;" horiz-adv-x="538" 
d="M215 552l6 25h266l-6 -25h-266zM170 -176q-25 0 -58 3t-50 7l6 26q20 -7 50.5 -9t49.5 -2q84 0 144.5 35.5t74.5 101.5l16 78q-41 -28 -82 -41t-98 -13q-64 0 -108.5 20.5t-61.5 70.5t1 136q28 130 95.5 188.5t167.5 58.5q56 0 95 -16t67 -51l16 57h23l-103 -488
q-11 -51 -48 -87t-89 -55.5t-108 -19.5zM235 35q53 0 95 15.5t79 42.5l63 295q-54 71 -155 71q-189 0 -236 -222q-16 -77 -4.5 -121t51.5 -62.5t107 -18.5z" />
    <glyph glyph-name="h" unicode="h" horiz-adv-x="548" 
d="M23 0l143 674h28l-56 -262q44 33 95.5 52.5t119.5 19.5q83 0 116 -40t14 -127l-67 -317h-28l67 317q11 52 5 83t-36 45t-91 14q-56 0 -107.5 -22t-94.5 -56l-80 -381h-28z" />
    <glyph glyph-name="hbar" unicode="&#x127;" horiz-adv-x="577" 
d="M52 0l117 553h-68l5 25h69l20 96h28l-21 -96h183l-5 -25h-183l-30 -141q44 33 95.5 52.5t119.5 19.5q83 0 116 -40t14 -127l-67 -317h-28l67 317q11 52 5 83t-36 45t-91 14q-56 0 -107.5 -22t-94.5 -56l-80 -381h-28z" />
    <glyph glyph-name="uni1E2B" unicode="&#x1e2b;" horiz-adv-x="548" 
d="M23 0l143 674h28l-56 -262q44 33 95.5 52.5t119.5 19.5q83 0 116 -40t14 -127l-67 -317h-28l67 317q11 52 5 83t-36 45t-91 14q-56 0 -107.5 -22t-94.5 -56l-80 -381h-28zM185 -174q-35 0 -66 12.5t-46.5 41.5t-4.5 80h25q-13 -59 14.5 -84t82.5 -25q49 0 89 25t53 84h25
q-11 -51 -37.5 -80t-61.5 -41.5t-73 -12.5z" />
    <glyph glyph-name="hcircumflex" unicode="&#x125;" horiz-adv-x="548" 
d="M173 698l120 122h30l69 -122h-27l-59 104l-103 -104h-30zM23 0l143 674h28l-56 -262q44 33 95.5 52.5t119.5 19.5q83 0 116 -40t14 -127l-67 -317h-28l67 317q11 52 5 83t-36 45t-91 14q-56 0 -107.5 -22t-94.5 -56l-80 -381h-28z" />
    <glyph glyph-name="uni1E25" unicode="&#x1e25;" horiz-adv-x="548" 
d="M23 0l143 674h28l-56 -262q44 33 95.5 52.5t119.5 19.5q83 0 116 -40t14 -127l-67 -317h-28l67 317q11 52 5 83t-36 45t-91 14q-56 0 -107.5 -22t-94.5 -56l-80 -381h-28zM174 -139l8 37h37l-8 -37h-37z" />
    <glyph glyph-name="i" unicode="i" horiz-adv-x="245" 
d="M202 610l10 44h35l-10 -44h-35zM79 0l95 448h-76l9 26h100l-100 -474h-28z" />
    <glyph glyph-name="dotlessi" unicode="&#x131;" horiz-adv-x="266" 
d="M101 0l95 448h-77l5 26h105l-100 -474h-28z" />
    <glyph glyph-name="iacute" unicode="&#xed;" horiz-adv-x="266" 
d="M202 522l95 149h30l-102 -149h-23zM101 0l95 448h-77l5 26h105l-100 -474h-28z" />
    <glyph glyph-name="ibreve" unicode="&#x12d;" horiz-adv-x="265" 
d="M191 522q-40 0 -62 27.5t-13 67.5h23q-7 -30 9 -50t46 -20q31 0 55 20t31 50h27q-9 -40 -42 -67.5t-74 -27.5zM100 0l95 448h-77l5 26h105l-100 -474h-28z" />
    <glyph glyph-name="uni01D0" unicode="&#x1d0;" horiz-adv-x="265" 
d="M184 522l-69 122h27l59 -104l103 104h31l-121 -122h-30zM101 0l95 448h-77l5 26h105l-100 -474h-28z" />
    <glyph glyph-name="icircumflex" unicode="&#xee;" horiz-adv-x="264" 
d="M82 522l120 122h30l69 -122h-27l-59 104l-103 -104h-30zM100 0l95 448h-77l5 26h105l-100 -474h-28z" />
    <glyph glyph-name="idieresis" unicode="&#xef;" horiz-adv-x="266" 
d="M98 552l7 35h35l-7 -35h-35zM255 552l7 35h35l-7 -35h-35zM101 0l95 448h-77l5 26h105l-100 -474h-28z" />
    <glyph glyph-name="uni1ECB" unicode="&#x1ecb;" horiz-adv-x="266" 
d="M222 610l10 44h35l-10 -44h-35zM99 0l95 448h-76l9 26h100l-100 -474h-28zM67 -139l8 37h37l-8 -37h-37z" />
    <glyph glyph-name="igrave" unicode="&#xec;" horiz-adv-x="266" 
d="M211 522l-38 149h30l31 -149h-23zM101 0l95 448h-77l5 26h105l-100 -474h-28z" />
    <glyph glyph-name="uni1EC9" unicode="&#x1ec9;" horiz-adv-x="266" 
d="M179 522l16 75q43 2 65 10t31.5 22.5t13.5 34.5q6 29 -9.5 44.5t-65.5 15.5q-16 0 -36.5 -3.5t-34.5 -8.5l5 25q14 5 36 8.5t37 3.5q53 0 77 -22t16 -63q-9 -39 -33 -60t-78 -26l-12 -56h-28zM100 0l95 448h-77l5 26h105l-100 -474h-28z" />
    <glyph glyph-name="ij" unicode="&#x133;" horiz-adv-x="452" 
d="M222 610l10 44h35l-10 -44h-35zM409 610l10 44h35l-10 -44h-35zM140 -234q-38 0 -68 10l5 26q17 -6 32 -8.5t27 -2.5q59 0 87.5 25.5t38.5 73.5l119 558h-76l9 26h100l-124 -584q-12 -58 -50.5 -91t-99.5 -33zM99 0l95 448h-76l9 26h100l-100 -474h-28z" />
    <glyph glyph-name="imacron" unicode="&#x12b;" horiz-adv-x="265" 
d="M59 552l6 25h267l-6 -25h-267zM100 0l95 448h-77l5 26h105l-100 -474h-28z" />
    <glyph glyph-name="iogonek" unicode="&#x12f;" horiz-adv-x="264" 
d="M222 610l10 44h35l-10 -44h-35zM60 -220q-34 0 -54.5 19t-10.5 66q8 41 39 78t65 57l95 448h-76l9 26h100l-100 -474q-46 -29 -71.5 -64.5t-33.5 -70.5q-7 -31 1.5 -45.5t41.5 -14.5q13 0 27 3t24 8l-5 -25q-12 -6 -26 -8.5t-25 -2.5z" />
    <glyph glyph-name="itilde" unicode="&#x129;" horiz-adv-x="265" 
d="M251 522q-23 0 -41.5 9t-35.5 18t-36 9q-21 0 -41.5 -7t-40.5 -27l6 31q14 14 35.5 21t42.5 7q25 0 42 -9t33.5 -18t37.5 -9q22 0 40 7.5t36 26.5l-7 -31q-26 -28 -71 -28zM100 0l95 448h-77l5 26h105l-100 -474h-28z" />
    <glyph glyph-name="j" unicode="j" horiz-adv-x="256" 
d="M213 610l10 44h35l-10 -44h-35zM-56 -234q-38 0 -68 10l5 26q17 -6 32 -8.5t27 -2.5q59 0 87.5 25.5t38.5 73.5l119 558h-76l9 26h100l-124 -584q-12 -58 -50.5 -91t-99.5 -33z" />
    <glyph glyph-name="uni0237" unicode="&#x237;" horiz-adv-x="265" 
d="M-46 -234q-38 0 -68 10l5 26q17 -6 32 -8.5t27 -2.5q56 0 86 25.5t40 73.5l119 558h-76l9 26h100l-124 -584q-12 -58 -51.5 -91t-98.5 -33z" />
    <glyph glyph-name="jcircumflex" unicode="&#x135;" horiz-adv-x="265" 
d="M84 522l120 122h30l69 -122h-27l-59 104l-103 -104h-30zM-46 -234q-38 0 -68 10l5 26q17 -6 32 -8.5t27 -2.5q56 0 86 25.5t40 73.5l119 558h-76l9 26h100l-124 -584q-12 -58 -51.5 -91t-98.5 -33z" />
    <glyph glyph-name="k" unicode="k" horiz-adv-x="463" 
d="M23 0l143 674h28l-95 -446l319 246h36l-234 -182l146 -292h-30l-139 275l-105 -81l-41 -194h-28z" />
    <glyph glyph-name="uni0137" unicode="&#x137;" horiz-adv-x="483" 
d="M23 0l143 674h28l-95 -446l319 246h36l-234 -182l146 -292h-30l-139 275l-105 -81l-41 -194h-28zM99 -190l57 153h33l-68 -153h-22z" />
    <glyph glyph-name="kgreenlandic" unicode="&#x138;" horiz-adv-x="484" 
d="M24 0l100 474h28l-57 -269l324 269h36l-238 -197l150 -277h-30l-141 259l-109 -90l-35 -169h-28z" />
    <glyph glyph-name="l" unicode="l" horiz-adv-x="229" 
d="M93 -10q-33 0 -48.5 19t-4.5 71l126 594h28l-127 -598q-7 -34 0.5 -47t29.5 -13q11 0 22 1t22 4l-6 -26q-10 -3 -22.5 -4t-19.5 -1z" />
    <glyph glyph-name="lacute" unicode="&#x13a;" horiz-adv-x="229" 
d="M181 719l95 149h30l-102 -149h-23zM93 -10q-33 0 -48.5 19t-4.5 71l126 594h28l-127 -598q-7 -34 0.5 -47t29.5 -13q11 0 22 1t22 4l-6 -26q-10 -3 -22.5 -4t-19.5 -1z" />
    <glyph glyph-name="lcaron" unicode="&#x13e;" horiz-adv-x="232" 
d="M94 -10q-33 0 -49 19t-5 71l126 594h28l-127 -598q-7 -35 0.5 -47.5t29.5 -12.5q11 0 22.5 1t21.5 4l-5 -26q-11 -3 -23.5 -4t-18.5 -1zM229 521l56 153h33l-67 -153h-22z" />
    <glyph glyph-name="uni013C" unicode="&#x13c;" horiz-adv-x="229" 
d="M93 -10q-33 0 -48.5 19t-4.5 71l126 594h28l-127 -598q-7 -34 0.5 -47t29.5 -13q11 0 22 1t22 4l-6 -26q-10 -3 -22.5 -4t-19.5 -1zM14 -190l57 153h33l-68 -153h-22z" />
    <glyph glyph-name="ldot" unicode="&#x140;" horiz-adv-x="218" 
d="M93 -10q-33 0 -48.5 19t-4.5 71l126 594h28l-127 -598q-7 -34 0.5 -47t29.5 -13q11 0 22 1t22 4l-6 -26q-10 -3 -22.5 -4t-19.5 -1zM186 262l7 35h35l-7 -35h-35z" />
    <glyph glyph-name="uni1E37" unicode="&#x1e37;" horiz-adv-x="229" 
d="M93 -10q-33 0 -48.5 19t-4.5 71l126 594h28l-127 -598q-7 -34 0.5 -47t29.5 -13q11 0 22 1t22 4l-6 -26q-10 -3 -22.5 -4t-19.5 -1zM19 -139l8 37h37l-8 -37h-37z" />
    <glyph glyph-name="uni1E39" unicode="&#x1e39;" horiz-adv-x="229" 
d="M57 719l6 25h266l-6 -25h-266zM93 -10q-33 0 -48.5 19t-4.5 71l126 594h28l-127 -598q-7 -34 0.5 -47t29.5 -13q11 0 22 1t22 4l-6 -26q-10 -3 -22.5 -4t-19.5 -1zM19 -139l8 37h37l-8 -37h-37z" />
    <glyph glyph-name="uni1E3B" unicode="&#x1e3b;" horiz-adv-x="228" 
d="M93 -10q-33 0 -48.5 19t-4.5 71l126 594h28l-127 -598q-7 -34 0.5 -47t29.5 -13q11 0 22 1t22 4l-6 -26q-10 -3 -22.5 -4t-19.5 -1zM-97 -101l5 25h266l-5 -25h-266z" />
    <glyph glyph-name="lslash" unicode="&#x142;" horiz-adv-x="228" 
d="M93 -10q-33 0 -48.5 19t-4.5 71l49 231l-118 -47l5 25l118 47l72 338h28l-69 -326l128 51l-5 -25l-129 -51l-52 -247q-7 -34 0.5 -47t29.5 -13q11 0 22 1t22 4l-6 -26q-10 -3 -22.5 -4t-19.5 -1z" />
    <glyph glyph-name="m" unicode="m" horiz-adv-x="847" 
d="M24 0l100 474h23l-8 -62q48 35 97.5 53.5t98.5 18.5q57 0 84 -19t34 -52q41 30 91 50.5t114 20.5q80 0 111 -40t13 -125l-67 -319h-28l67 318q17 79 -10.5 110t-99.5 31q-50 0 -98.5 -18t-87.5 -52q1 -15 -1.5 -37t-6.5 -39l-66 -313h-28l66 313q17 77 -1.5 111.5
t-92.5 34.5q-49 0 -101.5 -23t-94.5 -55l-80 -381h-28z" />
    <glyph glyph-name="uni1E43" unicode="&#x1e43;" horiz-adv-x="847" 
d="M24 0l100 474h23l-8 -62q48 35 97.5 53.5t98.5 18.5q57 0 84 -19t34 -52q41 30 91 50.5t114 20.5q80 0 111 -40t13 -125l-67 -319h-28l67 318q17 79 -10.5 110t-99.5 31q-50 0 -98.5 -18t-87.5 -52q1 -15 -1.5 -37t-6.5 -39l-66 -313h-28l66 313q17 77 -1.5 111.5
t-92.5 34.5q-49 0 -101.5 -23t-94.5 -55l-80 -381h-28zM328 -139l8 37h37l-8 -37h-37z" />
    <glyph glyph-name="n" unicode="n" horiz-adv-x="549" 
d="M24 0l100 474h23l-8 -62q44 33 95.5 52.5t119.5 19.5q85 0 117 -40t13 -127l-67 -317h-28l67 317q11 52 5 83t-35.5 45t-91.5 14q-56 0 -107.5 -22t-94.5 -56l-80 -381h-28z" />
    <glyph glyph-name="nacute" unicode="&#x144;" horiz-adv-x="549" 
d="M328 522l95 149h30l-102 -149h-23zM24 0l100 474h23l-8 -62q44 33 95.5 52.5t119.5 19.5q85 0 117 -40t13 -127l-67 -317h-28l67 317q11 52 5 83t-35.5 45t-91.5 14q-56 0 -107.5 -22t-94.5 -56l-80 -381h-28z" />
    <glyph glyph-name="napostrophe" unicode="&#x149;" horiz-adv-x="594" 
d="M80 499l57 153h33l-68 -153h-22zM69 0l100 474h23l-8 -62q44 33 95.5 52.5t119.5 19.5q85 0 117 -40t13 -127l-67 -317h-28l67 317q11 52 5 83t-35.5 45t-91.5 14q-56 0 -107.5 -22t-94.5 -56l-80 -381h-28z" />
    <glyph glyph-name="ncaron" unicode="&#x148;" horiz-adv-x="549" 
d="M321 522l-69 122h27l59 -104l103 104h31l-121 -122h-30zM24 0l100 474h23l-8 -62q44 33 95.5 52.5t119.5 19.5q85 0 117 -40t13 -127l-67 -317h-28l67 317q11 52 5 83t-35.5 45t-91.5 14q-56 0 -107.5 -22t-94.5 -56l-80 -381h-28z" />
    <glyph glyph-name="uni0146" unicode="&#x146;" horiz-adv-x="549" 
d="M24 0l100 474h23l-8 -62q44 33 95.5 52.5t119.5 19.5q85 0 117 -40t13 -127l-67 -317h-28l67 317q11 52 5 83t-35.5 45t-91.5 14q-56 0 -107.5 -22t-94.5 -56l-80 -381h-28zM148 -190l57 153h33l-68 -153h-22z" />
    <glyph glyph-name="uni1E45" unicode="&#x1e45;" horiz-adv-x="549" 
d="M332 552l7 35h35l-7 -35h-35zM24 0l100 474h23l-8 -62q44 33 95.5 52.5t119.5 19.5q85 0 117 -40t13 -127l-67 -317h-28l67 317q11 52 5 83t-35.5 45t-91.5 14q-56 0 -107.5 -22t-94.5 -56l-80 -381h-28z" />
    <glyph glyph-name="uni1E47" unicode="&#x1e47;" horiz-adv-x="549" 
d="M24 0l100 474h23l-8 -62q44 33 95.5 52.5t119.5 19.5q85 0 117 -40t13 -127l-67 -317h-28l67 317q11 52 5 83t-35.5 45t-91.5 14q-56 0 -107.5 -22t-94.5 -56l-80 -381h-28zM188 -139l8 37h37l-8 -37h-37z" />
    <glyph glyph-name="eng" unicode="&#x14b;" horiz-adv-x="549" 
d="M242 -234q-38 0 -68 10l5 26q17 -6 32 -8.5t27 -2.5q57 0 87 25.5t40 73.5l91 427q11 52 5 83t-35.5 45t-91.5 14q-56 0 -107.5 -22t-94.5 -56l-80 -381h-28l100 474h23l-8 -62q44 33 95.5 52.5t119.5 19.5q83 0 116 -40t14 -127l-91 -427q-12 -58 -50.5 -91t-100.5 -33z
" />
    <glyph glyph-name="uni1E49" unicode="&#x1e49;" horiz-adv-x="549" 
d="M24 0l100 474h23l-8 -62q44 33 95.5 52.5t119.5 19.5q85 0 117 -40t13 -127l-67 -317h-28l67 317q11 52 5 83t-35.5 45t-91.5 14q-56 0 -107.5 -22t-94.5 -56l-80 -381h-28zM76 -101l5 25h266l-5 -25h-266z" />
    <glyph glyph-name="ntilde" unicode="&#xf1;" horiz-adv-x="549" 
d="M417 552q-23 0 -41.5 9t-35.5 18t-36 9q-21 0 -41.5 -7t-40.5 -27l6 31q14 14 35.5 21t42.5 7q25 0 42 -9t33.5 -18t37.5 -9q22 0 40 7.5t36 26.5l-7 -31q-26 -28 -71 -28zM24 0l100 474h23l-8 -62q44 33 95.5 52.5t119.5 19.5q85 0 117 -40t13 -127l-67 -317h-28l67 317
q11 52 5 83t-35.5 45t-91.5 14q-56 0 -107.5 -22t-94.5 -56l-80 -381h-28z" />
    <glyph glyph-name="o" unicode="o" horiz-adv-x="552" 
d="M216 -10q-115 0 -151.5 63t-11.5 184q26 121 88.5 184t179.5 63q114 0 152 -63t12 -184q-25 -121 -87 -184t-182 -63zM222 15q104 0 158 55.5t78 166.5q16 74 9 123.5t-42.5 74t-108.5 24.5q-103 0 -158 -55.5t-78 -166.5q-16 -74 -10 -123.5t42 -74t110 -24.5z" />
    <glyph glyph-name="oacute" unicode="&#xf3;" horiz-adv-x="552" 
d="M325 522l95 149h30l-102 -149h-23zM216 -10q-115 0 -151.5 63t-11.5 184q26 121 88.5 184t179.5 63q114 0 152 -63t12 -184q-25 -121 -87 -184t-182 -63zM222 15q104 0 158 55.5t78 166.5q16 74 9 123.5t-42.5 74t-108.5 24.5q-103 0 -158 -55.5t-78 -166.5
q-16 -74 -10 -123.5t42 -74t110 -24.5z" />
    <glyph glyph-name="obreve" unicode="&#x14f;" horiz-adv-x="552" 
d="M329 522q-40 0 -62 27.5t-13 67.5h23q-7 -30 9 -50t46 -20q31 0 55 20t31 50h27q-9 -40 -42 -67.5t-74 -27.5zM216 -10q-115 0 -151.5 63t-11.5 184q26 121 88.5 184t179.5 63q114 0 152 -63t12 -184q-25 -121 -87 -184t-182 -63zM222 15q104 0 158 55.5t78 166.5
q16 74 9 123.5t-42.5 74t-108.5 24.5q-103 0 -158 -55.5t-78 -166.5q-16 -74 -10 -123.5t42 -74t110 -24.5z" />
    <glyph glyph-name="uni01D2" unicode="&#x1d2;" horiz-adv-x="552" 
d="M314 522l-69 122h27l59 -104l103 104h31l-121 -122h-30zM216 -10q-115 0 -151.5 63t-11.5 184q26 121 88.5 184t179.5 63q114 0 152 -63t12 -184q-25 -121 -87 -184t-182 -63zM222 15q104 0 158 55.5t78 166.5q16 74 9 123.5t-42.5 74t-108.5 24.5q-103 0 -158 -55.5
t-78 -166.5q-16 -74 -10 -123.5t42 -74t110 -24.5z" />
    <glyph glyph-name="ocircumflex" unicode="&#xf4;" horiz-adv-x="552" 
d="M215 522l120 122h30l69 -122h-27l-59 104l-103 -104h-30zM216 -10q-115 0 -151.5 63t-11.5 184q26 121 88.5 184t179.5 63q114 0 152 -63t12 -184q-25 -121 -87 -184t-182 -63zM222 15q104 0 158 55.5t78 166.5q16 74 9 123.5t-42.5 74t-108.5 24.5q-103 0 -158 -55.5
t-78 -166.5q-16 -74 -10 -123.5t42 -74t110 -24.5z" />
    <glyph glyph-name="uni1ED1" unicode="&#x1ed1;" horiz-adv-x="552" 
d="M426 624l81 109h28l-87 -109h-22zM236 522l116 102h30l74 -102h-27l-63 86l-99 -86h-31zM216 -10q-115 0 -151.5 63t-11.5 184q26 121 88.5 184t179.5 63q114 0 152 -63t12 -184q-25 -121 -87 -184t-182 -63zM222 15q104 0 158 55.5t78 166.5q16 74 9 123.5t-42.5 74
t-108.5 24.5q-103 0 -158 -55.5t-78 -166.5q-16 -74 -10 -123.5t42 -74t110 -24.5z" />
    <glyph glyph-name="uni1ED9" unicode="&#x1ed9;" horiz-adv-x="552" 
d="M220 522l120 122h30l69 -122h-27l-59 104l-103 -104h-30zM216 -10q-115 0 -151.5 63t-11.5 184q26 121 88.5 184t179.5 63q114 0 152 -63t12 -184q-25 -121 -87 -184t-182 -63zM222 15q104 0 158 55.5t78 166.5q16 74 9 123.5t-42.5 74t-108.5 24.5q-103 0 -158 -55.5
t-78 -166.5q-16 -74 -10 -123.5t42 -74t110 -24.5zM172 -139l8 37h37l-8 -37h-37z" />
    <glyph glyph-name="uni1ED3" unicode="&#x1ed3;" horiz-adv-x="552" 
d="M276 624l-40 109h29l33 -109h-22zM226 522l116 102h30l74 -102h-27l-63 86l-99 -86h-31zM216 -10q-115 0 -151.5 63t-11.5 184q26 121 88.5 184t179.5 63q114 0 152 -63t12 -184q-25 -121 -87 -184t-182 -63zM222 15q104 0 158 55.5t78 166.5q16 74 9 123.5t-42.5 74
t-108.5 24.5q-103 0 -158 -55.5t-78 -166.5q-16 -74 -10 -123.5t42 -74t110 -24.5z" />
    <glyph glyph-name="uni1ED5" unicode="&#x1ed5;" horiz-adv-x="552" 
d="M429 603l12 56q54 3 72 15t22 35q11 45 -46 45q-17 0 -32 -3.5t-30 -9.5l6 25q13 5 28.5 8.5t32.5 3.5q38 0 56 -17.5t10 -51.5q-6 -31 -28.5 -47.5t-66.5 -21.5l-8 -37h-28zM236 522l116 102h30l74 -102h-27l-63 86l-99 -86h-31zM216 -10q-115 0 -151.5 63t-11.5 184
q26 121 88.5 184t179.5 63q114 0 152 -63t12 -184q-25 -121 -87 -184t-182 -63zM222 15q104 0 158 55.5t78 166.5q16 74 9 123.5t-42.5 74t-108.5 24.5q-103 0 -158 -55.5t-78 -166.5q-16 -74 -10 -123.5t42 -74t110 -24.5z" />
    <glyph glyph-name="uni1ED7" unicode="&#x1ed7;" horiz-adv-x="552" 
d="M228 637l7 31q29 26 75 26q25 0 39.5 -8t28.5 -16t35 -8t39.5 6.5t39.5 25.5l-6 -31q-31 -26 -75 -26q-23 0 -39 8t-30.5 16t-33.5 8q-21 0 -39.5 -6t-40.5 -26zM236 522l116 102h30l74 -102h-27l-63 86l-99 -86h-31zM216 -10q-115 0 -151.5 63t-11.5 184
q26 121 88.5 184t179.5 63q114 0 152 -63t12 -184q-25 -121 -87 -184t-182 -63zM222 15q104 0 158 55.5t78 166.5q16 74 9 123.5t-42.5 74t-108.5 24.5q-103 0 -158 -55.5t-78 -166.5q-16 -74 -10 -123.5t42 -74t110 -24.5z" />
    <glyph glyph-name="odieresis" unicode="&#xf6;" horiz-adv-x="552" 
d="M240 552l7 35h35l-7 -35h-35zM397 552l7 35h35l-7 -35h-35zM216 -10q-115 0 -151.5 63t-11.5 184q26 121 88.5 184t179.5 63q114 0 152 -63t12 -184q-25 -121 -87 -184t-182 -63zM222 15q104 0 158 55.5t78 166.5q16 74 9 123.5t-42.5 74t-108.5 24.5q-103 0 -158 -55.5
t-78 -166.5q-16 -74 -10 -123.5t42 -74t110 -24.5z" />
    <glyph glyph-name="uni1ECD" unicode="&#x1ecd;" horiz-adv-x="552" 
d="M216 -10q-115 0 -151.5 63t-11.5 184q26 121 88.5 184t179.5 63q114 0 152 -63t12 -184q-25 -121 -87 -184t-182 -63zM222 15q104 0 158 55.5t78 166.5q16 74 9 123.5t-42.5 74t-108.5 24.5q-103 0 -158 -55.5t-78 -166.5q-16 -74 -10 -123.5t42 -74t110 -24.5zM172 -139
l8 37h37l-8 -37h-37z" />
    <glyph glyph-name="ograve" unicode="&#xf2;" horiz-adv-x="552" 
d="M328 522l-38 149h30l31 -149h-23zM216 -10q-115 0 -151.5 63t-11.5 184q26 121 88.5 184t179.5 63q114 0 152 -63t12 -184q-25 -121 -87 -184t-182 -63zM222 15q104 0 158 55.5t78 166.5q16 74 9 123.5t-42.5 74t-108.5 24.5q-103 0 -158 -55.5t-78 -166.5
q-16 -74 -10 -123.5t42 -74t110 -24.5z" />
    <glyph glyph-name="uni1ECF" unicode="&#x1ecf;" horiz-adv-x="552" 
d="M317 522l16 75q43 2 65 10t31.5 22.5t13.5 34.5q6 29 -9.5 44.5t-65.5 15.5q-16 0 -36.5 -3.5t-34.5 -8.5l5 25q14 5 36 8.5t37 3.5q53 0 77 -22t16 -63q-9 -39 -33 -60t-78 -26l-12 -56h-28zM216 -10q-115 0 -151.5 63t-11.5 184q26 121 88.5 184t179.5 63
q114 0 152 -63t12 -184q-25 -121 -87 -184t-182 -63zM222 15q104 0 158 55.5t78 166.5q16 74 9 123.5t-42.5 74t-108.5 24.5q-103 0 -158 -55.5t-78 -166.5q-16 -74 -10 -123.5t42 -74t110 -24.5z" />
    <glyph glyph-name="ohorn" unicode="&#x1a1;" horiz-adv-x="620" 
d="M216 -10q-115 0 -151.5 63t-11.5 184q26 121 90 184t178 63q122 0 158 -77q62 1 94.5 28.5t48.5 100.5h25q-18 -85 -58 -117t-101 -36q8 -29 7 -65.5t-10 -80.5q-25 -121 -87.5 -184t-181.5 -63zM222 15q104 0 158 55.5t78 166.5q16 74 9 123.5t-42.5 74t-108.5 24.5
q-99 0 -156 -55.5t-80 -166.5q-16 -74 -9.5 -123.5t42.5 -74t109 -24.5z" />
    <glyph glyph-name="uni1EDB" unicode="&#x1edb;" horiz-adv-x="620" 
d="M331 522l95 149h30l-102 -149h-23zM216 -10q-115 0 -151.5 63t-11.5 184q26 121 90 184t178 63q122 0 158 -77q62 1 94.5 28.5t48.5 100.5h25q-18 -85 -58 -117t-101 -36q8 -29 7 -65.5t-10 -80.5q-25 -121 -87.5 -184t-181.5 -63zM222 15q104 0 158 55.5t78 166.5
q16 74 9 123.5t-42.5 74t-108.5 24.5q-99 0 -156 -55.5t-80 -166.5q-16 -74 -9.5 -123.5t42.5 -74t109 -24.5z" />
    <glyph glyph-name="uni1EE3" unicode="&#x1ee3;" horiz-adv-x="620" 
d="M216 -10q-115 0 -151.5 63t-11.5 184q26 121 90 184t178 63q122 0 158 -77q62 1 94.5 28.5t48.5 100.5h25q-18 -85 -58 -117t-101 -36q8 -29 7 -65.5t-10 -80.5q-25 -121 -87.5 -184t-181.5 -63zM222 15q104 0 158 55.5t78 166.5q16 74 9 123.5t-42.5 74t-108.5 24.5
q-99 0 -156 -55.5t-80 -166.5q-16 -74 -9.5 -123.5t42.5 -74t109 -24.5zM189 -139l8 37h37l-8 -37h-37z" />
    <glyph glyph-name="uni1EDD" unicode="&#x1edd;" horiz-adv-x="620" 
d="M346 522l-38 149h30l31 -149h-23zM216 -10q-115 0 -151.5 63t-11.5 184q26 121 90 184t178 63q122 0 158 -77q62 1 94.5 28.5t48.5 100.5h25q-18 -85 -58 -117t-101 -36q8 -29 7 -65.5t-10 -80.5q-25 -121 -87.5 -184t-181.5 -63zM222 15q104 0 158 55.5t78 166.5
q16 74 9 123.5t-42.5 74t-108.5 24.5q-99 0 -156 -55.5t-80 -166.5q-16 -74 -9.5 -123.5t42.5 -74t109 -24.5z" />
    <glyph glyph-name="uni1EDF" unicode="&#x1edf;" horiz-adv-x="620" 
d="M315 522l16 75q43 2 65 10t31.5 22.5t13.5 34.5q6 29 -9.5 44.5t-65.5 15.5q-16 0 -36.5 -3.5t-34.5 -8.5l5 25q14 5 36 8.5t37 3.5q53 0 77 -22t16 -63q-9 -39 -33 -60t-78 -26l-12 -56h-28zM216 -10q-115 0 -151.5 63t-11.5 184q26 121 90 184t178 63q122 0 158 -77
q62 1 94.5 28.5t48.5 100.5h25q-18 -85 -58 -117t-101 -36q8 -29 7 -65.5t-10 -80.5q-25 -121 -87.5 -184t-181.5 -63zM222 15q104 0 158 55.5t78 166.5q16 74 9 123.5t-42.5 74t-108.5 24.5q-99 0 -156 -55.5t-80 -166.5q-16 -74 -9.5 -123.5t42.5 -74t109 -24.5z" />
    <glyph glyph-name="uni1EE1" unicode="&#x1ee1;" horiz-adv-x="620" 
d="M408 552q-23 0 -41.5 9t-35.5 18t-36 9q-21 0 -41.5 -7t-40.5 -27l6 31q14 14 35.5 21t42.5 7q25 0 42 -9t33.5 -18t37.5 -9q22 0 40 7.5t36 26.5l-7 -31q-26 -28 -71 -28zM216 -10q-115 0 -151.5 63t-11.5 184q26 121 90 184t178 63q122 0 158 -77q62 1 94.5 28.5
t48.5 100.5h25q-18 -85 -58 -117t-101 -36q8 -29 7 -65.5t-10 -80.5q-25 -121 -87.5 -184t-181.5 -63zM222 15q104 0 158 55.5t78 166.5q16 74 9 123.5t-42.5 74t-108.5 24.5q-99 0 -156 -55.5t-80 -166.5q-16 -74 -9.5 -123.5t42.5 -74t109 -24.5z" />
    <glyph glyph-name="ohungarumlaut" unicode="&#x151;" horiz-adv-x="552" 
d="M236 522l89 129h29l-96 -129h-22zM427 522l90 129h29l-97 -129h-22zM216 -10q-115 0 -151.5 63t-11.5 184q26 121 88.5 184t179.5 63q114 0 152 -63t12 -184q-25 -121 -87 -184t-182 -63zM222 15q104 0 158 55.5t78 166.5q16 74 9 123.5t-42.5 74t-108.5 24.5
q-103 0 -158 -55.5t-78 -166.5q-16 -74 -10 -123.5t42 -74t110 -24.5z" />
    <glyph glyph-name="omacron" unicode="&#x14d;" horiz-adv-x="552" 
d="M203 552l6 25h266l-6 -25h-266zM216 -10q-115 0 -151.5 63t-11.5 184q26 121 88.5 184t179.5 63q114 0 152 -63t12 -184q-25 -121 -87 -184t-182 -63zM222 15q104 0 158 55.5t78 166.5q16 74 9 123.5t-42.5 74t-108.5 24.5q-103 0 -158 -55.5t-78 -166.5
q-16 -74 -10 -123.5t42 -74t110 -24.5z" />
    <glyph glyph-name="oslash" unicode="&#xf8;" horiz-adv-x="552" 
d="M101 -54l31 55q-64 22 -81.5 81.5t2.5 154.5q26 121 88.5 184t179.5 63q47 0 78 -10l31 54h27l-36 -63q53 -25 68 -82.5t-4 -145.5q-25 -121 -87 -184t-182 -63q-34 0 -60 6l-28 -50h-27zM145 24l241 427q-30 8 -70 8q-103 0 -158 -55.5t-78 -166.5q-19 -88 -6.5 -141
t71.5 -72zM222 15q104 0 158 55.5t78 166.5q17 81 7.5 132t-56.5 73l-240 -423q12 -2 25 -3t28 -1z" />
    <glyph glyph-name="oslashacute" unicode="&#x1ff;" horiz-adv-x="552" 
d="M316 522l95 149h30l-102 -149h-23zM101 -54l31 55q-64 22 -81.5 81.5t2.5 154.5q26 121 88.5 184t179.5 63q47 0 78 -10l31 54h27l-36 -63q53 -25 68 -82.5t-4 -145.5q-25 -121 -87 -184t-182 -63q-34 0 -60 6l-28 -50h-27zM145 24l241 427q-30 8 -70 8
q-103 0 -158 -55.5t-78 -166.5q-19 -88 -6.5 -141t71.5 -72zM222 15q104 0 158 55.5t78 166.5q17 81 7.5 132t-56.5 73l-240 -423q12 -2 25 -3t28 -1z" />
    <glyph glyph-name="otilde" unicode="&#xf5;" horiz-adv-x="552" 
d="M402 552q-23 0 -41.5 9t-35.5 18t-36 9q-21 0 -41.5 -7t-40.5 -27l6 31q14 14 35.5 21t42.5 7q25 0 42 -9t33.5 -18t37.5 -9q22 0 40 7.5t36 26.5l-7 -31q-26 -28 -71 -28zM216 -10q-115 0 -151.5 63t-11.5 184q26 121 88.5 184t179.5 63q114 0 152 -63t12 -184
q-25 -121 -87 -184t-182 -63zM222 15q104 0 158 55.5t78 166.5q16 74 9 123.5t-42.5 74t-108.5 24.5q-103 0 -158 -55.5t-78 -166.5q-16 -74 -10 -123.5t42 -74t110 -24.5z" />
    <glyph glyph-name="oe" unicode="&#x153;" horiz-adv-x="923" 
d="M216 -10q-115 0 -151.5 63t-11.5 184q26 121 88 184t180 63q84 0 126 -35t47 -101q33 65 88 100.5t140 35.5q67 0 102.5 -25t45.5 -67t-1 -92l-17 -82h-370q-20 -104 16.5 -153.5t155.5 -49.5q60 0 128 25l-6 -26q-66 -24 -133 -24q-92 0 -142 33.5t-53 102.5
q-33 -64 -88 -100t-144 -36zM222 15q101 0 156.5 56t80.5 170q23 110 -8.5 164t-134.5 54q-101 0 -157 -55.5t-79 -166.5q-16 -74 -9.5 -123.5t43 -74t108.5 -24.5zM487 244h342l11 52q17 79 -10 121t-113 42q-103 0 -155.5 -57.5t-74.5 -157.5z" />
    <glyph glyph-name="p" unicode="p" horiz-adv-x="555" 
d="M-22 -216l146 690h23l-8 -57q43 35 88.5 51t101.5 16q100 0 143.5 -57t16.5 -187q-28 -130 -97 -190t-174 -60q-55 0 -90.5 13t-66.5 41l-55 -260h-28zM217 15q98 0 159 55t86 170q23 110 -6.5 164.5t-136.5 54.5q-52 0 -97 -17t-88 -54l-67 -315q26 -25 60.5 -41.5
t89.5 -16.5z" />
    <glyph glyph-name="thorn" unicode="&#xfe;" horiz-adv-x="555" 
d="M-22 -216l194 916h28l-60 -283q43 35 88 51t101 16q100 0 143.5 -57t16.5 -187q-28 -130 -100.5 -190t-170.5 -60q-55 0 -90.5 13t-66.5 41l-55 -260h-28zM217 15q98 0 159 55t86 170q23 110 -9 164.5t-134 54.5q-52 0 -97 -17t-88 -54l-67 -315q26 -25 60.5 -41.5
t89.5 -16.5z" />
    <glyph glyph-name="q" unicode="q" horiz-adv-x="543" 
d="M427 -242q-47 0 -62.5 27t-4.5 82l38 177q-43 -28 -84.5 -41t-96.5 -13q-63 0 -106 26.5t-59 82t2 141.5q27 130 92.5 187t169.5 57q56 0 95 -16t67 -51l16 57h23l-129 -607q-9 -43 -0.5 -63t53.5 -20q14 0 32 5l-6 -26q-22 -5 -40 -5zM230 15q56 0 96.5 16.5t77.5 41.5
l67 315q-28 37 -63.5 54t-91.5 17q-97 0 -154.5 -54.5t-80.5 -164.5q-25 -115 10.5 -170t138.5 -55z" />
    <glyph glyph-name="r" unicode="r" horiz-adv-x="314" 
d="M24 0l100 474h23l-10 -71q44 27 96 48.5t101 32.5l-5 -26q-31 -7 -68 -20.5t-71.5 -29.5t-58.5 -32l-79 -376h-28z" />
    <glyph glyph-name="racute" unicode="&#x155;" horiz-adv-x="329" 
d="M217 522l95 149h30l-102 -149h-23zM24 0l100 474h23l-10 -71q44 27 96 48.5t101 32.5l-5 -26q-31 -7 -68 -20.5t-71.5 -29.5t-58.5 -32l-79 -376h-28z" />
    <glyph glyph-name="rcaron" unicode="&#x159;" horiz-adv-x="329" 
d="M183 522l-69 122h27l59 -104l103 104h31l-121 -122h-30zM24 0l100 474h23l-10 -71q44 27 96 48.5t101 32.5l-5 -26q-31 -7 -68 -20.5t-71.5 -29.5t-58.5 -32l-79 -376h-28z" />
    <glyph glyph-name="uni0157" unicode="&#x157;" horiz-adv-x="329" 
d="M24 0l100 474h23l-10 -71q44 27 96 48.5t101 32.5l-5 -26q-31 -7 -68 -20.5t-71.5 -29.5t-58.5 -32l-79 -376h-28zM-43 -190l57 153h33l-68 -153h-22z" />
    <glyph glyph-name="uni1E5B" unicode="&#x1e5b;" horiz-adv-x="327" 
d="M22 0l100 474h23l-10 -71q44 27 96 48.5t101 32.5l-5 -26q-31 -7 -68 -20.5t-71.5 -29.5t-58.5 -32l-79 -376h-28zM-12 -139l8 37h37l-8 -37h-37z" />
    <glyph glyph-name="uni1E5D" unicode="&#x1e5d;" horiz-adv-x="387" 
d="M71 552l6 25h266l-6 -25h-266zM40 0l100 474h23l-10 -71q44 27 96 48.5t101 32.5l-5 -26q-31 -7 -68 -20.5t-71.5 -29.5t-58.5 -32l-79 -376h-28zM5 -139l8 37h37l-8 -37h-37z" />
    <glyph glyph-name="uni1E5F" unicode="&#x1e5f;" horiz-adv-x="328" 
d="M23 0l100 474h23l-10 -71q44 27 96 48.5t101 32.5l-5 -26q-31 -7 -68 -20.5t-71.5 -29.5t-58.5 -32l-79 -376h-28zM-108 -101l5 25h266l-5 -25h-266z" />
    <glyph glyph-name="s" unicode="s" horiz-adv-x="437" 
d="M151 -10q-38 0 -72 5t-60 13l6 26q60 -19 129 -19q76 0 114.5 23.5t49.5 77.5q8 38 -3 57t-40 31.5t-76 29.5q-36 14 -66.5 26.5t-45.5 36t-6 68.5q13 59 55.5 89t131.5 30q70 0 116 -15l-5 -26q-54 16 -112 16q-81 0 -114.5 -23t-44.5 -70q-7 -32 2 -50.5t34.5 -30.5
t67.5 -27q49 -16 82 -32t47 -41t4 -69q-15 -70 -64 -98t-130 -28z" />
    <glyph glyph-name="sacute" unicode="&#x15b;" horiz-adv-x="437" 
d="M268 522l95 149h30l-102 -149h-23zM151 -10q-38 0 -72 5t-60 13l6 26q60 -19 129 -19q76 0 114.5 23.5t49.5 77.5q8 38 -3 57t-40 31.5t-76 29.5q-36 14 -66.5 26.5t-45.5 36t-6 68.5q13 59 55.5 89t131.5 30q70 0 116 -15l-5 -26q-54 16 -112 16q-81 0 -114.5 -23
t-44.5 -70q-7 -32 2 -50.5t34.5 -30.5t67.5 -27q49 -16 82 -32t47 -41t4 -69q-15 -70 -64 -98t-130 -28z" />
    <glyph glyph-name="scaron" unicode="&#x161;" horiz-adv-x="437" 
d="M261 522l-69 122h27l59 -104l103 104h31l-121 -122h-30zM151 -10q-38 0 -72 5t-60 13l6 26q60 -19 129 -19q76 0 114.5 23.5t49.5 77.5q8 38 -3 57t-40 31.5t-76 29.5q-36 14 -66.5 26.5t-45.5 36t-6 68.5q13 59 55.5 89t131.5 30q70 0 116 -15l-5 -26q-54 16 -112 16
q-81 0 -114.5 -23t-44.5 -70q-7 -32 2 -50.5t34.5 -30.5t67.5 -27q49 -16 82 -32t47 -41t4 -69q-15 -70 -64 -98t-130 -28z" />
    <glyph glyph-name="scedilla" unicode="&#x15f;" horiz-adv-x="437" 
d="M106 -240q-16 0 -33 2.5t-28 5.5l6 25q26 -8 62 -8q53 0 83 17t39 57q8 36 -12 50.5t-73 14.5h-28l37 66q-44 0 -79 5t-61 13l6 26q60 -19 129 -19q76 0 114.5 23.5t49.5 77.5q8 38 -3 57t-40 31.5t-76 29.5q-36 14 -66.5 26.5t-45.5 36t-6 68.5q13 59 55.5 89t131.5 30
q70 0 116 -15l-5 -26q-54 16 -112 16q-81 0 -114.5 -23t-44.5 -70q-7 -32 2 -50.5t34.5 -30.5t67.5 -27q49 -16 82 -32t47 -41t4 -69q-13 -61 -52.5 -90t-104.5 -34l-25 -45q53 0 80.5 -21t18.5 -65q-10 -49 -47 -75t-109 -26z" />
    <glyph glyph-name="scircumflex" unicode="&#x15d;" horiz-adv-x="437" 
d="M181 542l120 122h30l69 -122h-27l-59 104l-103 -104h-30zM151 -10q-38 0 -72 5t-60 13l6 26q60 -19 129 -19q76 0 114.5 23.5t49.5 77.5q8 38 -3 57t-40 31.5t-76 29.5q-36 14 -66.5 26.5t-45.5 36t-6 68.5q13 59 55.5 89t131.5 30q70 0 116 -15l-5 -26q-54 16 -112 16
q-81 0 -114.5 -23t-44.5 -70q-7 -32 2 -50.5t34.5 -30.5t67.5 -27q49 -16 82 -32t47 -41t4 -69q-15 -70 -64 -98t-130 -28z" />
    <glyph glyph-name="uni0219" unicode="&#x219;" horiz-adv-x="437" 
d="M151 -10q-38 0 -72 5t-60 13l6 26q60 -19 129 -19q76 0 114.5 23.5t49.5 77.5q8 38 -3 57t-40 31.5t-76 29.5q-36 14 -66.5 26.5t-45.5 36t-6 68.5q13 59 55.5 89t131.5 30q70 0 116 -15l-5 -26q-54 16 -112 16q-81 0 -114.5 -23t-44.5 -70q-7 -32 2 -50.5t34.5 -30.5
t67.5 -27q49 -16 82 -32t47 -41t4 -69q-15 -70 -64 -98t-130 -28zM87 -210l57 153h32l-67 -153h-22z" />
    <glyph glyph-name="uni1E61" unicode="&#x1e61;" horiz-adv-x="437" 
d="M273 552l7 35h35l-7 -35h-35zM151 -10q-38 0 -72 5t-60 13l6 26q60 -19 129 -19q76 0 114.5 23.5t49.5 77.5q8 38 -3 57t-40 31.5t-76 29.5q-36 14 -66.5 26.5t-45.5 36t-6 68.5q13 59 55.5 89t131.5 30q70 0 116 -15l-5 -26q-54 16 -112 16q-81 0 -114.5 -23t-44.5 -70
q-7 -32 2 -50.5t34.5 -30.5t67.5 -27q49 -16 82 -32t47 -41t4 -69q-15 -70 -64 -98t-130 -28z" />
    <glyph glyph-name="uni1E63" unicode="&#x1e63;" horiz-adv-x="437" 
d="M151 -10q-38 0 -72 5t-60 13l6 26q60 -19 129 -19q76 0 114.5 23.5t49.5 77.5q8 38 -3 57t-40 31.5t-76 29.5q-36 14 -66.5 26.5t-45.5 36t-6 68.5q13 59 55.5 89t131.5 30q70 0 116 -15l-5 -26q-54 16 -112 16q-81 0 -114.5 -23t-44.5 -70q-7 -32 2 -50.5t34.5 -30.5
t67.5 -27q49 -16 82 -32t47 -41t4 -69q-15 -70 -64 -98t-130 -28zM135 -139l8 37h37l-8 -37h-37z" />
    <glyph glyph-name="germandbls" unicode="&#xdf;" horiz-adv-x="614" 
d="M302 -10q-38 0 -75 5t-64 17l6 26q29 -13 65 -18t74 -5q81 0 132.5 45.5t69.5 129.5q10 47 3.5 83t-38.5 56.5t-99 20.5h-91l5 25h98q49 0 83 20.5t54 54t28 70.5q9 43 0.5 78t-46.5 55.5t-119 20.5q-198 0 -239 -190l-102 -484h-28l103 488q22 101 90 156.5t181 55.5
q78 0 123 -23.5t60 -64t4 -92.5q-12 -58 -46 -98.5t-79 -57.5q51 -13 74.5 -57t7.5 -117q-20 -95 -80.5 -147.5t-154.5 -52.5z" />
    <glyph glyph-name="t" unicode="t" horiz-adv-x="333" 
d="M178 -10q-56 0 -81 33t-12 91l71 334h-77l5 26h77l28 132l30 10l-30 -142h143l-7 -26h-141l-71 -334q-10 -48 6.5 -73.5t69.5 -25.5q12 0 27.5 2.5t34.5 8.5l-5 -26q-16 -4 -33 -7t-35 -3z" />
    <glyph glyph-name="tbar" unicode="&#x167;" horiz-adv-x="343" 
d="M178 -10q-56 0 -81 33t-12 91l28 131h-65l5 25h65l38 178h-77l5 26h77l28 132l30 10l-30 -142h143l-7 -26h-141l-38 -178h155l-5 -25h-155l-28 -131q-10 -48 6.5 -73.5t69.5 -25.5q12 0 27.5 2.5t34.5 8.5l-5 -26q-16 -4 -33 -7t-35 -3z" />
    <glyph glyph-name="tcaron" unicode="&#x165;" horiz-adv-x="355" 
d="M351 561l57 153h33l-68 -153h-22zM178 -10q-56 0 -81 33t-12 91l71 334h-77l5 26h77l28 132l30 10l-30 -142h143l-7 -26h-141l-71 -334q-10 -48 6.5 -73.5t69.5 -25.5q12 0 27.5 2.5t34.5 8.5l-5 -26q-16 -4 -33 -7t-35 -3z" />
    <glyph glyph-name="uni0163" unicode="&#x163;" horiz-adv-x="387" 
d="M97 -240q-16 0 -33 2.5t-28 5.5l6 25q26 -8 62 -8q53 0 83 17t39 57q8 36 -12 50.5t-73 14.5h-28l38 68q-42 8 -59.5 39.5t-6.5 82.5l71 334h-77l5 26h77l28 132l30 10l-30 -142h143l-7 -26h-141l-71 -334q-10 -48 6.5 -73.5t69.5 -25.5q12 0 27.5 2.5t34.5 8.5l-5 -26
q-16 -4 -33 -7t-35 -3l-24 -43q53 0 80.5 -21t18.5 -65q-10 -49 -47 -75t-109 -26z" />
    <glyph glyph-name="uni021B" unicode="&#x21b;" horiz-adv-x="343" 
d="M178 -10q-56 0 -81 33t-12 91l71 334h-77l5 26h77l28 132l30 10l-30 -142h143l-7 -26h-141l-71 -334q-10 -48 6.5 -73.5t69.5 -25.5q12 0 27.5 2.5t34.5 8.5l-5 -26q-16 -4 -33 -7t-35 -3zM99 -190l57 153h33l-68 -153h-22z" />
    <glyph glyph-name="uni1E97" unicode="&#x1e97;" horiz-adv-x="343" 
d="M141 649l7 35h35l-7 -35h-35zM298 649l7 35h35l-7 -35h-35zM178 -10q-56 0 -81 33t-12 91l71 334h-77l5 26h77l28 132l30 10l-30 -142h143l-7 -26h-141l-71 -334q-10 -48 6.5 -73.5t69.5 -25.5q12 0 27.5 2.5t34.5 8.5l-5 -26q-16 -4 -33 -7t-35 -3z" />
    <glyph glyph-name="uni1E6D" unicode="&#x1e6d;" horiz-adv-x="343" 
d="M178 -10q-56 0 -81 33t-12 91l71 334h-77l5 26h77l28 132l30 10l-30 -142h143l-7 -26h-141l-71 -334q-10 -48 6.5 -73.5t69.5 -25.5q12 0 27.5 2.5t34.5 8.5l-5 -26q-16 -4 -33 -7t-35 -3zM134 -139l8 37h37l-8 -37h-37z" />
    <glyph glyph-name="uni1E6F" unicode="&#x1e6f;" horiz-adv-x="365" 
d="M178 -10q-56 0 -81 33t-12 91l71 334h-77l5 26h77l28 132l30 10l-30 -142h143l-7 -26h-141l-71 -334q-10 -48 6.5 -73.5t69.5 -25.5q12 0 27.5 2.5t34.5 8.5l-5 -26q-16 -4 -33 -7t-35 -3zM1 -101l5 25h266l-5 -25h-266z" />
    <glyph glyph-name="u" unicode="u" horiz-adv-x="549" 
d="M191 -10q-85 0 -119.5 48.5t-16.5 135.5l64 300h28l-64 -300q-17 -79 9.5 -119t116.5 -40q60 0 107.5 22.5t86.5 55.5l81 381h28l-100 -474h-23l8 62q-45 -34 -91.5 -53t-114.5 -19z" />
    <glyph glyph-name="uacute" unicode="&#xfa;" horiz-adv-x="549" 
d="M306 522l95 149h30l-102 -149h-23zM191 -10q-85 0 -119.5 48.5t-16.5 135.5l64 300h28l-64 -300q-17 -79 9.5 -119t116.5 -40q60 0 107.5 22.5t86.5 55.5l81 381h28l-100 -474h-23l8 62q-45 -34 -91.5 -53t-114.5 -19z" />
    <glyph glyph-name="ubreve" unicode="&#x16d;" horiz-adv-x="549" 
d="M335 522q-40 0 -62 27.5t-13 67.5h23q-7 -30 9 -50t46 -20q31 0 55 20t31 50h27q-9 -40 -42 -67.5t-74 -27.5zM191 -10q-85 0 -119.5 48.5t-16.5 135.5l64 300h28l-64 -300q-17 -79 9.5 -119t116.5 -40q60 0 107.5 22.5t86.5 55.5l81 381h28l-100 -474h-23l8 62
q-45 -34 -91.5 -53t-114.5 -19z" />
    <glyph glyph-name="uni01D4" unicode="&#x1d4;" horiz-adv-x="549" 
d="M314 522l-69 122h27l59 -104l103 104h31l-121 -122h-30zM191 -10q-85 0 -119.5 48.5t-16.5 135.5l64 300h28l-64 -300q-17 -79 9.5 -119t116.5 -40q60 0 107.5 22.5t86.5 55.5l81 381h28l-100 -474h-23l8 62q-45 -34 -91.5 -53t-114.5 -19z" />
    <glyph glyph-name="ucircumflex" unicode="&#xfb;" horiz-adv-x="549" 
d="M217 522l120 122h30l69 -122h-27l-59 104l-103 -104h-30zM191 -10q-85 0 -119.5 48.5t-16.5 135.5l64 300h28l-64 -300q-17 -79 9.5 -119t116.5 -40q60 0 107.5 22.5t86.5 55.5l81 381h28l-100 -474h-23l8 62q-45 -34 -91.5 -53t-114.5 -19z" />
    <glyph glyph-name="udieresis" unicode="&#xfc;" horiz-adv-x="549" 
d="M234 552l7 35h35l-7 -35h-35zM391 552l7 35h35l-7 -35h-35zM191 -10q-85 0 -119.5 48.5t-16.5 135.5l64 300h28l-64 -300q-17 -79 9.5 -119t116.5 -40q60 0 107.5 22.5t86.5 55.5l81 381h28l-100 -474h-23l8 62q-45 -34 -91.5 -53t-114.5 -19z" />
    <glyph glyph-name="uni01D8" unicode="&#x1d8;" horiz-adv-x="549" 
d="M328 592l81 109h29l-88 -109h-22zM235 522l7 35h35l-7 -35h-35zM392 522l7 35h35l-7 -35h-35zM191 -10q-85 0 -119.5 48.5t-16.5 135.5l64 300h28l-64 -300q-17 -79 9.5 -119t116.5 -40q60 0 107.5 22.5t86.5 55.5l81 381h28l-100 -474h-23l8 62q-45 -34 -91.5 -53
t-114.5 -19z" />
    <glyph glyph-name="uni01DA" unicode="&#x1da;" horiz-adv-x="549" 
d="M324 592l-73 102h29l63 -86l98 86h29l-116 -102h-30zM229 522l7 35h35l-7 -35h-35zM386 522l7 35h34l-7 -35h-34zM191 -10q-85 0 -119.5 48.5t-16.5 135.5l64 300h28l-64 -300q-17 -79 9.5 -119t116.5 -40q60 0 107.5 22.5t86.5 55.5l81 381h28l-100 -474h-23l8 62
q-45 -34 -91.5 -53t-114.5 -19z" />
    <glyph glyph-name="uni01DC" unicode="&#x1dc;" horiz-adv-x="549" 
d="M338 592l-40 109h29l33 -109h-22zM233 522l7 35h35l-7 -35h-35zM390 522l7 35h35l-7 -35h-35zM191 -10q-85 0 -119.5 48.5t-16.5 135.5l64 300h28l-64 -300q-17 -79 9.5 -119t116.5 -40q60 0 107.5 22.5t86.5 55.5l81 381h28l-100 -474h-23l8 62q-45 -34 -91.5 -53
t-114.5 -19z" />
    <glyph glyph-name="uni01D6" unicode="&#x1d6;" horiz-adv-x="549" 
d="M237 693l6 25h266l-6 -25h-266zM243 552l7 35h35l-7 -35h-35zM400 552l7 35h35l-7 -35h-35zM191 -10q-85 0 -119.5 48.5t-16.5 135.5l64 300h28l-64 -300q-17 -79 9.5 -119t116.5 -40q60 0 107.5 22.5t86.5 55.5l81 381h28l-100 -474h-23l8 62q-45 -34 -91.5 -53
t-114.5 -19z" />
    <glyph glyph-name="uni1EE5" unicode="&#x1ee5;" horiz-adv-x="549" 
d="M191 -10q-85 0 -119.5 48.5t-16.5 135.5l64 300h28l-64 -300q-17 -79 9.5 -119t116.5 -40q60 0 107.5 22.5t86.5 55.5l81 381h28l-100 -474h-23l8 62q-45 -34 -91.5 -53t-114.5 -19zM161 -139l8 37h37l-8 -37h-37z" />
    <glyph glyph-name="ugrave" unicode="&#xf9;" horiz-adv-x="549" 
d="M321 522l-38 149h30l31 -149h-23zM191 -10q-85 0 -119.5 48.5t-16.5 135.5l64 300h28l-64 -300q-17 -79 9.5 -119t116.5 -40q60 0 107.5 22.5t86.5 55.5l81 381h28l-100 -474h-23l8 62q-45 -34 -91.5 -53t-114.5 -19z" />
    <glyph glyph-name="uni1EE7" unicode="&#x1ee7;" horiz-adv-x="549" 
d="M309 522l16 75q43 2 65 10t31.5 22.5t13.5 34.5q6 29 -9.5 44.5t-65.5 15.5q-16 0 -36.5 -3.5t-34.5 -8.5l5 25q14 5 36 8.5t37 3.5q53 0 77 -22t16 -63q-9 -39 -33 -60t-78 -26l-12 -56h-28zM191 -10q-85 0 -119.5 48.5t-16.5 135.5l64 300h28l-64 -300
q-17 -79 9.5 -119t116.5 -40q60 0 107.5 22.5t86.5 55.5l81 381h28l-100 -474h-23l8 62q-45 -34 -91.5 -53t-114.5 -19z" />
    <glyph glyph-name="uhorn" unicode="&#x1b0;" horiz-adv-x="635" 
d="M191 -10q-81 0 -117.5 48.5t-18.5 135.5l64 300h28l-64 -300q-16 -77 11.5 -118t117.5 -41q56 0 104 22.5t87 55.5l81 381h28l-14 -67q55 3 84.5 31.5t44.5 97.5h25q-18 -85 -58 -117t-101 -36l-81 -383h-23l8 62q-45 -34 -91.5 -53t-114.5 -19z" />
    <glyph glyph-name="uni1EE9" unicode="&#x1ee9;" horiz-adv-x="635" 
d="M327 522l95 149h30l-102 -149h-23zM191 -10q-81 0 -117.5 48.5t-18.5 135.5l64 300h28l-64 -300q-16 -77 11.5 -118t117.5 -41q56 0 104 22.5t87 55.5l81 381h28l-14 -67q55 3 84.5 31.5t44.5 97.5h25q-18 -85 -58 -117t-101 -36l-81 -383h-23l8 62q-45 -34 -91.5 -53
t-114.5 -19z" />
    <glyph glyph-name="uni1EF1" unicode="&#x1ef1;" horiz-adv-x="635" 
d="M191 -10q-81 0 -117.5 48.5t-18.5 135.5l64 300h28l-64 -300q-16 -77 11.5 -118t117.5 -41q56 0 104 22.5t87 55.5l81 381h28l-14 -67q55 3 84.5 31.5t44.5 97.5h25q-18 -85 -58 -117t-101 -36l-81 -383h-23l8 62q-45 -34 -91.5 -53t-114.5 -19zM167 -139l8 37h37l-8 -37
h-37z" />
    <glyph glyph-name="uni1EEB" unicode="&#x1eeb;" horiz-adv-x="635" 
d="M333 522l-38 149h30l31 -149h-23zM191 -10q-81 0 -117.5 48.5t-18.5 135.5l64 300h28l-64 -300q-16 -77 11.5 -118t117.5 -41q56 0 104 22.5t87 55.5l81 381h28l-14 -67q55 3 84.5 31.5t44.5 97.5h25q-18 -85 -58 -117t-101 -36l-81 -383h-23l8 62q-45 -34 -91.5 -53
t-114.5 -19z" />
    <glyph glyph-name="uni1EED" unicode="&#x1eed;" horiz-adv-x="635" 
d="M319 522l16 75q43 2 65 10t31.5 22.5t13.5 34.5q6 29 -9.5 44.5t-65.5 15.5q-16 0 -36.5 -3.5t-34.5 -8.5l5 25q14 5 36 8.5t37 3.5q53 0 77 -22t16 -63q-9 -39 -33 -60t-78 -26l-12 -56h-28zM191 -10q-81 0 -117.5 48.5t-18.5 135.5l64 300h28l-64 -300
q-16 -77 11.5 -118t117.5 -41q56 0 104 22.5t87 55.5l81 381h28l-14 -67q55 3 84.5 31.5t44.5 97.5h25q-18 -85 -58 -117t-101 -36l-81 -383h-23l8 62q-45 -34 -91.5 -53t-114.5 -19z" />
    <glyph glyph-name="uni1EEF" unicode="&#x1eef;" horiz-adv-x="635" 
d="M412 552q-23 0 -41.5 9t-35.5 18t-36 9q-21 0 -41.5 -7t-40.5 -27l6 31q14 14 35.5 21t42.5 7q25 0 42 -9t33.5 -18t37.5 -9q22 0 40 7.5t36 26.5l-7 -31q-26 -28 -71 -28zM191 -10q-81 0 -117.5 48.5t-18.5 135.5l64 300h28l-64 -300q-16 -77 11.5 -118t117.5 -41
q56 0 104 22.5t87 55.5l81 381h28l-14 -67q55 3 84.5 31.5t44.5 97.5h25q-18 -85 -58 -117t-101 -36l-81 -383h-23l8 62q-45 -34 -91.5 -53t-114.5 -19z" />
    <glyph glyph-name="uhungarumlaut" unicode="&#x171;" horiz-adv-x="549" 
d="M203 522l89 129h29l-96 -129h-22zM394 522l90 129h29l-97 -129h-22zM191 -10q-85 0 -119.5 48.5t-16.5 135.5l64 300h28l-64 -300q-17 -79 9.5 -119t116.5 -40q60 0 107.5 22.5t86.5 55.5l81 381h28l-100 -474h-23l8 62q-45 -34 -91.5 -53t-114.5 -19z" />
    <glyph glyph-name="umacron" unicode="&#x16b;" horiz-adv-x="549" 
d="M206 552l6 25h266l-6 -25h-266zM191 -10q-85 0 -119.5 48.5t-16.5 135.5l64 300h28l-64 -300q-17 -79 9.5 -119t116.5 -40q60 0 107.5 22.5t86.5 55.5l81 381h28l-100 -474h-23l8 62q-45 -34 -91.5 -53t-114.5 -19z" />
    <glyph glyph-name="uogonek" unicode="&#x173;" horiz-adv-x="570" 
d="M346 -220q-34 0 -54.5 19t-10.5 66q9 41 39.5 78t64.5 57l12 62q-45 -34 -91.5 -53t-114.5 -19q-85 0 -119.5 48.5t-16.5 135.5l64 300h28l-64 -300q-17 -79 9.5 -119t116.5 -40q60 0 107.5 22.5t86.5 55.5l81 381h28l-100 -474q-45 -29 -70.5 -64.5t-33.5 -70.5
q-7 -31 1.5 -45.5t41.5 -14.5q13 0 27 3t24 8l-5 -25q-12 -6 -26 -8.5t-25 -2.5z" />
    <glyph glyph-name="uring" unicode="&#x16f;" horiz-adv-x="549" 
d="M328 522q-43 0 -63 27.5t-12 67.5q8 41 40 68.5t75 27.5t63.5 -27.5t12.5 -68.5q-8 -40 -40 -67.5t-76 -27.5zM333 547q31 0 55 20t31 50q6 31 -4.5 51t-51.5 20q-30 0 -54.5 -20t-30.5 -51q-7 -30 5 -50t50 -20zM191 -10q-85 0 -119.5 48.5t-16.5 135.5l64 300h28
l-64 -300q-17 -79 9.5 -119t116.5 -40q60 0 107.5 22.5t86.5 55.5l81 381h28l-100 -474h-23l8 62q-45 -34 -91.5 -53t-114.5 -19z" />
    <glyph glyph-name="utilde" unicode="&#x169;" horiz-adv-x="549" 
d="M410 552q-23 0 -41.5 9t-35.5 18t-36 9q-21 0 -41.5 -7t-40.5 -27l6 31q14 14 35.5 21t42.5 7q25 0 42 -9t33.5 -18t37.5 -9q22 0 40 7.5t36 26.5l-7 -31q-26 -28 -71 -28zM191 -10q-85 0 -119.5 48.5t-16.5 135.5l64 300h28l-64 -300q-17 -79 9.5 -119t116.5 -40
q60 0 107.5 22.5t86.5 55.5l81 381h28l-100 -474h-23l8 62q-45 -34 -91.5 -53t-114.5 -19z" />
    <glyph glyph-name="v" unicode="v" horiz-adv-x="529" 
d="M189 0l-85 474h28l78 -458l274 458h29l-284 -474h-40z" />
    <glyph glyph-name="w" unicode="w" horiz-adv-x="702" 
d="M127 0l-23 474h29l18 -454l218 406l10 48h24l47 -454l208 454h28l-222 -474h-35l-43 411l-220 -411h-39z" />
    <glyph glyph-name="wacute" unicode="&#x1e83;" horiz-adv-x="702" 
d="M393 522l95 149h30l-102 -149h-23zM127 0l-23 474h29l18 -454l218 406l10 48h24l47 -454l208 454h28l-222 -474h-35l-43 411l-220 -411h-39z" />
    <glyph glyph-name="wcircumflex" unicode="&#x175;" horiz-adv-x="702" 
d="M299 522l120 122h30l69 -122h-27l-59 104l-103 -104h-30zM127 0l-23 474h29l18 -454l218 406l10 48h24l47 -454l208 454h28l-222 -474h-35l-43 411l-220 -411h-39z" />
    <glyph glyph-name="wdieresis" unicode="&#x1e85;" horiz-adv-x="702" 
d="M319 552l7 35h35l-7 -35h-35zM476 552l7 35h35l-7 -35h-35zM127 0l-23 474h29l18 -454l218 406l10 48h24l47 -454l208 454h28l-222 -474h-35l-43 411l-220 -411h-39z" />
    <glyph glyph-name="wgrave" unicode="&#x1e81;" horiz-adv-x="702" 
d="M389 522l-38 149h30l31 -149h-23zM127 0l-23 474h29l18 -454l218 406l10 48h24l47 -454l208 454h28l-222 -474h-35l-43 411l-220 -411h-39z" />
    <glyph glyph-name="x" unicode="x" horiz-adv-x="488" 
d="M-7 0l229 241l-124 233h31l112 -213l202 213h31l-220 -233l127 -241h-31l-117 223l-210 -223h-30z" />
    <glyph glyph-name="y" unicode="y" horiz-adv-x="548" 
d="M164 -176q-25 0 -58 3t-50 7l6 26q20 -7 50.5 -9t49.5 -2q87 0 146.5 37.5t72.5 103.5l20 92q-30 -22 -58.5 -38.5t-63.5 -25t-83 -8.5q-77 0 -116 45t-20 139l59 280h28l-59 -280q-17 -82 12.5 -120.5t115.5 -38.5q56 0 104 22.5t88 55.5l76 361h28l-103 -484
q-10 -51 -46 -88t-88 -57.5t-111 -20.5z" />
    <glyph glyph-name="yacute" unicode="&#xfd;" horiz-adv-x="549" 
d="M314 522l95 149h30l-102 -149h-23zM164 -176q-25 0 -58 3t-50 7l6 26q20 -7 50.5 -9t49.5 -2q87 0 146.5 37.5t72.5 103.5l20 92q-30 -22 -58.5 -38.5t-63.5 -25t-83 -8.5q-77 0 -116 45t-20 139l59 280h28l-59 -280q-17 -82 12.5 -120.5t115.5 -38.5q56 0 104 22.5
t88 55.5l76 361h28l-103 -484q-10 -51 -46 -88t-88 -57.5t-111 -20.5z" />
    <glyph glyph-name="ycircumflex" unicode="&#x177;" horiz-adv-x="549" 
d="M230 522l120 122h30l69 -122h-27l-59 104l-103 -104h-30zM164 -176q-25 0 -58 3t-50 7l6 26q20 -7 50.5 -9t49.5 -2q87 0 146.5 37.5t72.5 103.5l20 92q-30 -22 -58.5 -38.5t-63.5 -25t-83 -8.5q-77 0 -116 45t-20 139l59 280h28l-59 -280q-17 -82 12.5 -120.5
t115.5 -38.5q56 0 104 22.5t88 55.5l76 361h28l-103 -484q-10 -51 -46 -88t-88 -57.5t-111 -20.5z" />
    <glyph glyph-name="ydieresis" unicode="&#xff;" horiz-adv-x="549" 
d="M253 552l7 35h35l-7 -35h-35zM410 552l7 35h35l-7 -35h-35zM164 -176q-25 0 -58 3t-50 7l6 26q20 -7 50.5 -9t49.5 -2q87 0 146.5 37.5t72.5 103.5l20 92q-30 -22 -58.5 -38.5t-63.5 -25t-83 -8.5q-77 0 -116 45t-20 139l59 280h28l-59 -280q-17 -82 12.5 -120.5
t115.5 -38.5q56 0 104 22.5t88 55.5l76 361h28l-103 -484q-10 -51 -46 -88t-88 -57.5t-111 -20.5z" />
    <glyph glyph-name="uni1E8F" unicode="&#x1e8f;" horiz-adv-x="549" 
d="M327 552l7 35h35l-7 -35h-35zM164 -176q-25 0 -58 3t-50 7l6 26q20 -7 50.5 -9t49.5 -2q87 0 146.5 37.5t72.5 103.5l20 92q-30 -22 -58.5 -38.5t-63.5 -25t-83 -8.5q-77 0 -116 45t-20 139l59 280h28l-59 -280q-17 -82 12.5 -120.5t115.5 -38.5q56 0 104 22.5t88 55.5
l76 361h28l-103 -484q-10 -51 -46 -88t-88 -57.5t-111 -20.5z" />
    <glyph glyph-name="uni1EF5" unicode="&#x1ef5;" horiz-adv-x="549" 
d="M164 -176q-25 0 -58 3t-50 7l6 26q20 -7 50.5 -9t49.5 -2q87 0 146.5 37.5t72.5 103.5l20 92q-30 -22 -58.5 -38.5t-63.5 -25t-83 -8.5q-77 0 -116 45t-20 139l59 280h28l-59 -280q-17 -82 12.5 -120.5t115.5 -38.5q56 0 104 22.5t88 55.5l76 361h28l-103 -484
q-10 -51 -46 -88t-88 -57.5t-111 -20.5zM411 -119l8 37h37l-8 -37h-37z" />
    <glyph glyph-name="ygrave" unicode="&#x1ef3;" horiz-adv-x="549" 
d="M334 522l-38 149h30l31 -149h-23zM164 -176q-25 0 -58 3t-50 7l6 26q20 -7 50.5 -9t49.5 -2q87 0 146.5 37.5t72.5 103.5l20 92q-30 -22 -58.5 -38.5t-63.5 -25t-83 -8.5q-77 0 -116 45t-20 139l59 280h28l-59 -280q-17 -82 12.5 -120.5t115.5 -38.5q56 0 104 22.5
t88 55.5l76 361h28l-103 -484q-10 -51 -46 -88t-88 -57.5t-111 -20.5z" />
    <glyph glyph-name="uni1EF7" unicode="&#x1ef7;" horiz-adv-x="549" 
d="M323 522l16 75q43 2 65 10t31.5 22.5t13.5 34.5q6 29 -9.5 44.5t-65.5 15.5q-16 0 -36.5 -3.5t-34.5 -8.5l5 25q14 5 36 8.5t37 3.5q53 0 77 -22t16 -63q-9 -39 -33 -60t-78 -26l-12 -56h-28zM164 -176q-25 0 -58 3t-50 7l6 26q20 -7 50.5 -9t49.5 -2q87 0 146.5 37.5
t72.5 103.5l20 92q-30 -22 -58.5 -38.5t-63.5 -25t-83 -8.5q-77 0 -116 45t-20 139l59 280h28l-59 -280q-17 -82 12.5 -120.5t115.5 -38.5q56 0 104 22.5t88 55.5l76 361h28l-103 -484q-10 -51 -46 -88t-88 -57.5t-111 -20.5z" />
    <glyph glyph-name="uni1EF9" unicode="&#x1ef9;" horiz-adv-x="549" 
d="M408 552q-23 0 -41.5 9t-35.5 18t-36 9q-21 0 -41.5 -7t-40.5 -27l6 31q14 14 35.5 21t42.5 7q25 0 42 -9t33.5 -18t37.5 -9q22 0 40 7.5t36 26.5l-7 -31q-26 -28 -71 -28zM164 -176q-25 0 -58 3t-50 7l6 26q20 -7 50.5 -9t49.5 -2q87 0 146.5 37.5t72.5 103.5l20 92
q-30 -22 -58.5 -38.5t-63.5 -25t-83 -8.5q-77 0 -116 45t-20 139l59 280h28l-59 -280q-17 -82 12.5 -120.5t115.5 -38.5q56 0 104 22.5t88 55.5l76 361h28l-103 -484q-10 -51 -46 -88t-88 -57.5t-111 -20.5z" />
    <glyph glyph-name="z" unicode="z" horiz-adv-x="475" 
d="M4 0l4 23l409 425h-303l5 26h333l-5 -24l-407 -424h323l-5 -26h-354z" />
    <glyph glyph-name="zacute" unicode="&#x17a;" horiz-adv-x="475" 
d="M296 522l95 149h30l-102 -149h-23zM4 0l4 23l409 425h-303l5 26h333l-5 -24l-407 -424h323l-5 -26h-354z" />
    <glyph glyph-name="zcaron" unicode="&#x17e;" horiz-adv-x="475" 
d="M278 522l-69 122h27l59 -104l103 104h31l-121 -122h-30zM4 0l4 23l409 425h-303l5 26h333l-5 -24l-407 -424h323l-5 -26h-354z" />
    <glyph glyph-name="zdotaccent" unicode="&#x17c;" horiz-adv-x="475" 
d="M298 552l7 35h35l-7 -35h-35zM4 0l4 23l409 425h-303l5 26h333l-5 -24l-407 -424h323l-5 -26h-354z" />
    <glyph glyph-name="uni1E93" unicode="&#x1e93;" horiz-adv-x="475" 
d="M4 0l4 23l409 425h-303l5 26h333l-5 -24l-407 -424h323l-5 -26h-354zM151 -139l8 37h37l-8 -37h-37z" />
    <glyph glyph-name="ordfeminine" unicode="&#xaa;" horiz-adv-x="350" 
d="M179 380q-36 0 -61.5 17.5t-17.5 57.5q18 82 119 82h101l4 21q8 38 -3.5 55t-69.5 17q-22 0 -42.5 -3.5t-40.5 -10.5l6 25q37 13 89 13t76 -21.5t13 -70.5l-37 -176h-24l5 36q-49 -42 -117 -42zM189 404q35 0 61 10.5t51 34.5l14 64h-102q-40 0 -60 -14t-27 -44
q-6 -28 9.5 -39.5t53.5 -11.5z" />
    <glyph glyph-name="ordmasculine" unicode="&#xba;" horiz-adv-x="362" 
d="M205 380q-59 0 -82.5 35t-9.5 102t51 102t100 35q59 0 82 -35t9 -102t-50 -102t-100 -35zM211 405q53 0 80 28.5t38 83.5q12 55 -1.5 83.5t-69.5 28.5q-52 0 -80 -28.5t-40 -83.5q-11 -55 3 -83.5t70 -28.5z" />
    <glyph glyph-name="uni207F" unicode="&#x207f;" horiz-adv-x="365" 
d="M91 386l55 262h24l-4 -34q24 18 53 29t66 11q47 0 70 -22t12 -71l-37 -175h-26l35 165q9 44 -4 61.5t-64 17.5q-31 0 -59.5 -12t-51.5 -31l-42 -201h-27z" />
    <glyph glyph-name="uni0394" unicode="&#x394;" horiz-adv-x="658" 
d="M4 0l4 22l377 622h46l114 -623l-4 -21h-537zM41 25h474l-109 603z" />
    <glyph glyph-name="uni03A9" unicode="&#x3a9;" horiz-adv-x="774" 
d="M11 0l5 25h193q-46 34 -81.5 82t-50 111.5t2.5 142.5q20 93 73 168.5t135 120.5t190 45q101 0 165 -45t87.5 -120.5t3.5 -168.5q-25 -119 -99 -203t-172 -133h193l-5 -25h-241l4 23q117 58 193.5 143.5t99.5 194.5q19 89 -1.5 158.5t-79 110t-153.5 40.5
q-91 0 -167 -40.5t-128 -110t-71 -158.5q-23 -109 14 -195.5t135 -142.5l-4 -23h-241z" />
    <glyph glyph-name="uni03BC" unicode="&#x3bc;" horiz-adv-x="554" 
d="M-7 -143l131 617h28l-64 -300q-17 -80 13 -119.5t116 -39.5q56 0 104 22.5t87 55.5l81 381h28l-100 -474h-23l8 62q-45 -34 -91.5 -53t-114.5 -19q-47 0 -83 19t-48 56l-44 -208h-28z" />
    <glyph glyph-name="pi" unicode="&#x3c0;" horiz-adv-x="649" 
d="M474 -10q-109 0 -83 124l71 334h-274l-95 -448h-28l95 448h-71l5 26h472l-5 -26h-71l-71 -334q-10 -48 1 -73.5t66 -25.5q12 0 27 2.5t34 8.5l-5 -26q-16 -4 -33 -7t-35 -3z" />
    <glyph glyph-name="uni0E01" unicode="&#xe01;" horiz-adv-x="593" 
d="M43 0l56 267q8 37 36 64t70 38l-118 25l14 64q41 36 107 64t150 28q114 0 154 -50.5t21 -137.5l-76 -362h-28l77 365q19 88 -18.5 124t-135.5 36q-67 0 -127.5 -22.5t-97.5 -54.5l-8 -35l118 -25l-7 -33q-41 -7 -68 -30t-35 -61l-56 -264h-28z" />
    <glyph glyph-name="uni0E02" unicode="&#xe02;" horiz-adv-x="541" 
d="M206 -10q-92 0 -134 45t-23 136l24 112q5 26 26.5 53t47.5 53.5t46.5 50t24.5 41.5q4 20 -1 26.5t-26 6.5h-78l8 26h81q29 0 39 -16t4 -42q-6 -25 -26.5 -50t-46 -50t-46.5 -51.5t-27 -54.5l-24 -114q-16 -78 18.5 -112.5t118.5 -34.5q77 0 130 34.5t69 112.5l80 378h28
l-78 -369q-19 -91 -76 -136t-159 -45z" />
    <glyph glyph-name="uni0E03" unicode="&#xe03;" horiz-adv-x="524" 
d="M199 -10q-186 0 -147 181l22 102q6 26 28.5 53.5t50.5 54.5t50.5 52.5t27.5 47.5q6 33 -25 33q-17 0 -36 -8t-35 -20l-8 -37h-28l19 91h28l-6 -28q14 10 32.5 19t41.5 9q26 0 38 -15.5t6 -43.5q-6 -27 -28.5 -53.5t-50.5 -53t-50.5 -53.5t-28.5 -54l-22 -105
q-17 -82 16 -114.5t111 -32.5q70 0 121 33t68 114l80 378h28l-78 -369q-19 -91 -73.5 -136t-151.5 -45z" />
    <glyph glyph-name="uni0E04" unicode="&#xe04;" horiz-adv-x="583" 
d="M24 0l77 366q20 93 79 138.5t172 45.5q104 0 148 -45.5t24 -138.5l-77 -366h-28l79 373q17 80 -19.5 116t-131.5 36q-89 0 -144 -36t-72 -116l-33 -152q37 23 74.5 36t74.5 13h68l-3 -26h-71q-40 0 -75 -13t-73 -37l-41 -194h-28z" />
    <glyph glyph-name="uni0E05" unicode="&#xe05;" horiz-adv-x="583" 
d="M24 0l90 428q14 61 51 91.5t89 30.5q30 0 51 -11.5t34 -39.5q23 28 56.5 39.5t63.5 11.5q47 0 69 -31.5t9 -90.5l-90 -428h-28l90 428q11 51 -1.5 74t-59.5 23q-27 0 -55 -13t-50 -40h-16q-11 27 -28 40t-44 13q-48 0 -75 -24t-38 -73l-44 -207q37 23 74.5 36t74.5 13h68
l-3 -26h-71q-40 0 -75 -13t-73 -37l-41 -194h-28z" />
    <glyph glyph-name="uni0E06" unicode="&#xe06;" horiz-adv-x="566" 
d="M250 -10q-50 0 -84.5 11.5t-59 31t-46.5 44.5l-21 -77h-23l55 263q6 26 29 55t51.5 58t51.5 56t28 49q3 17 -2.5 25t-22.5 8t-36 -8t-35 -20l-8 -37h-28l19 91h28l-6 -28q14 10 32.5 19t41.5 9q24 0 37.5 -15.5t6.5 -43.5q-7 -29 -30 -57.5t-51 -56t-50.5 -55.5
t-28.5 -55l-32 -149q32 -40 74 -66.5t107 -26.5q82 0 128.5 39.5t62.5 119.5l78 366h28l-76 -360q-20 -95 -73.5 -142.5t-144.5 -47.5z" />
    <glyph glyph-name="uni0E07" unicode="&#xe07;" horiz-adv-x="507" 
d="M181 -10q-11 0 -31 1t-31 6l-73 371h29l70 -353q106 -12 177.5 58.5t102.5 216.5q17 80 13.5 129t-34 71.5t-94.5 22.5h-29l5 27h28q107 0 136 -60.5t2 -188.5q-22 -107 -64 -173.5t-95.5 -97t-111.5 -30.5z" />
    <glyph glyph-name="uni0E08" unicode="&#xe08;" horiz-adv-x="542" 
d="M202 -10q-13 0 -26 1.5t-21 5.5l-42 257h-56l8 26h73l43 -265q51 -8 106.5 15.5t102 84t68.5 163.5q26 122 -7 184.5t-147 62.5q-41 0 -93 -5.5t-95 -19.5l5 26q38 12 84.5 18t96.5 6q129 0 170 -70.5t13 -201.5q-31 -143 -107.5 -215.5t-175.5 -72.5z" />
    <glyph glyph-name="uni0E09" unicode="&#xe09;" horiz-adv-x="554" 
d="M177 -10q-84 0 -116 46t-12 144l25 120h28l-27 -126q-11 -52 -5.5 -87.5t34.5 -53.5t88 -18q65 0 118.5 26.5t101.5 66.5l55 257q19 86 -17 123t-147 37q-43 0 -97 -7.5t-97 -21.5l5 26q38 12 94 20t108 8q107 0 153.5 -44t25.5 -141l-77 -365h-23l11 77
q-47 -38 -101 -62.5t-128 -24.5z" />
    <glyph glyph-name="uni0E0A" unicode="&#xe0a;" horiz-adv-x="551" 
d="M211 -10q-92 0 -136.5 45t-25.5 136l24 112q5 26 26.5 53t47.5 53.5t46.5 50t24.5 41.5q4 20 -1 26.5t-26 6.5h-78l8 26h81q29 0 38.5 -16t4.5 -42q-5 -23 -25.5 -48t-46.5 -51t-47 -53t-27 -54l-24 -114q-16 -78 22 -112.5t120 -34.5t135 34.5t69 112.5l16 74
q15 69 -3 99.5t-82 30.5h-27l9 26h27q47 0 73.5 15t40.5 43.5t22 68.5l6 31h28l-6 -31q-11 -58 -33 -93t-76 -49q47 -19 53.5 -54t-4.5 -86l-14 -66q-39 -181 -240 -181z" />
    <glyph glyph-name="uni0E0B" unicode="&#xe0b;" horiz-adv-x="544" 
d="M209 -10q-92 0 -134 45t-23 136l22 102q6 27 29 54.5t51 54t50 52t27 47.5q6 33 -25 33q-17 0 -36 -8t-35 -20l-8 -37h-28l19 91h28l-6 -28q14 10 32.5 19t41.5 9q26 0 38 -15.5t6 -43.5q-6 -27 -28.5 -53.5t-50.5 -53t-50.5 -53.5t-28.5 -54l-22 -105q-17 -81 20 -114
t117 -33q79 0 131 34.5t68 112.5l16 74q16 74 -2.5 102t-82.5 28h-27l9 26h27q68 0 95.5 33t40.5 94l6 31h28l-6 -31q-11 -52 -33 -90t-76 -52q49 -19 54.5 -53t-5.5 -87l-14 -66q-19 -91 -76.5 -136t-158.5 -45z" />
    <glyph glyph-name="uni0E0C" unicode="&#xe0c;" horiz-adv-x="944" 
d="M638 -10q-71 0 -111 24.5t-69 62.5l-21 -77h-23l77 365q19 88 -14 124t-130 36q-67 0 -125 -22.5t-95 -54.5l-8 -35l118 -25l-7 -33q-39 -8 -67 -30.5t-36 -60.5l-38 -178q-7 -31 2.5 -45.5t41.5 -14.5h61l-5 -26h-66q-40 0 -55 23.5t-7 62.5l38 181q8 37 36 64t70 38
l-118 25l14 64q41 36 104.5 64t147.5 28q76 0 116 -23t51 -65t-2 -100l-54 -254q29 -41 67 -67t104 -26q77 0 120 37t61 122l78 366h28l-76 -360q-21 -99 -70 -144.5t-138 -45.5z" />
    <glyph glyph-name="uni0E0D" unicode="&#xe0d;" horiz-adv-x="958" 
d="M605 -50q-54 0 -100.5 11t-75.5 30l5 27q32 -21 78.5 -32t97.5 -11q95 0 141.5 22.5t55.5 65.5q5 22 1 36.5t-20 23.5q-29 -21 -65.5 -32t-89.5 -11q-208 0 -165 201l18 84q19 88 -11.5 124t-127.5 36q-67 0 -125 -22.5t-95 -54.5l-8 -35l118 -25l-7 -33
q-39 -8 -67 -30.5t-36 -60.5l-38 -178q-7 -31 2.5 -45.5t37.5 -14.5h65l-5 -26h-66q-40 0 -55 23.5t-7 62.5l38 181q8 37 36 64t70 38l-118 25l14 64q41 36 104.5 64t147.5 28q75 0 114 -23t49 -65t-3 -100l-19 -90q-18 -85 16 -126t128 -41q89 0 142 41t71 126l57 268h28
l-55 -259q-10 -50 -27.5 -82t-43.5 -57q19 -12 24.5 -33t0.5 -46q-11 -51 -63.5 -82t-166.5 -31z" />
    <glyph glyph-name="uni0E0D.less" horiz-adv-x="958" 
d="M613 -10q-106 0 -145.5 51t-18.5 150l37 174q19 88 -13 124t-126 36q-67 0 -125 -22.5t-95 -54.5l-8 -35l118 -25l-7 -33q-39 -8 -67 -30.5t-36 -60.5l-38 -178q-7 -31 2.5 -45.5t37.5 -14.5h65l-5 -26h-66q-38 0 -54 23.5t-8 62.5l38 181q8 37 36 64t70 38l-118 25
l14 64q41 36 104.5 64t147.5 28q109 0 144 -50.5t16 -137.5l-38 -180q-18 -85 15 -126t129 -41q92 0 143.5 41t69.5 126l76 358h28l-74 -349q-22 -103 -78.5 -152t-170.5 -49z" />
    <glyph glyph-name="uni0E0E" unicode="&#xe0e;" horiz-adv-x="641" 
d="M96 -194l6 26q47 21 92.5 31t90.5 10q54 0 91 -11t65 -30l113 533q19 88 -19.5 124t-134.5 36q-67 0 -130 -22.5t-100 -54.5l-8 -35l118 -25l-7 -33q-40 -10 -59.5 -30.5t-27.5 -60.5l-38 -178q-8 -39 -30.5 -62.5t-62.5 -23.5h-51l5 26h46q29 0 43.5 14.5t21.5 45.5
l38 181q8 37 29 64t61 38l-118 25l14 64q41 36 109.5 64t152.5 28q114 0 154 -50.5t21 -137.5l-118 -556h-26q-34 21 -70 31.5t-88 10.5q-49 0 -89.5 -9.5t-93.5 -32.5z" />
    <glyph glyph-name="uni0E0E.short" horiz-adv-x="641" 
d="M111 -124l6 26q91 41 182 41q54 0 91.5 -11t65.5 -30l98 463q19 88 -20.5 124t-133.5 36q-67 0 -130 -22.5t-100 -54.5l-8 -35l118 -25l-7 -33q-40 -10 -59.5 -30.5t-27.5 -60.5l-38 -178q-8 -39 -30 -62.5t-63 -23.5h-51l5 26h46q29 0 43.5 14.5t21.5 45.5l38 181
q8 40 29 65.5t61 36.5l-118 25l14 64q41 36 109.5 64t152.5 28q114 0 154 -50.5t21 -137.5l-103 -486h-26q-34 21 -70 31.5t-88 10.5q-49 0 -89.5 -9.5t-93.5 -32.5z" />
    <glyph glyph-name="uni0E0F" unicode="&#xe0f;" horiz-adv-x="641" 
d="M354 -194q-34 0 -53.5 12t-30.5 30q-13 -19 -40 -30t-62 -11h-76l10 26h73q29 0 50 8.5t43 33.5h11q11 -21 30 -32.5t49 -11.5q44 0 68 20.5t34 69.5l94 444q19 88 -20.5 124t-133.5 36q-67 0 -130 -22.5t-100 -54.5l-8 -35l118 -25l-7 -33q-40 -10 -59.5 -30.5
t-27.5 -60.5l-38 -178q-8 -39 -31.5 -62.5t-61.5 -23.5h-51l5 26h46q52 0 65 60l38 181q8 37 29 64t61 38l-118 25l14 64q41 36 109.5 64t152.5 28q114 0 154 -50.5t21 -137.5l-94 -442q-12 -59 -47 -86.5t-86 -27.5z" />
    <glyph glyph-name="uni0E0F.short" horiz-adv-x="641" 
d="M369 -124q-34 0 -54.5 12t-29.5 30q-13 -19 -40 -30t-62 -11h-76l10 26h73q29 0 50 8.5t43 33.5h11q11 -21 28.5 -32.5t49.5 -11.5q44 0 68.5 20.5t34.5 69.5l79 374q19 88 -20 124t-134 36q-67 0 -130 -22.5t-100 -54.5l-8 -35l118 -25l-7 -33q-40 -10 -59.5 -30.5
t-27.5 -60.5l-38 -178q-8 -39 -31.5 -62.5t-61.5 -23.5h-51l5 26h46q52 0 65 60l38 181q8 37 29 64t61 38l-118 25l14 64q41 36 109.5 64t152.5 28q114 0 154 -50.5t21 -137.5l-79 -372q-12 -59 -47 -86.5t-86 -27.5z" />
    <glyph glyph-name="uni0E10" unicode="&#xe10;" horiz-adv-x="573" 
d="M202 -10q-13 0 -26 1.5t-21 5.5l-42 257h-56l8 26h73l43 -265q51 -8 106.5 15.5t102 84t68.5 163.5q26 122 -7 184.5t-147 62.5q-41 0 -93 -5.5t-95 -19.5l5 26q38 12 84.5 18t96.5 6q24 0 44.5 -2.5t38.5 -7.5h186l-7 -26h-127q45 -33 55.5 -91.5t-7.5 -144.5
q-31 -143 -107.5 -215.5t-175.5 -72.5zM248 -194q-32 0 -54 12t-30 30q-13 -19 -40 -30t-62 -11h-76l10 26h73q29 0 50 8.5t43 33.5h11q11 -21 28.5 -32.5t50.5 -11.5q47 0 69.5 21.5t32.5 70.5l5 21h28l-5 -21q-13 -63 -47 -90t-87 -27z" />
    <glyph glyph-name="uni0E10.less" horiz-adv-x="573" 
d="M202 -10q-13 0 -26 1.5t-21 5.5l-42 257h-56l8 26h73l43 -265q51 -8 106.5 15.5t102 84t68.5 163.5q26 122 -7 184.5t-147 62.5q-41 0 -93 -5.5t-95 -19.5l5 26q38 12 84.5 18t96.5 6q24 0 44.5 -2.5t38.5 -7.5h186l-7 -26h-127q45 -33 55.5 -91.5t-7.5 -144.5
q-31 -143 -107.5 -215.5t-175.5 -72.5z" />
    <glyph glyph-name="uni0E11" unicode="&#xe11;" horiz-adv-x="566" 
d="M36 0l55 263q6 27 26 55.5t44.5 57.5t44.5 56t25 49q6 33 -25 33q-17 0 -36 -8t-35 -20l-8 -37h-28l19 91h28l-6 -28q14 10 32.5 19t41.5 9q39 0 44 -32q31 19 65.5 30.5t71.5 11.5q84 0 108 -45.5t4 -140.5l-77 -364h-28l78 370q12 54 9.5 88t-26.5 50.5t-78 16.5
q-31 0 -65.5 -11.5t-61.5 -32.5q-6 -27 -25.5 -55t-44 -56.5t-44.5 -57t-26 -55.5l-54 -257h-28z" />
    <glyph glyph-name="uni0E12" unicode="&#xe12;" horiz-adv-x="965" 
d="M203 -10q-95 0 -134 68t-8 214q29 132 77.5 205t125.5 73q35 0 53.5 -11.5t38.5 -39.5q32 28 62 39.5t62 11.5q44 0 66.5 -25.5t9.5 -86.5l-71 -330q32 -40 69.5 -66.5t101.5 -26.5q76 0 119.5 37.5t61.5 121.5l78 366h28l-76 -360q-21 -99 -70 -144.5t-138 -45.5
q-68 0 -108.5 24.5t-71.5 62.5l-21 -77h-23l93 438q10 49 -4.5 68t-54.5 19q-27 0 -55.5 -13t-52.5 -40h-16q-16 27 -33 40t-50 13q-44 0 -77 -32.5t-57 -89.5t-40 -131q-30 -141 4.5 -199t124.5 -58q18 0 36 2t33 6l-5 -26q-31 -7 -78 -7z" />
    <glyph glyph-name="uni0E13" unicode="&#xe13;" horiz-adv-x="944" 
d="M573 -10q-161 0 -121 190l39 185q19 88 -13.5 124t-130.5 36q-67 0 -125 -22.5t-95 -54.5l-8 -35l118 -25l-7 -33q-39 -8 -67 -30.5t-36 -60.5l-38 -178q-7 -31 2 -45.5t42 -14.5h61l-5 -26h-66q-40 0 -55 23.5t-7 62.5l38 181q8 37 36 64t70 38l-118 25l14 64
q41 36 104.5 64t147.5 28q76 0 116 -23t51 -65t-2 -100l-40 -188q-16 -79 5.5 -119t104.5 -40q61 0 113.5 26.5t100.5 66.5l92 432h28l-114 -540h-23l11 77q-47 -38 -100 -62.5t-123 -24.5z" />
    <glyph glyph-name="uni0E14" unicode="&#xe14;" horiz-adv-x="619" 
d="M203 -10q-95 0 -134 68t-8 214q18 84 55.5 146.5t101.5 97t159 34.5q80 0 122.5 -28.5t55.5 -75t1 -101.5l-73 -345h-28l74 352q10 47 0 86.5t-47.5 63t-110.5 23.5q-87 0 -144 -32.5t-90 -89.5t-49 -131q-29 -138 3 -197.5t126 -59.5q18 0 36 2t33 6l-5 -26
q-31 -7 -78 -7z" />
    <glyph glyph-name="uni0E15" unicode="&#xe15;" horiz-adv-x="619" 
d="M203 -10q-94 0 -133.5 68t-8.5 214q29 132 80.5 205t127.5 73q35 0 56.5 -12.5t40.5 -38.5q30 28 64.5 39.5t64.5 11.5q45 0 69.5 -25.5t11.5 -86.5l-93 -438h-28l93 438q10 49 -3.5 68t-58.5 19q-27 0 -59 -13t-56 -40h-16q-16 27 -35.5 40t-52.5 13q-45 0 -79.5 -32.5
t-59 -89.5t-40.5 -131q-30 -141 4 -199t125 -58q18 0 36 2t33 6l-5 -26q-31 -7 -78 -7z" />
    <glyph glyph-name="uni0E16" unicode="&#xe16;" horiz-adv-x="593" 
d="M123 0q-40 0 -55 23.5t-7 62.5l38 181q8 37 36 64t70 38l-118 25l14 64q41 36 109.5 64t152.5 28q113 0 151 -50.5t19 -137.5l-76 -362h-28l77 365q19 88 -17.5 124t-131.5 36q-67 0 -130 -22.5t-100 -54.5l-8 -35l118 -25l-7 -33q-39 -8 -67 -30.5t-36 -60.5l-38 -178
q-7 -31 3 -45.5t41 -14.5h61l-5 -26h-66z" />
    <glyph glyph-name="uni0E17" unicode="&#xe17;" horiz-adv-x="574" 
d="M24 0l114 540h23l-11 -77q47 38 100.5 62.5t126.5 24.5q84 0 120.5 -46.5t16.5 -143.5l-76 -360h-28l77 366q17 78 -10 118.5t-112 40.5q-65 0 -119 -26t-103 -67l-91 -432h-28z" />
    <glyph glyph-name="uni0E18" unicode="&#xe18;" horiz-adv-x="510" 
d="M201 -10q-58 0 -105 11t-77 24l44 208h28l-41 -191q32 -11 72 -19t82 -8q80 0 129 29.5t64 98.5q13 60 0 88.5t-48 42t-89 26.5q-31 8 -63 15.5t-58 21t-39 36.5t-4 60q16 68 75 92.5t153 24.5q41 0 88 -7.5t74 -18.5l-6 -26q-31 13 -74 20t-83 7q-82 0 -135 -17.5
t-65 -74.5q-8 -38 10 -57.5t57 -30.5t92 -24q33 -8 63.5 -18t52 -28t29.5 -49.5t-3 -82.5q-17 -82 -74.5 -117.5t-148.5 -35.5z" />
    <glyph glyph-name="uni0E19" unicode="&#xe19;" horiz-adv-x="574" 
d="M193 -10q-171 0 -131 190l76 360h28l-78 -366q-16 -79 10 -119t110 -40q65 0 120.5 26.5t103.5 66.5l92 432h28l-114 -540h-23l11 77q-47 -38 -103 -62.5t-130 -24.5z" />
    <glyph glyph-name="uni0E1A" unicode="&#xe1a;" horiz-adv-x="593" 
d="M238 -10q-217 0 -174 201l74 349h28l-76 -358q-18 -85 19.5 -126t134.5 -41q95 0 150 41t73 126l76 358h28l-74 -349q-21 -99 -82 -150t-177 -51z" />
    <glyph glyph-name="uni0E1B" unicode="&#xe1b;" horiz-adv-x="593" 
d="M238 -10q-217 0 -174 201l74 349h28l-76 -358q-18 -85 19.5 -126t134.5 -41q95 0 150 41t73 126l110 518h28l-108 -509q-21 -99 -82 -150t-177 -51z" />
    <glyph glyph-name="uni0E1C" unicode="&#xe1c;" horiz-adv-x="632" 
d="M24 0l97 458q8 39 32.5 60.5t64.5 21.5h66l-5 -26h-61q-31 0 -47 -14.5t-23 -45.5l-89 -421l267 342h27l122 -342l107 507h28l-114 -540h-36l-124 348l-272 -348h-40z" />
    <glyph glyph-name="uni0E1D" unicode="&#xe1d;" horiz-adv-x="632" 
d="M24 0l97 458q8 39 32.5 60.5t64.5 21.5h66l-5 -26h-61q-31 0 -47 -14.5t-23 -45.5l-89 -421l267 342h27l122 -342l141 667h28l-148 -700h-36l-124 348l-272 -348h-40z" />
    <glyph glyph-name="uni0E1E" unicode="&#xe1e;" horiz-adv-x="694" 
d="M115 0l-7 540h29l3 -512l244 463l10 49h20l39 -512l221 512h28l-234 -540h-36l-36 461l-241 -461h-40z" />
    <glyph glyph-name="uni0E1F" unicode="&#xe1f;" horiz-adv-x="694" 
d="M115 0l-7 540h29l3 -512l244 463l10 49h20l39 -512l288 672h28l-301 -700h-36l-36 461l-241 -461h-40z" />
    <glyph glyph-name="uni0E20" unicode="&#xe20;" horiz-adv-x="636" 
d="M4 0l5 26h46q52 0 65 60l38 181q8 37 29 64t61 38l-118 25l14 64q41 36 109.5 64t152.5 28q114 0 151.5 -50.5t18.5 -137.5l-76 -362h-28l77 365q19 88 -16.5 124t-132.5 36q-70 0 -131.5 -22.5t-98.5 -54.5l-8 -35l118 -25l-7 -33q-40 -10 -59.5 -30.5t-27.5 -60.5
l-38 -178q-8 -39 -31.5 -62.5t-61.5 -23.5h-51z" />
    <glyph glyph-name="uni0E21" unicode="&#xe21;" horiz-adv-x="574" 
d="M258 -10q-73 0 -116 24.5t-74 62.5l-21 -77h-23l114 540h28l-92 -432q31 -43 73.5 -68t107.5 -25q82 0 128.5 39.5t62.5 119.5l78 366h28l-76 -360q-21 -98 -75 -144t-143 -46z" />
    <glyph glyph-name="uni0E22" unicode="&#xe22;" horiz-adv-x="566" 
d="M218 -10q-108 0 -153.5 42t-30.5 112q13 59 46.5 93.5t79.5 47.5q-35 9 -56.5 38t-9.5 86q16 73 63 107t107 34q24 0 41 -2t32 -6l-6 -26q-27 9 -66 9q-52 0 -91 -26t-53 -90q-11 -52 11.5 -82t99.5 -30h59l-2 -26h-67q-64 0 -106 -33t-55 -94q-13 -64 26.5 -96.5
t136.5 -32.5q89 0 143 37t70 116l79 372h28l-79 -375q-18 -84 -78.5 -129.5t-168.5 -45.5z" />
    <glyph glyph-name="uni0E23" unicode="&#xe23;" horiz-adv-x="500" 
d="M181 -10q-44 0 -86.5 5.5t-71.5 18.5l6 26q36 -14 75 -19.5t80 -5.5q82 0 134 23.5t66 92.5q10 45 -5.5 68t-50.5 37t-85 30q-29 9 -59 20t-53.5 27.5t-34.5 42t-3 64.5q14 68 67 99t153 31q39 0 77 -6.5t65 -17.5l-5 -26q-62 25 -138 25q-88 0 -133.5 -23.5t-58.5 -81.5
q-8 -39 4.5 -62.5t47.5 -39t92 -33.5q30 -9 59.5 -20t52.5 -27.5t33.5 -42t2.5 -63.5q-18 -82 -76 -112t-155 -30z" />
    <glyph glyph-name="uni0E24" unicode="&#xe24;" horiz-adv-x="598" 
d="M399 -160l112 525q19 88 -19 124t-135 36q-67 0 -130 -22.5t-100 -54.5l-8 -35l118 -25l-7 -33q-39 -8 -67 -30.5t-36 -60.5l-38 -178q-7 -31 2 -45.5t42 -14.5h61l-5 -26h-66q-40 0 -55 23.5t-7 62.5l38 181q8 37 36 64t70 38l-118 25l14 64q41 36 109.5 64t152.5 28
q114 0 154 -50.5t21 -137.5l-111 -522h-28z" />
    <glyph glyph-name="uni0E24.short" horiz-adv-x="598" 
d="M410 -110l101 475q19 88 -20 124t-134 36q-67 0 -130 -22.5t-100 -54.5l-8 -35l118 -25l-7 -33q-39 -8 -66.5 -28.5t-36.5 -62.5l-38 -178q-7 -31 2.5 -45.5t37.5 -14.5h65l-5 -26h-66q-40 0 -55 23.5t-7 62.5l38 181q9 41 36.5 66t69.5 36l-118 25l14 64q41 36 109.5 64
t152.5 28q114 0 154 -50.5t21 -137.5l-100 -472h-28z" />
    <glyph glyph-name="uni0E25" unicode="&#xe25;" horiz-adv-x="570" 
d="M172 -10q-76 0 -115.5 36.5t-22.5 115.5q16 74 70 115t163 41h202l14 65q12 58 6 93.5t-39.5 52t-104.5 16.5q-46 0 -90.5 -5.5t-87.5 -19.5l5 26q38 12 84.5 18t96.5 6q107 0 143 -44t15 -141l-77 -365h-28l57 272h-200q-94 0 -141 -32.5t-61 -97.5q-14 -64 14.5 -95.5
t110.5 -31.5q18 0 36 2t33 6l-5 -26q-31 -7 -78 -7z" />
    <glyph glyph-name="uni0E26" unicode="&#xe26;" horiz-adv-x="641" 
d="M442 -160l112 525q19 88 -19 124t-135 36q-67 0 -130 -22.5t-100 -54.5l-8 -35l118 -25l-7 -33q-40 -10 -59.5 -30.5t-27.5 -60.5l-38 -178q-8 -39 -30.5 -62.5t-62.5 -23.5h-51l5 26h46q28 0 43 14.5t22 45.5l38 181q8 37 29 64t61 38l-118 25l14 64q41 36 109.5 64
t152.5 28q114 0 154 -50.5t21 -137.5l-111 -522h-28z" />
    <glyph glyph-name="uni0E26.short" horiz-adv-x="641" 
d="M453 -110l101 475q19 88 -19.5 124t-134.5 36q-67 0 -130 -22.5t-100 -54.5l-8 -35l118 -25l-7 -33q-40 -10 -59.5 -30.5t-27.5 -60.5l-38 -178q-8 -39 -31.5 -62.5t-61.5 -23.5h-51l5 26h46q52 0 65 60l38 181q8 37 29 64t61 38l-118 25l14 64q41 36 109.5 64t152.5 28
q114 0 154 -50.5t21 -137.5l-100 -472h-28z" />
    <glyph glyph-name="uni0E27" unicode="&#xe27;" horiz-adv-x="476" 
d="M131 -10q-39 0 -70 6.5t-55 17.5l6 26q25 -11 55.5 -18t62.5 -7q85 0 135.5 28.5t78.5 85t46 141.5t11 141.5t-47 85t-122 28.5q-34 0 -62.5 -6t-59.5 -19l5 26q28 12 55 18t70 6q125 0 165.5 -70t11.5 -210q-18 -87 -48.5 -150t-86.5 -96.5t-151 -33.5z" />
    <glyph glyph-name="uni0E28" unicode="&#xe28;" horiz-adv-x="612" 
d="M24 0l77 366q20 96 81.5 140t169.5 44q53 0 87 -10h171l-7 -26h-117q61 -44 38 -148l-77 -366h-28l79 373q17 80 -17.5 116t-133.5 36q-93 0 -146 -37t-70 -115l-33 -152q37 23 73 36t76 13h68l-3 -26h-71q-41 0 -75.5 -13t-72.5 -37l-41 -194h-28z" />
    <glyph glyph-name="uni0E29" unicode="&#xe29;" horiz-adv-x="616" 
d="M238 -10q-217 0 -174 201l74 349h28l-76 -358q-18 -85 19.5 -126t134.5 -41q95 0 150 41t73 126l23 108h-171l6 26h170l48 224h28l-48 -224h69l-10 -26h-64l-21 -99q-21 -99 -82 -150t-177 -51z" />
    <glyph glyph-name="uni0E2A" unicode="&#xe2a;" horiz-adv-x="595" 
d="M172 -10q-76 0 -115.5 36.5t-22.5 115.5q16 74 70 115t163 41h202l14 65q12 58 6 93.5t-39.5 52t-104.5 16.5q-46 0 -90.5 -5.5t-87.5 -19.5l5 26q38 12 84.5 18t96.5 6q53 0 86 -10h154l-7 -26h-102q28 -22 33 -59t-6 -90l-77 -365h-28l57 272h-200q-94 0 -141 -32.5
t-61 -97.5q-14 -64 14.5 -95.5t110.5 -31.5q18 0 36 2t33 6l-5 -26q-31 -7 -78 -7z" />
    <glyph glyph-name="uni0E2B" unicode="&#xe2b;" horiz-adv-x="578" 
d="M24 0l114 540h28l-40 -189h224q85 0 120.5 33t48.5 94l13 62h28l-13 -62q-11 -54 -39 -91t-85 -51q35 -12 49 -32t14 -48t-7 -63l-41 -193h-28l41 195q11 51 5 79t-33.5 39.5t-83.5 11.5h-218l-69 -325h-28z" />
    <glyph glyph-name="uni0E2C" unicode="&#xe2c;" horiz-adv-x="694" 
d="M115 0l-7 540h29l3 -512l235 423l11 49h20l47 -472l185 432q23 53 15.5 72.5t-49.5 19.5h-39l8 26h37q47 0 71 17t40 57l20 48h28l-21 -49q-19 -44 -41.5 -64t-51.5 -25q24 -10 25 -38t-15 -65l-197 -459h-35l-45 422l-234 -422h-39z" />
    <glyph glyph-name="uni0E2C.short" horiz-adv-x="694" 
d="M115 0l-7 540h29l3 -512l220 353l11 49h20l62 -402l139 324q23 53 15.5 72.5t-49.5 19.5h-39l8 26h37q47 0 71 15.5t40 58.5l14 37h28l-15 -38q-18 -45 -41 -65t-52 -24q46 -20 11 -101l-152 -353h-35l-60 352l-219 -352h-39z" />
    <glyph glyph-name="uni0E2D" unicode="&#xe2d;" horiz-adv-x="539" 
d="M191 -10q-58 0 -105 11t-77 24l55 259h166l-3 -26h-141l-46 -216q29 -12 70.5 -19.5t81.5 -7.5q75 0 125.5 25.5t83.5 82t52 147.5q20 92 12 148t-48.5 81.5t-121.5 25.5q-41 0 -87.5 -5.5t-89.5 -19.5l5 26q38 12 84.5 18t96.5 6q125 0 165.5 -68.5t10.5 -211.5
q-20 -93 -54.5 -155.5t-91.5 -93.5t-143 -31z" />
    <glyph glyph-name="uni0E2E" unicode="&#xe2e;" horiz-adv-x="571" 
d="M191 -10q-58 0 -105 11t-77 24l55 259h166l-3 -26h-141l-46 -216q29 -12 70.5 -19.5t81.5 -7.5q75 0 125.5 25.5t83.5 82t52 147.5q20 92 12 148t-48.5 81.5t-121.5 25.5q-41 0 -87.5 -5.5t-89.5 -19.5l5 26q38 12 84.5 18t96.5 6q24 0 45 -2.5t38 -7.5h182l-7 -26h-123
q44 -34 52.5 -93t-11.5 -151q-20 -93 -54.5 -155.5t-91.5 -93.5t-143 -31z" />
    <glyph glyph-name="uni0E30" unicode="&#xe30;" horiz-adv-x="319" 
d="M80 359l16 76h28l-11 -50h171l-7 -26h-197zM19 74l16 76h28l-10 -50h171l-8 -26h-197z" />
    <glyph glyph-name="uni0E32" unicode="&#xe32;" horiz-adv-x="432" 
d="M267 0l77 366q12 53 8 88.5t-33 53t-95 17.5q-31 0 -70.5 -6.5t-73.5 -18.5l5 26q32 11 71.5 17.5t77.5 6.5q92 0 126.5 -41.5t12.5 -142.5l-77 -366h-29z" />
    <glyph glyph-name="uni0E33" unicode="&#xe33;" horiz-adv-x="432" 
d="M-11 618q-36 0 -55.5 25.5t-12.5 62.5q8 37 36 62.5t70 25.5q37 0 57 -25.5t12 -62.5q-7 -37 -36.5 -62.5t-70.5 -25.5zM-5 643q28 0 49.5 19t26.5 44q5 26 -5.5 44.5t-43.5 18.5q-28 0 -49.5 -18.5t-26.5 -44.5q-5 -25 5.5 -44t43.5 -19zM267 0l77 366q12 53 8 88.5
t-33 53t-95 17.5q-31 0 -70.5 -6.5t-73.5 -18.5l5 26q32 11 71.5 17.5t77.5 6.5q92 0 126.5 -41.5t12.5 -142.5l-77 -366h-29z" />
    <glyph glyph-name="uni0E40" unicode="&#xe40;" horiz-adv-x="266" 
d="M104 0q-40 0 -55 23.5t-7 62.5l96 454h28l-96 -454q-7 -31 3 -45.5t41 -14.5h41l-5 -26h-46z" />
    <glyph glyph-name="uni0E41" unicode="&#xe41;" horiz-adv-x="468" 
d="M306 0q-40 0 -55 23.5t-7 62.5l96 454h28l-96 -454q-7 -31 2 -45.5t42 -14.5h41l-5 -26h-46zM104 0q-40 0 -55 23.5t-7 62.5l96 454h28l-96 -454q-7 -31 3 -45.5t41 -14.5h41l-5 -26h-46z" />
    <glyph glyph-name="uni0E42" unicode="&#xe42;" horiz-adv-x="284" 
d="M152 0q-40 0 -55 23.5t-7 62.5l107 512q11 49 4.5 78t-27.5 48.5t-55 37.5l7 32h246l-6 -26h-208q45 -25 64 -62t3 -111l-107 -509q-7 -31 2.5 -45.5t41.5 -14.5h41l-5 -26h-46z" />
    <glyph glyph-name="uni0E43" unicode="&#xe43;" horiz-adv-x="269" 
d="M92 0q-40 0 -55 23.5t-7 62.5l79 373q10 45 31 75.5t46.5 51.5t50.5 37.5t43.5 34.5t23.5 43q9 40 -8 55.5t-64 15.5q-28 0 -58.5 -7.5t-62.5 -24.5l5 26q31 17 63 24t60 7q113 0 92 -96q-6 -29 -25 -49.5t-44 -38t-50.5 -37.5t-46 -47t-28.5 -67l-79 -376
q-7 -31 2.5 -45.5t41.5 -14.5h41l-5 -26h-46z" />
    <glyph glyph-name="uni0E44" unicode="&#xe44;" horiz-adv-x="276" 
d="M124 0q-40 0 -55 23.5t-7 62.5l105 487q16 74 56.5 121t92.5 74h-203l6 26h241l-7 -31q-63 -28 -102.5 -74t-55.5 -117l-105 -486q-7 -31 3 -45.5t41 -14.5h41l-5 -26h-46z" />
    <glyph glyph-name="uni0E45" unicode="&#xe45;" horiz-adv-x="432" 
d="M232 -160l112 526q12 53 8 88.5t-33 53t-95 17.5q-31 0 -70.5 -6.5t-73.5 -18.5l5 26q32 11 71.5 17.5t77.5 6.5q92 0 126.5 -41.5t12.5 -142.5l-112 -526h-29z" />
    <glyph glyph-name="uni210A" unicode="&#x210a;" horiz-adv-x="554" 
d="M170 -176q-25 0 -58 3t-50 7l6 26q20 -7 50.5 -9t49.5 -2q84 0 144.5 35.5t74.5 101.5l14 68q-41 -28 -82 -41t-98 -13q-65 0 -109.5 22t-60.5 73t2 137q28 130 96 191t168 61q56 0 95 -16t67 -51l16 57h23l-103 -488q-11 -51 -48 -87t-89 -55.5t-108 -19.5zM233 25
q53 0 95 15.5t79 42.5l65 305q-54 71 -155 71q-100 0 -157 -58.5t-80 -168.5q-25 -115 15 -161t138 -46z" />
    <glyph glyph-name="zero" unicode="0" horiz-adv-x="632" 
d="M257 -10q-86 0 -134.5 40t-61 111.5t7.5 165.5q23 108 61.5 185.5t103.5 119.5t165 42q95 0 142 -42t55 -119.5t-15 -185.5q-20 -94 -61 -165.5t-105.5 -111.5t-157.5 -40zM263 15q83 0 141.5 39t95.5 105.5t54 147.5q22 102 18 174t-45.5 110t-133.5 38q-87 0 -145 -38
t-94 -110t-58 -174q-13 -61 -13 -114t17.5 -93t57 -62.5t105.5 -22.5z" />
    <glyph glyph-name="one" unicode="1" horiz-adv-x="268" 
d="M104 0l133 626l-104 -19l5 26l133 21l-139 -654h-28z" />
    <glyph glyph-name="two" unicode="2" horiz-adv-x="492" 
d="M4 0l5 24q26 46 64 85.5t82.5 75t88.5 67.5q65 48 106 84t63.5 71t31.5 78t0.5 75t-41 50.5t-96.5 18.5q-34 0 -73 -6t-77 -19l5 26q29 11 70 17.5t77 6.5q95 0 137 -44.5t25 -124.5q-11 -52 -39 -91.5t-69.5 -74.5t-95.5 -76q-67 -51 -128 -100.5t-101 -117.5h342
l-5 -25h-372z" />
    <glyph glyph-name="three" unicode="3" horiz-adv-x="498" 
d="M155 -10q-46 0 -86 7t-63 17l6 26q33 -13 68.5 -19t80.5 -6q197 0 230 156q31 144 -148 144h-84l11 25h71q86 0 136.5 39.5t66.5 110.5q14 68 -17.5 103.5t-130.5 35.5q-39 0 -78 -7t-74 -18l5 26q26 10 69 17t83 7q110 0 148 -45t22 -119q-7 -34 -27.5 -68t-53.5 -60
t-80 -35q74 -13 96.5 -57t11.5 -99q-39 -181 -263 -181z" />
    <glyph glyph-name="four" unicode="4" horiz-adv-x="531" 
d="M335 0l34 162h-351l7 32l445 450h29l-97 -457h72l-5 -25h-72l-34 -162h-28zM49 187h325l89 419z" />
    <glyph glyph-name="five" unicode="5" horiz-adv-x="501" 
d="M159 -10q-45 0 -86 6.5t-64 17.5l6 26q32 -13 68 -19t83 -6q95 0 154 44t77 127q12 54 5.5 90t-40.5 53.5t-107 17.5h-178l8 37l72 260h314l-10 -25h-287l-68 -247h145q115 0 154 -45.5t19 -140.5q-20 -94 -86 -145t-179 -51z" />
    <glyph glyph-name="six" unicode="6" horiz-adv-x="553" 
d="M218 -10q-102 0 -147.5 54.5t-18.5 183.5l35 165q26 120 100.5 190.5t190.5 70.5q44 0 77.5 -5t57.5 -13l-6 -26q-24 9 -57.5 14t-77.5 5q-72 0 -124.5 -31t-85 -83.5t-46.5 -118.5l-14 -66q53 35 109 50.5t98 15.5q102 0 146 -52t23 -150q-20 -93 -85 -148.5t-175 -55.5
zM223 15q95 0 153 49t75 130q12 54 4 93.5t-44 61.5t-111 22q-49 0 -104.5 -19t-99.5 -48l-20 -96q-20 -95 13 -144t134 -49z" />
    <glyph glyph-name="seven" unicode="7" horiz-adv-x="492" 
d="M101 0l392 619h-368l5 25h392l-6 -32l-388 -612h-27z" />
    <glyph glyph-name="eight" unicode="8" horiz-adv-x="566" 
d="M224 -10q-105 0 -154.5 43.5t-31.5 128.5q14 63 58.5 110.5t120.5 60.5q-64 17 -83 58.5t-9 91.5q17 78 79.5 124.5t161.5 46.5q100 0 142 -46.5t25 -124.5q-11 -54 -49.5 -98t-116.5 -64q74 -16 102.5 -55t14.5 -104q-18 -85 -85 -128.5t-175 -43.5zM327 332
q80 17 123 51.5t56 99.5q15 70 -18 108t-128 38q-82 0 -137.5 -38t-70.5 -108q-11 -52 9 -86t84 -48zM230 15q91 0 151 37t76 110q14 65 -13 94.5t-101 45.5l-92 19q-71 -12 -120.5 -49t-65.5 -110q-15 -72 23 -109.5t142 -37.5z" />
    <glyph glyph-name="nine" unicode="9" horiz-adv-x="553" 
d="M204 -10q-43 0 -79.5 5t-60.5 13l6 26q24 -10 60.5 -14.5t79.5 -4.5q70 0 121 31t83.5 83.5t46.5 116.5l13 63q-53 -35 -103.5 -50.5t-100.5 -15.5q-106 0 -149.5 52t-22.5 150q20 93 86.5 151t179.5 58q106 0 147 -55t14 -183l-35 -165q-25 -120 -99 -190.5t-187 -70.5z
M278 268q55 0 106.5 18.5t95.5 48.5l21 101q21 101 -10.5 147t-131.5 46q-94 0 -155.5 -51.5t-78.5 -132.5q-11 -54 -3.5 -94t44.5 -61.5t112 -21.5z" />
    <glyph glyph-name="uni2080" unicode="&#x2080;" horiz-adv-x="345" 
d="M89 -128q-58 0 -77 39t-6 100q15 71 46.5 112t98.5 41q64 0 79.5 -41t0.5 -112q-13 -61 -46.5 -100t-95.5 -39zM94 -106q50 0 76 34t36 83q13 62 4 96.5t-63 34.5q-52 0 -77.5 -34.5t-38.5 -96.5q-7 -33 -5.5 -59.5t17 -42t51.5 -15.5z" />
    <glyph glyph-name="uni2081" unicode="&#x2081;" horiz-adv-x="201" 
d="M56 -120l55 261l-81 -18l4 21l105 20l-60 -284h-23z" />
    <glyph glyph-name="uni2082" unicode="&#x2082;" horiz-adv-x="292" 
d="M-22 -120l4 20q19 31 46.5 52.5t59.5 43.5q29 21 44.5 34t23 25.5t11.5 29.5q5 26 -5 41.5t-47 15.5t-73 -11l5 22q12 4 33.5 7.5t38.5 3.5q41 0 60.5 -22t11.5 -57q-7 -33 -28.5 -53.5t-62.5 -49.5q-28 -19 -51.5 -36.5t-40.5 -43.5h147l-5 -22h-172z" />
    <glyph glyph-name="uni2083" unicode="&#x2083;" horiz-adv-x="294" 
d="M43 -128q-19 0 -37 3.5t-27 7.5l4 22q15 -5 30.5 -8t34.5 -3q45 0 66.5 14.5t28.5 45.5q6 29 -11 42t-56 13h-32l10 22h23q39 0 60.5 13.5t28.5 45.5q5 28 -7 40t-56 12q-16 0 -33 -2.5t-33 -7.5l4 22q11 4 30 7t36 3q55 0 72.5 -20t10.5 -54q-5 -23 -21 -43.5t-46 -28.5
q31 -7 40.5 -24t4.5 -40q-9 -40 -38.5 -61t-86.5 -21z" />
    <glyph glyph-name="uni2084" unicode="&#x2084;" horiz-adv-x="294" 
d="M118 -120l14 67h-160l5 24l191 193h33l-41 -195h31l-5 -22h-31l-14 -67h-23zM-1 -31h140l38 180z" />
    <glyph glyph-name="uni2085" unicode="&#x2085;" horiz-adv-x="298" 
d="M43 -128q-42 0 -65 10l5 23q28 -11 66 -11q41 0 66 13.5t32 49.5q8 32 -4 45t-55 13h-81l5 27l31 112h149l-8 -22h-125l-27 -95h60q98 0 80 -80q-9 -40 -40 -62.5t-89 -22.5z" />
    <glyph glyph-name="uni2086" unicode="&#x2086;" horiz-adv-x="319" 
d="M79 -128q-48 0 -70 24.5t-10 80.5l15 72q12 56 47 85.5t88 29.5q20 0 35 -2.5t26 -5.5l-5 -22q-11 4 -25.5 6t-34.5 2q-46 0 -72 -24t-34 -66l-7 -29q24 16 46 22.5t41 6.5q51 0 68 -23t8 -66q-9 -40 -37 -65.5t-79 -25.5zM84 -106q41 0 60 17.5t26 51.5q8 35 -2 51.5
t-56 16.5q-22 0 -43.5 -8.5t-40.5 -21.5l-8 -34q-7 -37 7 -55t57 -18z" />
    <glyph glyph-name="uni2087" unicode="&#x2087;" horiz-adv-x="283" 
d="M22 -120l158 249h-159l5 25h183l-7 -32l-153 -242h-27z" />
    <glyph glyph-name="uni2088" unicode="&#x2088;" horiz-adv-x="324" 
d="M78 -128q-43 0 -68 19.5t-18 56.5q11 53 72 73q-24 11 -31 29t-2 41q7 31 35 52t74 21q44 0 65 -21t14 -52q-5 -24 -18.5 -42t-49.5 -32q34 -10 42 -27t3 -42q-7 -37 -38.5 -56.5t-79.5 -19.5zM124 27q37 11 51 23.5t20 40.5q5 26 -10.5 39t-48.5 13q-31 0 -53.5 -13
t-27.5 -39q-4 -21 2 -35.5t32 -20.5zM83 -107q36 0 60 13.5t29 41.5q5 23 -4.5 36t-41.5 20l-35 8q-31 -8 -49.5 -21.5t-25.5 -42.5q-10 -55 67 -55z" />
    <glyph glyph-name="uni2089" unicode="&#x2089;" horiz-adv-x="319" 
d="M64 -128q-19 0 -34 2.5t-26 5.5l5 22q11 -4 26 -6t34 -2q46 0 71.5 24t34.5 66l6 29q-23 -16 -45 -22.5t-41 -6.5q-50 0 -67.5 23t-8.5 66q8 41 37 66t80 25q50 0 70.5 -24.5t8.5 -80.5l-15 -72q-25 -115 -136 -115zM102 5q22 0 43.5 8.5t40.5 21.5l7 34q8 37 -6 55
t-55 18q-40 0 -60 -17t-28 -52q-7 -35 2.5 -51.5t55.5 -16.5z" />
    <glyph glyph-name="uni2070" unicode="&#x2070;" horiz-adv-x="345" 
d="M193 362q-58 0 -77 39t-6 100q15 71 47 112t99 41q62 0 78 -41t1 -112q-13 -61 -46.5 -100t-95.5 -39zM198 384q50 0 76 34t36 83q13 62 4.5 96.5t-63.5 34.5q-52 0 -77.5 -34.5t-38.5 -96.5q-10 -49 0.5 -83t62.5 -34z" />
    <glyph glyph-name="uni00B9" unicode="&#xb9;" horiz-adv-x="201" 
d="M160 370l55 258l-81 -15l4 21l106 20l-61 -284h-23z" />
    <glyph glyph-name="uni00B2" unicode="&#xb2;" horiz-adv-x="292" 
d="M82 370l4 20q19 31 46.5 52.5t59.5 43.5q30 21 45.5 34t22.5 25.5t11 29.5q5 26 -5 41.5t-47 15.5t-73 -11l5 22q12 4 34 7.5t39 3.5q41 0 60 -22t11 -57q-7 -33 -28.5 -53.5t-62.5 -49.5q-28 -19 -51.5 -36.5t-40.5 -43.5h147l-5 -22h-172z" />
    <glyph glyph-name="uni00B3" unicode="&#xb3;" horiz-adv-x="294" 
d="M147 362q-19 0 -36.5 3.5t-27.5 7.5l4 22q15 -5 30.5 -8t34.5 -3q45 0 66.5 14.5t28.5 45.5q6 29 -10.5 42t-55.5 13h-32l9 22h23q39 0 60.5 13.5t28.5 45.5q6 28 -6.5 40t-56.5 12q-16 0 -33 -2.5t-33 -7.5l4 22q11 4 30.5 7t36.5 3q53 0 71 -20t11 -54
q-5 -23 -21 -43.5t-46 -28.5q30 -7 40 -24t5 -40q-8 -40 -38.5 -61t-86.5 -21z" />
    <glyph glyph-name="uni2074" unicode="&#x2074;" horiz-adv-x="294" 
d="M222 370l14 67h-160l5 24l192 193h33l-42 -195h31l-5 -22h-31l-14 -67h-23zM103 459h140l38 180z" />
    <glyph glyph-name="uni2075" unicode="&#x2075;" horiz-adv-x="298" 
d="M147 362q-19 0 -36.5 3t-27.5 7l4 23q28 -11 66 -11q41 0 66 13.5t33 49.5q7 32 -4.5 45t-57.5 13h-79l6 27l30 112h149l-8 -22h-125l-26 -95h60q50 0 69 -19.5t11 -60.5q-9 -40 -40 -62.5t-90 -22.5z" />
    <glyph glyph-name="uni2076" unicode="&#x2076;" horiz-adv-x="319" 
d="M183 362q-48 0 -70 24.5t-10 80.5l15 72q12 56 48.5 85.5t87.5 29.5q20 0 34.5 -2.5t25.5 -5.5l-5 -22q-11 4 -25.5 6t-34.5 2q-46 0 -71.5 -24t-34.5 -66l-6 -29q23 16 45 22.5t41 6.5q51 0 68 -23t8 -66q-9 -40 -37 -65.5t-79 -25.5zM188 384q41 0 60 17.5t26 51.5
q8 35 -2.5 51.5t-55.5 16.5q-22 0 -43.5 -8.5t-40.5 -21.5l-7 -34q-8 -37 6 -55t57 -18z" />
    <glyph glyph-name="uni2077" unicode="&#x2077;" horiz-adv-x="283" 
d="M126 370l158 249h-159l5 25h183l-6 -32l-154 -242h-27z" />
    <glyph glyph-name="uni2078" unicode="&#x2078;" horiz-adv-x="324" 
d="M182 362q-44 0 -68.5 19.5t-16.5 56.5q10 53 71 73q-26 11 -32 29t-1 41q7 31 34 52t76 21q44 0 64.5 -21t13.5 -52q-5 -24 -18.5 -42t-49.5 -32q34 -10 42.5 -27t3.5 -42q-8 -37 -40 -56.5t-79 -19.5zM228 517q38 11 51.5 23.5t19.5 40.5q11 52 -59 52q-31 0 -53.5 -13
t-27.5 -39q-4 -21 2 -35.5t32 -20.5zM187 383q36 0 60 13.5t30 41.5q5 23 -5 36t-41 20l-36 8q-31 -8 -49.5 -21.5t-24.5 -42.5q-12 -55 66 -55z" />
    <glyph glyph-name="uni2079" unicode="&#x2079;" horiz-adv-x="319" 
d="M168 362q-19 0 -34 2.5t-26 5.5l5 22q11 -4 26 -6t34 -2q46 0 71.5 24t34.5 66l6 29q-23 -16 -45 -22.5t-41 -6.5q-50 0 -67.5 23t-8.5 66q9 41 38 66t80 25q50 0 70 -24.5t8 -80.5l-15 -72q-12 -56 -48.5 -85.5t-87.5 -29.5zM206 495q22 0 43.5 8.5t40.5 21.5l7 34
q8 38 -5 55.5t-56 17.5q-73 0 -88 -69q-7 -35 2.5 -51.5t55.5 -16.5z" />
    <glyph glyph-name="fraction" unicode="&#x2044;" horiz-adv-x="101" 
d="M-176 0l454 662h27l-454 -662h-27z" />
    <glyph glyph-name="onehalf" unicode="&#xbd;" horiz-adv-x="601" 
d="M160 370l56 261l-82 -18l4 21l106 20l-61 -284h-23zM51 0l481 644h27l-481 -644h-27zM313 0l4 20q18 31 46 52.5t59 43.5q30 21 45.5 34t23 25.5t10.5 29.5q5 26 -4 41.5t-48 15.5q-16 0 -35.5 -3t-36.5 -8l5 22q12 4 33.5 7.5t38.5 3.5q42 0 60.5 -22t10.5 -57
q-7 -33 -28.5 -53.5t-62.5 -49.5q-28 -19 -51.5 -36.5t-40.5 -43.5h147l-4 -22h-172z" />
    <glyph glyph-name="uni2153" unicode="&#x2153;" horiz-adv-x="616" 
d="M160 370l56 261l-82 -18l4 21l106 20l-61 -284h-23zM51 0l481 644h27l-481 -644h-27zM390 -10q-19 0 -37 3.5t-27 7.5l4 22q15 -5 30.5 -8t34.5 -3q45 0 66.5 14.5t28.5 45.5q6 29 -11 42t-56 13h-32l10 22h23q39 0 60.5 13.5t28.5 45.5q6 28 -8 40t-55 12
q-16 0 -33 -2.5t-33 -7.5l4 22q11 4 30 7t36 3q53 0 71.5 -20t11.5 -54q-5 -23 -21 -42.5t-46 -27.5q32 -6 41 -24.5t4 -41.5q-8 -40 -38.5 -61t-86.5 -21z" />
    <glyph glyph-name="uni2154" unicode="&#x2154;" horiz-adv-x="633" 
d="M82 370l4 20q19 31 46.5 52.5t59.5 43.5q30 21 45.5 34t22.5 25.5t11 29.5q5 26 -5 41.5t-47 15.5t-73 -11l5 22q12 4 34 7.5t39 3.5q41 0 60 -22t11 -57q-7 -33 -28.5 -53.5t-62.5 -49.5q-28 -19 -51.5 -36.5t-40.5 -43.5h147l-5 -22h-172zM68 0l481 644h27l-481 -644
h-27zM407 -10q-19 0 -37 3.5t-27 7.5l4 22q15 -5 30.5 -8t34.5 -3q45 0 66.5 14.5t28.5 45.5q6 29 -11 42t-56 13h-32l10 22h23q39 0 60.5 13.5t28.5 45.5q6 28 -8 40t-55 12q-16 0 -33 -2.5t-33 -7.5l4 22q11 4 30 7t36 3q53 0 71.5 -20t11.5 -54q-5 -23 -21 -42.5
t-46 -27.5q32 -6 41 -24.5t4 -41.5q-8 -40 -38.5 -61t-86.5 -21z" />
    <glyph glyph-name="onequarter" unicode="&#xbc;" horiz-adv-x="601" 
d="M160 370l56 261l-82 -18l4 21l106 20l-61 -284h-23zM51 0l481 644h27l-481 -644h-27zM431 0l14 67h-160l5 24l191 193h33l-42 -195h31l-4 -22h-31l-14 -67h-23zM313 89h138l39 178z" />
    <glyph glyph-name="threequarters" unicode="&#xbe;" horiz-adv-x="619" 
d="M147 362q-19 0 -36.5 3.5t-27.5 7.5l4 22q15 -5 30.5 -8t34.5 -3q45 0 66.5 14.5t28.5 45.5q6 29 -10.5 42t-55.5 13h-32l9 22h23q39 0 60.5 13.5t28.5 45.5q6 28 -8 40t-55 12q-16 0 -33 -2.5t-33 -7.5l4 22q11 4 30.5 7t36.5 3q53 0 71 -20t11 -54q-5 -23 -21 -42.5
t-46 -27.5q32 -6 41 -24.5t4 -41.5q-17 -82 -125 -82zM69 0l481 644h27l-481 -644h-27zM449 0l14 67h-160l5 24l191 193h33l-42 -195h31l-4 -22h-31l-14 -67h-23zM331 89h138l39 178z" />
    <glyph glyph-name="oneeighth" unicode="&#x215b;" horiz-adv-x="621" 
d="M160 370l56 261l-82 -18l4 21l106 20l-61 -284h-23zM51 0l481 644h27l-481 -644h-27zM400 -10q-46 0 -69.5 19t-16.5 56q6 29 28.5 49.5t54.5 23.5q-30 6 -39.5 25.5t-5.5 43.5q8 34 35 54.5t75 20.5q45 0 65.5 -20.5t12.5 -54.5q-4 -24 -22 -43.5t-51 -25.5
q29 -4 43 -24t8 -49q-7 -37 -39.5 -56t-78.5 -19zM435 152q32 0 53.5 13t27.5 42q6 25 -8 39t-50 14q-35 0 -55.5 -14t-26.5 -39q-6 -29 11 -42t48 -13zM405 12q36 0 59.5 13.5t28.5 39.5q7 30 -11 44.5t-53 14.5t-59 -14.5t-31 -44.5q-11 -53 66 -53z" />
    <glyph glyph-name="threeeighths" unicode="&#x215c;" horiz-adv-x="623" 
d="M147 362q-19 0 -36.5 3.5t-27.5 7.5l4 22q15 -5 30.5 -8t34.5 -3q45 0 66.5 14.5t28.5 45.5q6 29 -10.5 42t-55.5 13h-32l9 22h23q39 0 60.5 13.5t28.5 45.5q6 28 -8 40t-55 12q-16 0 -33 -2.5t-33 -7.5l4 22q11 4 30.5 7t36.5 3q56 0 72.5 -20t9.5 -54q-5 -23 -21 -42.5
t-46 -27.5q32 -6 41 -24.5t4 -41.5q-17 -82 -125 -82zM53 0l481 644h27l-481 -644h-27zM402 -10q-46 0 -69.5 19t-16.5 56q6 29 28.5 49.5t54.5 23.5q-30 6 -39.5 25.5t-5.5 43.5q8 34 36 54.5t74 20.5q47 0 66.5 -20.5t11.5 -54.5q-4 -24 -22 -43.5t-51 -25.5
q31 -3 44 -23.5t7 -49.5q-7 -37 -39.5 -56t-78.5 -19zM437 152q32 0 53.5 13t27.5 42q6 25 -8.5 39t-49.5 14t-55.5 -14t-26.5 -39q-6 -29 11 -42t48 -13zM407 12q36 0 59.5 13.5t28.5 39.5q7 30 -11 44.5t-53 14.5t-59 -14.5t-31 -44.5q-5 -26 12.5 -39.5t53.5 -13.5z" />
    <glyph glyph-name="fiveeighths" unicode="&#x215d;" horiz-adv-x="602" 
d="M32 0l481 644h27l-481 -644h-27zM147 362q-19 0 -36.5 3t-27.5 7l4 23q28 -11 66 -11q41 0 66 13.5t33 49.5q7 32 -5.5 45t-56.5 13h-79l6 27l30 112h149l-8 -22h-125l-26 -95h60q50 0 69 -19.5t11 -60.5q-9 -40 -40.5 -62.5t-89.5 -22.5zM381 -10q-46 0 -69.5 19
t-16.5 56q6 29 28.5 49.5t54.5 23.5q-30 6 -39.5 25.5t-5.5 43.5q8 34 36 54.5t74 20.5q47 0 66.5 -20.5t11.5 -54.5q-4 -24 -22 -43.5t-51 -25.5q31 -3 44 -23.5t7 -49.5q-7 -37 -39.5 -56t-78.5 -19zM416 152q32 0 53.5 13t27.5 42q6 25 -8.5 39t-49.5 14t-55.5 -14
t-26.5 -39q-6 -29 11 -42t48 -13zM386 12q36 0 59.5 13.5t28.5 39.5q7 30 -11 44.5t-53 14.5t-59 -14.5t-31 -44.5q-5 -26 12.5 -39.5t53.5 -13.5z" />
    <glyph glyph-name="seveneighths" unicode="&#x215e;" horiz-adv-x="626" 
d="M56 0l481 644h27l-481 -644h-27zM136 370l158 249h-159l5 25h183l-6 -32l-154 -242h-27zM405 -10q-46 0 -69.5 19t-16.5 56q6 29 28.5 49.5t54.5 23.5q-30 6 -39.5 25.5t-5.5 43.5q8 34 34.5 54.5t75.5 20.5q45 0 65.5 -20.5t12.5 -54.5q-4 -24 -22 -43.5t-51 -25.5
q31 -3 44 -23.5t7 -49.5q-7 -37 -39.5 -56t-78.5 -19zM440 152q32 0 53.5 13t27.5 42q6 25 -8.5 39t-49.5 14t-55.5 -14t-26.5 -39q-6 -29 11 -42t48 -13zM410 12q36 0 59.5 13.5t28.5 39.5q13 59 -64 59q-35 0 -59 -14.5t-31 -44.5q-5 -26 12.5 -39.5t53.5 -13.5z" />
    <glyph glyph-name="uni0E50" unicode="&#xe50;" horiz-adv-x="612" 
d="M247 -10q-115 0 -166.5 63t-26.5 184q26 121 104 184t194 63q114 0 167 -63t27 -184q-25 -121 -102.5 -184t-196.5 -63zM253 15q99 0 170.5 55.5t95.5 166.5q23 111 -21.5 166.5t-150.5 55.5q-100 0 -171.5 -55.5t-94.5 -166.5q-48 -222 172 -222z" />
    <glyph glyph-name="uni0E51" unicode="&#xe51;" horiz-adv-x="642" 
d="M214 -101l6 26q125 26 212 97.5t113 194.5q16 75 4.5 129t-56.5 83.5t-130 29.5q-117 0 -188 -55.5t-92 -155.5q-18 -87 12 -130t117 -43q30 0 60.5 7t49.5 20l-5 -26q-23 -12 -51 -19t-60 -7q-95 0 -132.5 52t-17.5 146q23 110 102.5 173t209.5 63q133 0 181.5 -72
t22.5 -195q-25 -119 -112.5 -202.5t-245.5 -115.5z" />
    <glyph glyph-name="uni0E52" unicode="&#xe52;" horiz-adv-x="677" 
d="M280 -10q-73 0 -126.5 23.5t-77 73t-7.5 128.5l69 325h28l-71 -334q-14 -67 6.5 -109.5t68.5 -62t116 -19.5q61 0 117 18t96 55t52 94l39 183q11 50 -0.5 72t-56.5 22q-27 0 -52.5 -13t-45.5 -40h-18q-13 27 -26 40t-46 13q-40 0 -70 -34.5t-45 -105.5q-13 -66 8 -87.5
t79 -21.5q18 0 36.5 2t33.5 6l-6 -26q-31 -7 -77 -7q-58 0 -87 31.5t-14 102.5q19 87 58.5 126t88.5 39q35 0 51 -12t29 -38q29 28 56.5 39t57.5 11q48 0 68 -28t7 -87l-38 -178q-14 -67 -56.5 -112t-105.5 -67t-139 -22z" />
    <glyph glyph-name="uni0E53" unicode="&#xe53;" horiz-adv-x="619" 
d="M203 -10q-63 0 -104 20.5t-54 72t7 143.5q28 132 76 195t127 63q37 0 59.5 -14t32.5 -40q25 27 59.5 40.5t64.5 13.5q47 0 75.5 -25.5t15.5 -86.5l-79 -372h-28l79 372q10 49 -9.5 68t-64.5 19q-18 0 -41 -7.5t-41.5 -23t-23.5 -40.5l-22 -102h-28l22 101q8 38 -17 55
t-56 17q-71 0 -111 -61t-63 -172q-19 -89 -7.5 -134.5t49 -61t96.5 -15.5q18 0 36 2t33 6l-5 -26q-31 -7 -78 -7z" />
    <glyph glyph-name="uni0E54" unicode="&#xe54;" horiz-adv-x="631" 
d="M226 -10q-103 0 -150.5 62t-23.5 174q26 122 119 190t245 68q50 0 86.5 3t66.5 12.5t60 26.5l-5 -26q-31 -23 -86.5 -32t-126.5 -9q-137 0 -223 -61.5t-109 -171.5q-22 -103 17 -157t137 -54q28 0 54 7t51 23q-32 37 -19 104q12 59 53.5 89.5t102.5 30.5q28 0 47 -4
t31 -12l-5 -26q-10 8 -27.5 12.5t-39.5 4.5q-59 0 -91.5 -22t-43.5 -73q-14 -69 22.5 -96t132.5 -27h39l-5 -26h-44q-91 0 -135 30q-57 -40 -130 -40z" />
    <glyph glyph-name="uni0E55" unicode="&#xe55;" horiz-adv-x="631" 
d="M226 -10q-103 0 -150.5 62t-23.5 174q23 112 105 178t216 78q-17 5 -39 15t-31 17l5 27q16 -11 43 -24.5t58.5 -22.5t60.5 -9q50 0 86.5 10t72.5 31l-5 -26q-31 -23 -86.5 -32t-126.5 -9q-137 0 -223 -61.5t-109 -171.5q-22 -103 17 -157t137 -54q28 0 54 7t51 23
q-32 37 -19 104q12 59 53.5 89.5t102.5 30.5q28 0 47 -4t31 -12l-5 -26q-10 8 -27.5 12.5t-39.5 4.5q-59 0 -91.5 -22t-43.5 -73q-14 -69 22.5 -96t132.5 -27h39l-5 -26h-44q-91 0 -135 30q-57 -40 -130 -40z" />
    <glyph glyph-name="uni0E56" unicode="&#xe56;" horiz-adv-x="648" 
d="M290 -10q-55 0 -104 16.5t-77 47.5l6 26q38 -36 82.5 -50.5t98.5 -14.5q101 0 168.5 57t89.5 163q15 66 7.5 116.5t-44.5 79t-114 28.5q-76 0 -136 -36.5t-107 -129.5h-28l-34 247h26l29 -213q38 71 99.5 114t156.5 43q79 0 122 -32t54.5 -88t-4.5 -129
q-23 -112 -98 -178.5t-193 -66.5z" />
    <glyph glyph-name="uni0E57" unicode="&#xe57;" horiz-adv-x="850" 
d="M203 -10q-61 0 -102 20.5t-55 72t6 143.5q28 132 75.5 195t127.5 63q37 0 59 -14t32 -40q47 54 125 54q47 0 75.5 -25.5t15.5 -86.5l-74 -345h15q94 0 149 37.5t77 138.5l71 337h28l-70 -330q-16 -76 -48.5 -122t-86 -67t-134.5 -21h-34l79 372q10 49 -7.5 68t-66.5 19
q-18 0 -41 -7.5t-41.5 -23t-23.5 -40.5l-22 -102h-28l22 101q8 38 -17 55t-56 17q-71 0 -111 -61t-63 -172q-19 -89 -8 -134.5t48.5 -61t97.5 -15.5q18 0 36 2t33 6l-5 -26q-31 -7 -78 -7z" />
    <glyph glyph-name="uni0E58" unicode="&#xe58;" horiz-adv-x="618" 
d="M153 -10q-76 0 -102 55t2 187q20 93 60.5 148t104.5 79.5t154 24.5q80 0 137 7.5t103 34.5l-5 -26q-44 -26 -103.5 -33.5t-136.5 -7.5q-74 0 -132 -20t-97 -69.5t-58 -137.5q-24 -114 -7.5 -165.5t89.5 -51.5q33 0 66.5 17.5t41.5 54.5l21 101h28l-21 -102q-5 -24 8 -40
t34.5 -23.5t41.5 -7.5q28 0 51.5 5.5t48.5 21.5l44 206h-94l9 26h119l-53 -249q-32 -18 -59.5 -26.5t-70.5 -8.5q-32 0 -60 14t-39 40q-22 -26 -55 -40t-70 -14z" />
    <glyph glyph-name="uni0E59" unicode="&#xe59;" horiz-adv-x="734" 
d="M183 -10q-53 0 -89 24.5t-48 77t6 134.5q28 132 80.5 195t128.5 63q44 0 63.5 -14t29.5 -40q22 30 52.5 42t68.5 12q44 0 71.5 -25.5t14.5 -86.5l-6 -25h10q60 0 95 27.5t50 98.5l10 47h28l-8 -40q-18 -84 -59 -122t-130 -38h-28l10 49q10 49 -5.5 69.5t-64.5 20.5
q-41 0 -71 -22t-27 -54l31 -383h-28l-32 387q-3 38 -19.5 55t-57.5 17q-68 0 -112.5 -61t-67.5 -172q-17 -79 -7 -125t42.5 -66t82.5 -20q18 0 36 2t33 6l-5 -26q-31 -7 -78 -7z" />
    <glyph glyph-name="period" unicode="." horiz-adv-x="153" 
d="M4 0l7 33h33l-7 -33h-33z" />
    <glyph glyph-name="comma" unicode="," horiz-adv-x="177" 
d="M-22 -120l57 153h33l-68 -153h-22z" />
    <glyph glyph-name="colon" unicode=":" horiz-adv-x="155" 
d="M75 336l7 35h35l-7 -35h-35zM11 33l7 35h35l-7 -35h-35z" />
    <glyph glyph-name="semicolon" unicode=";" horiz-adv-x="179" 
d="M99 336l7 35h35l-7 -35h-35zM-15 -85l57 153h33l-68 -153h-22z" />
    <glyph glyph-name="ellipsis" unicode="&#x2026;" horiz-adv-x="521" 
d="M372 0l7 33h33l-7 -33h-33zM4 0l7 33h33l-7 -33h-33zM188 0l7 33h33l-7 -33h-33z" />
    <glyph glyph-name="exclam" unicode="!" horiz-adv-x="153" 
d="M42 139l70 356l31 149h28l-31 -149l-81 -356h-17zM4 0l6 32h33l-6 -32h-33z" />
    <glyph glyph-name="exclamdown" unicode="&#xa1;" horiz-adv-x="153" 
d="M98 442l6 32h33l-6 -32h-33zM-31 -170l32 149l81 356h17l-70 -356l-32 -149h-28z" />
    <glyph glyph-name="question" unicode="?" horiz-adv-x="484" 
d="M159 141l6 25q10 42 31 70.5t48 49t55 39.5q34 23 63.5 44.5t51 48t29.5 65.5q10 46 1.5 78.5t-42.5 50t-101 17.5q-49 0 -91 -9t-80 -26l5 26q32 16 78.5 25t95.5 9q97 0 137.5 -44.5t23.5 -126.5q-8 -40 -29.5 -68.5t-51 -51t-61.5 -44.5q-38 -26 -65.5 -47t-45 -45.5
t-25.5 -62.5l-5 -23h-28zM128 0l6 32h33l-6 -32h-33z" />
    <glyph glyph-name="questiondown" unicode="&#xbf;" horiz-adv-x="484" 
d="M304 442l6 32h33l-6 -32h-33zM162 -180q-97 0 -137.5 44.5t-23.5 126.5q9 41 30 69t50.5 50.5t61.5 44.5q39 27 66 47.5t44.5 45.5t25.5 62l5 23h28l-6 -25q-10 -42 -31 -70.5t-48 -49t-55 -39.5q-33 -23 -63 -44.5t-51 -48t-30 -65.5q-10 -45 -1.5 -78t43 -50.5
t100.5 -17.5q50 0 92 9.5t79 25.5l-5 -26q-31 -16 -78 -25t-96 -9z" />
    <glyph glyph-name="periodcentered" unicode="&#xb7;" horiz-adv-x="153" 
d="M60 267l7 33h33l-7 -33h-33z" />
    <glyph glyph-name="bullet" unicode="&#x2022;" horiz-adv-x="343" 
d="M152 176q-46 0 -71.5 32.5t-15.5 78.5q7 31 27 56.5t48 40.5t59 15q47 0 73 -32.5t16 -79.5q-7 -31 -27.5 -56t-49 -40t-59.5 -15z" />
    <glyph glyph-name="asterisk" unicode="*" horiz-adv-x="414" 
d="M133 358l-20 18l124 116l-118 52l16 23l113 -57l25 134h28l-31 -134l137 57l6 -24l-141 -53l75 -115l-22 -17l-70 122z" />
    <glyph glyph-name="numbersign" unicode="#" horiz-adv-x="689" 
d="M46 0l102 195h-103l5 25h111l107 203h-125l6 26h132l103 195h28l-103 -195h227l103 195h28l-103 -195h104l-6 -26h-111l-107 -203h125l-5 -25h-133l-103 -195h-27l102 195h-227l-103 -195h-27zM189 220h227l107 203h-227z" />
    <glyph glyph-name="slash" unicode="/" horiz-adv-x="381" 
d="M4 0l374 662h27l-374 -662h-27z" />
    <glyph glyph-name="backslash" unicode="\" horiz-adv-x="400" 
d="M245 -54l-101 716h27l101 -716h-27z" />
    <glyph glyph-name="uni208D" unicode="&#x208d;" horiz-adv-x="205" 
d="M29 -146q-15 20 -21.5 48t-6 58.5t5.5 55.5q6 26 18.5 56t31 58.5t41.5 47.5h28q-40 -32 -63.5 -75.5t-32.5 -86.5t-3.5 -86.5t30.5 -75.5h-28z" />
    <glyph glyph-name="uni208E" unicode="&#x208e;" horiz-adv-x="205" 
d="M-28 -146q41 32 64.5 75.5t32.5 86.5t3.5 86.5t-31.5 75.5h28q16 -19 22.5 -47.5t6.5 -58.5t-6 -56q-5 -25 -18 -55.5t-31.5 -58.5t-42.5 -48h-28z" />
    <glyph glyph-name="parenleft" unicode="(" horiz-adv-x="274" 
d="M129 -72q-34 33 -52 78.5t-23 96.5t-0.5 102.5t14.5 97.5q13 61 40 131.5t71.5 135t109.5 108.5h33q-93 -64 -147 -159.5t-80 -215.5q-25 -120 -11.5 -215t78.5 -160h-33z" />
    <glyph glyph-name="parenright" unicode=")" horiz-adv-x="274" 
d="M-32 -72q92 65 147 160t80 215q26 120 12 215.5t-79 159.5h33q35 -33 52.5 -78t22.5 -96.5t0.5 -103t-14.5 -97.5q-13 -61 -40 -131.5t-71.5 -135t-109.5 -108.5h-33z" />
    <glyph glyph-name="braceleft" unicode="{" horiz-adv-x="275" 
d="M131 -104q-46 0 -68 20t-11 72l42 200q10 44 2 68t-52 29l6 27q45 5 63.5 29.5t27.5 67.5l43 200q11 52 41 72t78 20h15l-6 -26h-15q-42 0 -60 -15.5t-27 -57.5l-45 -214q-5 -25 -24.5 -54t-57.5 -38q23 -6 33.5 -21.5t12 -34t-2.5 -35.5l-45 -210q-8 -42 1 -57.5
t55 -15.5h15l-6 -26h-15z" />
    <glyph glyph-name="braceright" unicode="}" horiz-adv-x="275" 
d="M-29 -104l6 26h15q42 0 59.5 15.5t26.5 57.5l45 214q6 25 25 53.5t58 37.5q-23 6 -33.5 21.5t-12 35t1.5 35.5l45 210q9 42 -2 57.5t-53 15.5h-15l6 26h15q48 0 69 -20t10 -72l-43 -200q-9 -43 -0.5 -67.5t51.5 -29.5l-6 -27q-45 -5 -63.5 -29t-28.5 -68l-42 -200
q-11 -52 -41 -72t-78 -20h-15z" />
    <glyph glyph-name="bracketleft" unicode="[" horiz-adv-x="323" 
d="M-18 -99l172 805h211l-4 -25h-185l-160 -755h185l-8 -25h-211z" />
    <glyph glyph-name="bracketright" unicode="]" horiz-adv-x="323" 
d="M-26 -99l4 25h185l160 755h-185l8 25h211l-172 -805h-211z" />
    <glyph glyph-name="uni207D" unicode="&#x207d;" horiz-adv-x="205" 
d="M135 352q-15 20 -21.5 48t-6 58.5t5.5 55.5q6 26 18.5 56t31 58.5t41.5 47.5h28q-40 -32 -63.5 -75.5t-32.5 -86.5t-4 -86.5t31 -75.5h-28z" />
    <glyph glyph-name="uni207E" unicode="&#x207e;" horiz-adv-x="205" 
d="M78 352q40 32 64 75.5t33 86.5t3.5 86.5t-31.5 75.5h28q16 -19 22.5 -47.5t6.5 -58.5t-6 -56q-5 -25 -18 -55.5t-31.5 -58.5t-42.5 -48h-28z" />
    <glyph glyph-name="hyphen" unicode="-" horiz-adv-x="487" 
d="M53 234l6 25h367l-6 -25h-367z" />
    <glyph glyph-name="uni00AD" unicode="&#xad;" horiz-adv-x="487" 
d="M53 234l6 25h367l-6 -25h-367z" />
    <glyph glyph-name="endash" unicode="&#x2013;" horiz-adv-x="597" 
d="M53 234l6 25h477l-6 -25h-477z" />
    <glyph glyph-name="emdash" unicode="&#x2014;" horiz-adv-x="909" 
d="M53 234l6 25h789l-6 -25h-789z" />
    <glyph glyph-name="figuredash" unicode="&#x2012;" horiz-adv-x="627" 
d="M53 234l6 25h507l-6 -25h-507z" />
    <glyph glyph-name="uni2015" unicode="&#x2015;" horiz-adv-x="959" 
d="M53 234l6 25h839l-6 -25h-839z" />
    <glyph glyph-name="uni2010" unicode="&#x2010;" horiz-adv-x="517" 
d="M53 234l6 25h397l-6 -25h-397z" />
    <glyph glyph-name="underscore" unicode="_" horiz-adv-x="559" 
d="M-2 -25l6 25h439l-6 -25h-439z" />
    <glyph glyph-name="quotesinglbase" unicode="&#x201a;" horiz-adv-x="196" 
d="M-23 -126l77 159h33l-88 -159h-22z" />
    <glyph glyph-name="quotedblbase" unicode="&#x201e;" horiz-adv-x="312" 
d="M93 -126l77 159h33l-88 -159h-22zM-23 -126l77 159h33l-88 -159h-22z" />
    <glyph glyph-name="quotedblleft" unicode="&#x201c;" horiz-adv-x="312" 
d="M225 495l88 159h22l-77 -159h-33zM109 495l88 159h22l-77 -159h-33z" />
    <glyph glyph-name="quotedblright" unicode="&#x201d;" horiz-adv-x="312" 
d="M225 495l77 159h33l-88 -159h-22zM109 495l77 159h33l-88 -159h-22z" />
    <glyph glyph-name="quoteleft" unicode="&#x2018;" horiz-adv-x="196" 
d="M109 495l88 159h22l-77 -159h-33z" />
    <glyph glyph-name="quoteright" unicode="&#x2019;" horiz-adv-x="196" 
d="M109 495l77 159h33l-88 -159h-22z" />
    <glyph glyph-name="guillemotleft" unicode="&#xab;" horiz-adv-x="560" 
d="M450 95l-208 181l5 24l285 181l9 -23l-268 -173l195 -173zM270 95l-208 181l5 24l285 181l9 -23l-268 -173l195 -173z" />
    <glyph glyph-name="guillemotright" unicode="&#xbb;" horiz-adv-x="560" 
d="M218 95l-10 23l269 173l-196 173l19 17l207 -181l-5 -24zM38 95l-10 23l269 173l-196 173l19 17l207 -181l-5 -24z" />
    <glyph glyph-name="guilsinglleft" unicode="&#x2039;" horiz-adv-x="380" 
d="M270 95l-208 181l5 24l285 181l9 -23l-268 -173l195 -173z" />
    <glyph glyph-name="guilsinglright" unicode="&#x203a;" horiz-adv-x="380" 
d="M38 95l-10 23l269 173l-196 173l19 17l207 -181l-5 -24z" />
    <glyph glyph-name="quotedbl" unicode="&#x22;" horiz-adv-x="274" 
d="M229 491l32 153h33l-43 -153h-22zM108 491l32 153h33l-43 -153h-22z" />
    <glyph glyph-name="quotesingle" unicode="'" horiz-adv-x="153" 
d="M108 491l32 153h33l-43 -153h-22z" />
    <glyph glyph-name="uni0E5A" unicode="&#xe5a;" horiz-adv-x="703" 
d="M302 0l79 374q-33 -21 -69.5 -32.5t-83.5 -11.5q-73 0 -106 36.5t-22 88.5q10 51 30 85h26q-10 -14 -17.5 -36.5t-12.5 -42.5q-9 -46 14 -76t93 -30q47 0 84 11.5t70 33.5l29 140h28l-37 -175q13 -6 29.5 -8t35.5 -2q48 0 83.5 11.5t68.5 33.5l29 140h28l-114 -540h-28
l79 374q-33 -21 -68.5 -32.5t-82.5 -11.5q-16 0 -34 2.5t-31 7.5l-72 -340h-28z" />
    <glyph glyph-name="uni0E4F" unicode="&#xe4f;" horiz-adv-x="614" 
d="M248 -10q-68 0 -117 33t-70 89.5t-7 124.5q15 68 58.5 124t106 89.5t134.5 33.5q68 0 117 -33.5t71 -89.5t7 -124q-14 -68 -58 -124.5t-107 -89.5t-135 -33zM254 17q61 0 117 29.5t96.5 79.5t53.5 111t-4 110.5t-60.5 79.5t-108.5 30q-61 0 -117 -30t-96.5 -79.5
t-53.5 -110.5t4 -111t60.5 -79.5t108.5 -29.5zM275 113q-52 0 -80.5 36t-17.5 88q7 34 28.5 62t53.5 44.5t68 16.5q51 0 79.5 -36t17.5 -87q-11 -52 -52.5 -88t-96.5 -36zM280 140q40 0 74.5 28.5t43.5 68.5q8 40 -11 68.5t-66 28.5q-40 0 -74.5 -28.5t-42.5 -68.5
q-9 -40 9 -68.5t67 -28.5z" />
    <glyph glyph-name="uni0E5B" unicode="&#xe5b;" horiz-adv-x="1129" 
d="M265 22q-127 0 -176.5 73.5t-22.5 198.5q16 74 51.5 131.5t89.5 91t125 33.5q96 0 133.5 -49.5t20.5 -133.5q-13 -61 -47 -104.5t-104 -72.5l5 26q55 26 81.5 63.5t37.5 88.5q16 74 -13 115.5t-117 41.5q-64 0 -111.5 -29.5t-78.5 -81.5t-46 -120q-25 -120 17.5 -183.5
t160.5 -63.5q85 0 148.5 37.5t105 101.5t57.5 143q9 42 12.5 72t3.5 67h39q11 -32 19.5 -73.5t13 -84t2.5 -80.5h2q16 29 33.5 70t31 81t16.5 66h33q6 -19 12 -54t11 -74.5t6 -74.5h2q11 21 26 55t29 71t21 66h28q7 -20 12.5 -53.5t9.5 -67t4 -55.5h2q20 29 33.5 65.5
t20.5 84.5h23l-8 -36t-9 -32h74l-8 -26h-74q-10 -25 -21.5 -44.5t-28.5 -45.5h-26q1 19 -1 52t-6.5 67t-11.5 54h-2q-4 -14 -14 -40t-22.5 -55t-24.5 -55.5t-21 -42.5h-32q3 32 1 68.5t-7.5 72t-13.5 61.5h-2q-4 -17 -14.5 -45t-24.5 -61t-29 -64t-27 -53h-32q7 35 4.5 80
t-9 88t-14.5 73h-2q-6 -115 -49 -206.5t-120.5 -144.5t-187.5 -53z" />
    <glyph glyph-name="uni0E46" unicode="&#xe46;" horiz-adv-x="535" 
d="M371 0l91 431q11 50 0.5 72t-55.5 22q-56 0 -96 -53h-18q-10 27 -23.5 40t-44.5 13q-38 0 -67 -29.5t-44 -100.5q-13 -67 7.5 -93t78.5 -26q18 0 36.5 2t33.5 6l-6 -26q-31 -7 -75 -7q-58 0 -88 35t-14 109q19 87 58 121t85 34q29 0 46.5 -11.5t28.5 -37.5
q25 26 53.5 37.5t59.5 11.5q46 0 66 -28t7 -87l-92 -435h-28z" />
    <glyph glyph-name="uni0E2F" unicode="&#xe2f;" horiz-adv-x="466" 
d="M302 0l79 374q-32 -19 -67 -31.5t-86 -12.5q-69 0 -103 35t-25 90q5 27 13 48t18 37h26q-11 -15 -19 -37t-12 -42q-8 -46 15 -76t92 -30q47 0 83.5 12t70.5 33l29 140h28l-114 -540h-28z" />
    <glyph glyph-name="uni2007" unicode="&#x2007;" horiz-adv-x="632" 
 />
    <glyph glyph-name="space" unicode=" " horiz-adv-x="235" 
 />
    <glyph glyph-name="uni00A0" unicode="&#xa0;" horiz-adv-x="235" 
 />
    <glyph glyph-name="CR" unicode="&#xd;" horiz-adv-x="235" 
 />
    <glyph glyph-name="uni0E3F" unicode="&#xe3f;" horiz-adv-x="612" 
d="M195 -86l18 86h-189l136 644h191l18 86h26l-19 -86h53q90 0 124 -43t17 -123q-11 -55 -42.5 -90.5t-75.5 -52.5q50 -10 73 -48.5t9 -105.5q-19 -95 -73.5 -138t-146.5 -43h-75l-18 -86h-26zM125 347h162l58 272h-162zM313 347h68q74 0 112 37.5t50 93.5q10 45 4.5 76.5
t-35 48t-93.5 16.5h-48zM57 25h162l63 297h-162zM245 25h78q78 0 122 36t62 120q10 45 2.5 76.5t-40 48t-100.5 16.5h-61z" />
    <glyph glyph-name="uni20B5" unicode="&#x20b5;" horiz-adv-x="584" 
d="M243 -120l23 110q-92 4 -142 44t-63 109t6 158q22 101 62.5 178.5t108.5 123.5t170 50l17 82h28l-17 -81q50 -1 90.5 -8t74.5 -20l-6 -26q-33 13 -75.5 20.5t-89.5 8.5l-130 -614q43 0 90 6.5t86 18.5l-6 -26q-38 -10 -82 -16.5t-94 -7.5l-23 -110h-28zM272 15l130 613
q-92 -4 -153 -47t-98 -115t-57 -165q-18 -85 -8 -147.5t54.5 -98t131.5 -40.5z" />
    <glyph glyph-name="cent" unicode="&#xa2;" horiz-adv-x="476" 
d="M193 -86l16 76q-110 5 -144.5 70t-10.5 177q25 117 91 178t169 68l17 77h26l-16 -76h1q44 0 68.5 -6t46.5 -18l-5 -26q-26 13 -52 19t-60 6h-5l-95 -444q32 0 65.5 7t62.5 18l-6 -26q-27 -10 -59 -16.5t-68 -7.5l-16 -76h-26zM215 15l94 443q-88 -8 -147 -62.5
t-81 -158.5q-22 -106 6 -161t128 -61z" />
    <glyph glyph-name="colonmonetary" unicode="&#x20a1;" horiz-adv-x="554" 
d="M47 -31l52 112q-34 33 -41 87.5t9 132.5q20 95 53.5 161.5t88 104t137.5 45.5l28 59h27l-27 -57h18q19 0 36.5 -1t33.5 -3l29 61h27l-30 -65q20 -3 38.5 -8t35.5 -12l-5 -26q-19 7 -39 12.5t-42 9.5l-244 -525q11 -1 22.5 -1.5t24.5 -0.5q92 0 176 25l-6 -26
q-40 -11 -84 -17.5t-97 -6.5q-13 0 -25 0.5t-23 1.5l-29 -63h-27l31 67q-23 4 -42 11t-35 17l-44 -95h-27zM206 60l245 525q-14 2 -29.5 3t-31.5 1h-14t-14 -1l-232 -499q27 -20 76 -29zM111 107l223 478q-105 -14 -158.5 -85t-81.5 -199q-14 -69 -10.5 -117t27.5 -77z" />
    <glyph glyph-name="currency" unicode="&#xa4;" horiz-adv-x="569" 
d="M34 73l-11 20l99 65q-29 46 -15 111q14 64 62 111l-71 65l19 20l72 -67q29 23 63.5 36.5t70.5 13.5t64.5 -13.5t47.5 -36.5l101 67l11 -20l-99 -65q14 -22 18.5 -50.5t-2.5 -60.5q-7 -31 -23.5 -60t-39.5 -52l71 -64l-19 -20l-72 66q-28 -22 -62.5 -35.5t-70.5 -13.5
t-65 13.5t-49 35.5zM252 115q43 0 81.5 21t66.5 56t37 77q14 66 -18 110t-102 44q-42 0 -80.5 -21t-66 -55.5t-36.5 -77.5q-14 -67 17 -110.5t101 -43.5z" />
    <glyph glyph-name="dollar" unicode="$" horiz-adv-x="551" 
d="M184 -86l16 76h-2q-57 0 -99 6.5t-74 19.5l5 25q37 -13 79 -20t94 -7h2l65 304q-106 24 -141.5 62.5t-21.5 104.5q15 71 72.5 117t161.5 51l17 77h28l-16 -76q52 -1 95 -8t64 -15l-6 -25q-30 11 -69 17t-85 6h-5l-62 -292q109 -26 145 -67t22 -110q-18 -81 -79.5 -122.5
t-161.5 -46.5l-16 -77h-28zM275 343l61 285q-174 -11 -202 -143q-8 -39 2 -64.5t43.5 -43.5t95.5 -34zM233 14q88 5 140.5 40.5t68.5 105.5q14 65 -21 97.5t-124 54.5z" />
    <glyph glyph-name="dong" unicode="&#x20ab;" horiz-adv-x="583" 
d="M212 -10q-59 0 -101.5 24t-59 77.5t1.5 139.5q27 130 100.5 191.5t171.5 61.5q53 0 88 -12t68 -42l29 138h-167l6 25h166l21 97h28l-21 -97h70l-6 -25h-69l-120 -568h-23l8 57q-43 -34 -89 -50.5t-102 -16.5zM223 15q101 0 185 71l67 315q-26 27 -59 42.5t-87 15.5
q-97 0 -161 -56t-88 -172q-46 -216 143 -216zM37 -93l5 25h389l-5 -25h-389z" />
    <glyph glyph-name="Euro" unicode="&#x20ac;" horiz-adv-x="579" 
d="M299 -10q-109 0 -155 55.5t-45 148.5h-64l5 25h60q3 38 12 82q5 21 9.5 42t10.5 40h-57l5 25h60q25 74 64 129.5t97 86t140 30.5q53 0 91.5 -7t73.5 -21l-6 -26q-25 11 -47.5 17t-49.5 9t-65 3q-74 0 -126 -27.5t-86.5 -77t-57.5 -116.5h279l-5 -25h-282q-12 -40 -21 -82
q-4 -22 -7.5 -42.5t-5.5 -39.5h281l-5 -25h-277q-2 -85 39.5 -132t146.5 -47q45 0 87.5 6.5t82.5 18.5l-6 -26q-40 -11 -81.5 -17.5t-94.5 -6.5z" />
    <glyph glyph-name="florin" unicode="&#x192;" horiz-adv-x="519" 
d="M-93 -123q-20 0 -34.5 3t-27.5 7l6 26q14 -7 28.5 -9t31.5 -2q62 0 94 22.5t56 77.5l190 446h-75l10 26h75l40 91q29 67 72 96t110 29q20 0 35.5 -2.5t28.5 -7.5l-5 -25q-28 11 -61 11q-66 0 -99.5 -27t-54.5 -76l-38 -89h137l-12 -26h-135l-190 -446q-27 -63 -66.5 -94
t-115.5 -31z" />
    <glyph glyph-name="uni20B2" unicode="&#x20b2;" horiz-adv-x="627" 
d="M243 -120l23 111q-90 4 -140 44t-64 108.5t5 157.5q21 101 63 178.5t110 123.5t167 50l18 82h28l-17 -81q50 -1 91 -7t74 -17l-5 -26q-34 11 -76.5 17.5t-89.5 7.5l-62 -295h213l-63 -297q-27 -16 -82 -30.5t-142 -16.5l-23 -110h-28zM272 16l130 612q-90 -5 -151.5 -48
t-99 -114.5t-57.5 -164.5q-18 -83 -8 -145.5t54.5 -98.5t131.5 -41zM300 15q50 0 101.5 8.5t91.5 24.5l55 260h-186z" />
    <glyph glyph-name="lira" unicode="&#x20a4;" horiz-adv-x="507" 
d="M4 0l5 26h28q35 0 56 22.5t29 62.5l24 113h-75l6 26h75l25 120h-75l6 26h75l24 116q16 71 67 106.5t122 35.5q66 0 96 -16l-5 -26q-13 8 -39 12.5t-51 4.5q-66 0 -107.5 -29.5t-53.5 -86.5l-25 -117h229l-6 -26h-229l-25 -120h229l-6 -26h-229l-24 -112q-6 -28 -17 -50.5
t-31 -35.5h294l-5 -26h-387z" />
    <glyph glyph-name="uni20BA" unicode="&#x20ba;" horiz-adv-x="569" 
d="M109 0l70 332l-112 -34l6 27l112 34l21 101l-112 -34l6 27l112 34l33 157h28l-31 -147l238 73l-6 -26l-237 -73l-22 -102l237 73l-5 -26l-238 -73l-67 -319q143 0 229.5 66t113.5 193l9 43h28l-8 -39q-59 -287 -377 -287h-28z" />
    <glyph glyph-name="uni20A6" unicode="&#x20a6;" horiz-adv-x="627" 
d="M63 0l46 221h-59l6 26h59l26 123h-59l6 26h58l53 248h31l83 -248h194l53 248h28l-53 -248h60l-6 -26h-59l-26 -123h59l-6 -26h-59l-46 -221h-31l-75 221h-209l-46 -221h-28zM174 396h113l-69 205zM143 247h194l-41 123h-127zM364 247h112l26 123h-180zM433 43l37 178h-97
z" />
    <glyph glyph-name="peseta" unicode="&#x20a7;" horiz-adv-x="1084" 
d="M24 0l136 644h141q104 0 140.5 -52.5t17.5 -140.5q-19 -90 -81.5 -140t-161.5 -50h-109l-55 -261h-28zM112 286h111q86 0 139.5 44.5t69.5 120.5q17 81 -13 124.5t-120 43.5h-116zM798 -10q-38 0 -72 5t-60 13l6 26q60 -19 129 -19q76 0 114.5 23.5t49.5 77.5q8 38 -3 57
t-40 31.5t-76 29.5q-36 14 -66.5 26.5t-45.5 36t-6 68.5q13 59 56 89t131 30q70 0 116 -15l-5 -26q-54 16 -112 16q-81 0 -114.5 -23t-44.5 -70q-7 -32 2 -50.5t34.5 -30.5t67.5 -27q49 -16 82 -32t47 -41t4 -69q-15 -70 -63 -98t-131 -28zM557 -10q-56 0 -81 33t-12 91
l41 192h-77l5 26h77l28 132l30 10l-30 -142h143l-7 -26h-141l-41 -192q-10 -48 6 -73.5t74 -25.5q24 0 58 11l-5 -26q-16 -4 -33 -7t-35 -3z" />
    <glyph glyph-name="uni20B1" unicode="&#x20b1;" horiz-adv-x="601" 
d="M22 0l80 378h-38l5 25h38l21 99h-38l6 25h37l25 117h241q79 0 118.5 -31t44.5 -86h55l-6 -25h-48q0 -24 -6 -51q-3 -13 -6 -25t-8 -23h47l-5 -25h-54q-30 -56 -85 -86.5t-132 -30.5h-209l-55 -261h-28zM161 527h375q-5 45 -38 68.5t-101 23.5h-216zM135 403h380
q9 23 15 48q3 14 4.5 26.5t2.5 24.5h-381zM110 286h211q63 0 108.5 24.5t72.5 67.5h-373z" />
    <glyph glyph-name="uni20BD" unicode="&#x20bd;" horiz-adv-x="626" 
d="M70 0l29 139h-66l5 25h66l21 97h-66l5 25h66l76 358h241q104 0 140.5 -52.5t17.5 -140.5q-19 -90 -81.5 -140t-161.5 -50h-209l-21 -97h155l-5 -25h-155l-29 -139h-28zM158 286h211q86 0 139.5 44.5t69.5 120.5q17 81 -10.5 124.5t-118.5 43.5h-220z" />
    <glyph glyph-name="uni20B9" unicode="&#x20b9;" horiz-adv-x="438" 
d="M219 0l-46 222q-5 25 -14.5 40.5t-30.5 23t-62 7.5l5 25h41q52 0 97 14t77.5 47t44.5 91l2 8h-228l5 25h225q6 116 -135 116h-65l5 25h318l-5 -25h-146q62 -37 56 -116h65l-5 -25h-63l-2 -8q-16 -77 -69.5 -120t-134.5 -52q23 -10 32 -27t14 -43l46 -228h-27z" />
    <glyph glyph-name="sterling" unicode="&#xa3;" horiz-adv-x="507" 
d="M4 0l5 26h28q35 0 56 22.5t29 62.5l46 218h-75l6 26h75l33 157q16 71 67 106.5t122 35.5q66 0 96 -16l-5 -26q-13 8 -39 12.5t-51 4.5q-66 0 -107.5 -29.5t-53.5 -86.5l-34 -158h229l-6 -26h-229l-46 -217q-6 -28 -17 -50.5t-31 -35.5h294l-5 -26h-387z" />
    <glyph glyph-name="yen" unicode="&#xa5;" horiz-adv-x="588" 
d="M223 0l26 125h-169l5 25h169l18 84h-169l6 25h159l-128 385h26l126 -376l285 376h31l-292 -385h160l-6 -25h-169l-18 -84h169l-5 -25h-169l-26 -125h-29z" />
    <glyph glyph-name="uni2219" unicode="&#x2219;" horiz-adv-x="157" 
d="M74 333l8 37h37l-8 -37h-37z" />
    <glyph glyph-name="uni2215" unicode="&#x2215;" horiz-adv-x="461" 
d="M4 0l454 662h27l-454 -662h-27z" />
    <glyph glyph-name="plus" unicode="+" horiz-adv-x="487" 
d="M188 71l34 163h-169l6 25h169l36 170h28l-36 -170h170l-6 -25h-170l-34 -163h-28z" />
    <glyph glyph-name="minus" unicode="&#x2212;" horiz-adv-x="487" 
d="M53 234l6 25h367l-6 -25h-367z" />
    <glyph glyph-name="multiply" unicode="&#xd7;" horiz-adv-x="397" 
d="M287 109l-95 120l-140 -115l-15 19l139 116l-94 119l22 18l93 -120l147 120l15 -19l-146 -121l94 -120z" />
    <glyph glyph-name="divide" unicode="&#xf7;" horiz-adv-x="487" 
d="M249 379l9 40h36l-9 -40h-36zM53 234l6 25h367l-6 -25h-367zM186 81l8 40h36l-8 -40h-36z" />
    <glyph glyph-name="equal" unicode="=" horiz-adv-x="494" 
d="M66 296l6 25h374l-6 -25h-374zM41 175l5 26h374l-5 -26h-374z" />
    <glyph glyph-name="notequal" unicode="&#x2260;" horiz-adv-x="494" 
d="M118 42l76 133h-153l5 26h163l54 95h-197l6 25h205l75 132h27l-75 -132h142l-6 -25h-150l-54 -95h184l-5 -26h-194l-76 -133h-27z" />
    <glyph glyph-name="greater" unicode="&#x3e;" horiz-adv-x="546" 
d="M19 75l7 31l437 184l-359 184l6 27l383 -201l-5 -24z" />
    <glyph glyph-name="less" unicode="&#x3c;" horiz-adv-x="546" 
d="M445 75l-383 201l5 24l469 201l-6 -31l-437 -184l359 -184z" />
    <glyph glyph-name="greaterequal" unicode="&#x2265;" horiz-adv-x="546" 
d="M19 75l7 31l437 184l-359 184l6 27l383 -201l-5 -24zM4 0l5 25h426l-5 -25h-426z" />
    <glyph glyph-name="lessequal" unicode="&#x2264;" horiz-adv-x="546" 
d="M445 75l-383 201l5 24l469 201l-6 -31l-437 -184l359 -184zM4 0l5 25h426l-5 -25h-426z" />
    <glyph glyph-name="plusminus" unicode="&#xb1;" horiz-adv-x="487" 
d="M188 71l34 163h-169l6 25h169l36 170h28l-36 -170h170l-6 -25h-170l-34 -163h-28zM4 0l5 25h367l-5 -25h-367z" />
    <glyph glyph-name="approxequal" unicode="&#x2248;" horiz-adv-x="494" 
d="M341 273q-29 0 -49 8t-37.5 18.5t-37 18.5t-48.5 8q-31 0 -53.5 -8.5t-52.5 -37.5l7 33q22 22 48 30t56 8t51 -8t38 -18.5t36.5 -18.5t46.5 -8q31 0 52.5 8.5t52.5 37.5l-7 -33q-22 -22 -47.5 -30t-55.5 -8zM314 146q-29 0 -49 8t-37.5 18.5t-37 18.5t-48.5 8
q-31 0 -53.5 -8.5t-52.5 -37.5l7 33q22 22 48 30t56 8t51 -8t38 -18.5t36.5 -18.5t46.5 -8q31 0 52.5 8.5t52.5 37.5l-7 -33q-22 -22 -47.5 -30t-55.5 -8z" />
    <glyph glyph-name="asciitilde" unicode="~" horiz-adv-x="587" 
d="M409 253q-33 0 -59.5 11t-51 25.5t-51 25.5t-58.5 11q-38 0 -68 -15t-61 -46l7 33q22 23 56 38t71 15q34 0 61.5 -11t52 -25.5t50.5 -25.5t57 -11q38 0 67.5 15t60.5 46l-7 -33q-22 -24 -55.5 -38.5t-71.5 -14.5z" />
    <glyph glyph-name="logicalnot" unicode="&#xac;" horiz-adv-x="540" 
d="M429 158l38 178h-392l5 25h420l-43 -203h-28z" />
    <glyph glyph-name="asciicircum" unicode="^" horiz-adv-x="420" 
d="M89 402l182 222h30l88 -222h-27l-78 201l-164 -201h-31z" />
    <glyph glyph-name="infinity" unicode="&#x221e;" horiz-adv-x="728" 
d="M182 149q-64 0 -98 34t-20 101t61 101t115 34q53 0 87 -29.5t47 -77.5q33 48 78 77.5t102 29.5q64 0 98 -34t20 -101t-60 -101t-116 -34q-51 0 -86 29.5t-48 77.5q-34 -48 -78 -77.5t-102 -29.5zM187 174q53 0 95.5 29.5t73.5 81.5q-13 53 -39.5 81t-82.5 28
q-59 0 -95.5 -29.5t-47.5 -80.5t10 -80.5t86 -29.5zM501 174q59 0 96 29.5t48 80.5t-11.5 80.5t-85.5 29.5q-52 0 -92.5 -28.5t-75.5 -82.5q13 -52 39.5 -80.5t81.5 -28.5z" />
    </font>
</defs>
</svg>
